<svg width="21" height="21" viewBox="0 0 21 21" fill="none" xmlns="http://www.w3.org/2000/svg">
<g id="Frame">
<path id="Vector" d="M18.3 5.31832C18.1942 5.21746 18.0682 5.1374 17.9295 5.08276C17.7908 5.02813 17.642 5 17.4917 5C17.3414 5 17.1926 5.02813 17.0538 5.08276C16.9151 5.1374 16.7892 5.21746 16.6834 5.31832L8.20169 13.3464L4.63826 9.9673C4.52837 9.86697 4.39865 9.78807 4.25651 9.73512C4.11436 9.68217 3.96258 9.6562 3.80981 9.6587C3.65705 9.6612 3.50631 9.69211 3.36619 9.74968C3.22606 9.80724 3.09931 9.89034 2.99316 9.99421C2.88701 10.0981 2.80354 10.2207 2.74752 10.3551C2.69151 10.4894 2.66404 10.6329 2.66668 10.7773C2.66932 10.9217 2.70203 11.0642 2.76293 11.1966C2.82383 11.3291 2.91173 11.4489 3.02162 11.5492L7.39338 15.6817C7.49921 15.7825 7.62513 15.8626 7.76386 15.9172C7.9026 15.9719 8.0514 16 8.20169 16C8.35199 16 8.50079 15.9719 8.63953 15.9172C8.77826 15.8626 8.90418 15.7825 9.01001 15.6817L18.3 6.90027C18.4156 6.7995 18.5078 6.67719 18.5709 6.54106C18.6339 6.40492 18.6665 6.25792 18.6665 6.1093C18.6665 5.96068 18.6339 5.81367 18.5709 5.67754C18.5078 5.5414 18.4156 5.4191 18.3 5.31832Z" fill="#75CDC5"/>
</g>
</svg>
