<svg width="20" height="21" viewBox="0 0 20 21" fill="none" xmlns="http://www.w3.org/2000/svg">
<g id="Frame">
<g id="Vector">
<path fill-rule="evenodd" clip-rule="evenodd" d="M4.79289 5.29289C5.18342 4.90237 5.81658 4.90237 6.20711 5.29289L15.2071 14.2929C15.5976 14.6834 15.5976 15.3166 15.2071 15.7071C14.8166 16.0976 14.1834 16.0976 13.7929 15.7071L4.79289 6.70711C4.40237 6.31658 4.40237 5.68342 4.79289 5.29289Z" fill="#F04438"/>
<path fill-rule="evenodd" clip-rule="evenodd" d="M15.2071 5.29289C14.8166 4.90237 14.1834 4.90237 13.7929 5.29289L4.79289 14.2929C4.40237 14.6834 4.40237 15.3166 4.79289 15.7071C5.18342 16.0976 5.81658 16.0976 6.20711 15.7071L15.2071 6.70711C15.5976 6.31658 15.5976 5.68342 15.2071 5.29289Z" fill="#F04438"/>
</g>
</g>
</svg>
