<svg width="20" height="20" viewBox="0 0 20 20" fill="none" xmlns="http://www.w3.org/2000/svg">
<g id="Group 1116606765">
<path id="Vector" d="M16.1941 11.8238C18.1162 9.60399 18.3962 6.22614 16.6857 3.66829C15.7237 2.23189 14.25 1.24995 12.5887 0.938503C10.9274 0.627053 9.21466 1.0116 7.82723 2.00754C6.43981 3.00349 5.49135 4.52926 5.19052 6.24919C4.88969 7.96912 5.26112 9.74233 6.22311 11.1787C6.69789 11.8912 7.30446 12.4991 8.00771 12.9673C8.71095 13.4354 9.4969 13.7545 10.3201 13.906C10.7 13.9774 11.0854 14.0134 11.4716 14.0135C12.26 14.0139 13.0415 13.8609 13.7754 13.5624L15.0981 16.6551C15.2244 16.9516 15.4126 17.2154 15.6492 17.4276C15.8857 17.6397 16.1648 17.795 16.4662 17.8822C16.5314 17.9011 16.598 17.917 16.6639 17.9292C16.7899 17.9534 16.9177 17.9658 17.0459 17.9663C17.4677 17.9653 17.8797 17.8344 18.2295 17.5903C18.5792 17.3461 18.8508 16.9997 19.0098 16.5952C19.1688 16.1907 19.208 15.7464 19.1223 15.3188C19.0366 14.8912 18.83 14.4997 18.5287 14.194L16.1941 11.8238ZM18.2315 15.8685C18.2174 16.04 18.1689 16.2065 18.0891 16.3574C18.0093 16.5084 17.9 16.6404 17.768 16.7451C17.6361 16.8498 17.4846 16.9248 17.323 16.9653C17.1615 17.0059 16.9936 17.0111 16.83 16.9806C16.7942 16.9736 16.7555 16.9647 16.7186 16.9539C16.5491 16.905 16.3922 16.8178 16.2591 16.6986C16.1261 16.5794 16.0202 16.4311 15.9492 16.2644L14.6147 13.1442C14.7732 13.05 14.9283 12.9486 15.0801 12.8399C15.2336 12.7296 15.3809 12.6136 15.522 12.4918L17.877 14.8809C18.0028 15.0083 18.0997 15.1629 18.1609 15.3336C18.222 15.5044 18.2459 15.6871 18.2307 15.8685H18.2315Z" fill="#75CDC5"/>
<path id="Vector_2" d="M4.79164 19.0244C4.8789 19.1148 4.99726 19.1656 5.1207 19.1657H11.8451C12.1935 19.1653 12.5275 19.0218 12.7739 18.7668C13.0203 18.5117 13.1588 18.1659 13.1592 17.8052V15.9146C13.1592 15.7868 13.1102 15.6642 13.0229 15.5739C12.9356 15.4835 12.8172 15.4327 12.6937 15.4327C12.5703 15.4327 12.4519 15.4835 12.3646 15.5739C12.2773 15.6642 12.2282 15.7868 12.2282 15.9146V17.8052C12.2281 17.9103 12.1876 18.0111 12.1158 18.0855C12.044 18.1598 11.9467 18.2017 11.8451 18.2019H5.80782V15.1476C5.80753 14.8475 5.69223 14.5597 5.48722 14.3474C5.2822 14.1352 5.00423 14.0158 4.71429 14.0155H1.76421V3.922C1.7644 3.81687 1.80483 3.71609 1.87664 3.64174C1.94845 3.5674 2.04579 3.52555 2.14734 3.52535H4.15536C4.27881 3.52535 4.39721 3.47458 4.4845 3.3842C4.5718 3.29383 4.62084 3.17125 4.62084 3.04344C4.62084 2.91563 4.5718 2.79305 4.4845 2.70267C4.39721 2.6123 4.27881 2.56152 4.15536 2.56152H2.14734C1.79894 2.56192 1.46492 2.70538 1.21856 2.96043C0.972201 3.21549 0.833631 3.5613 0.833252 3.922V14.7269C0.833297 14.8547 0.882369 14.9772 0.969674 15.0676L4.79164 19.0244Z" fill="#75CDC5"/>
<path id="Vector_3" d="M15.3114 7.52161V5.76707C15.3114 5.63926 15.2624 5.51668 15.1751 5.42631C15.0878 5.33593 14.9694 5.28516 14.846 5.28516H13.1505C13.0271 5.28516 12.9087 5.33593 12.8214 5.42631C12.7341 5.51668 12.685 5.63926 12.685 5.76707C12.685 5.89488 12.7341 6.01746 12.8214 6.10784C12.9087 6.19821 13.0271 6.24898 13.1505 6.24898H13.7234L12.0595 7.97164L10.595 6.45547C10.5077 6.36514 10.3894 6.31441 10.266 6.31441C10.1426 6.31441 10.0242 6.36514 9.93691 6.45547L7.73304 8.73603C7.68819 8.78039 7.65236 8.83358 7.62765 8.89247C7.60294 8.95136 7.58985 9.01477 7.58914 9.07898C7.58843 9.14319 7.60013 9.20689 7.62354 9.26635C7.64694 9.32582 7.68159 9.37983 7.72545 9.42524C7.7693 9.47064 7.82148 9.50651 7.87891 9.53075C7.93635 9.55498 7.99788 9.56709 8.0599 9.56636C8.12191 9.56562 8.18317 9.55207 8.24005 9.52649C8.29694 9.5009 8.34831 9.46381 8.39115 9.41738L10.2649 7.47824L11.7294 8.99441C11.8167 9.08473 11.935 9.13547 12.0584 9.13547C12.1818 9.13547 12.3002 9.08473 12.3875 8.99441L14.3805 6.93108V7.52198C14.3805 7.64979 14.4295 7.77237 14.5168 7.86274C14.6041 7.95312 14.7225 8.00389 14.846 8.00389C14.9694 8.00389 15.0878 7.95312 15.1751 7.86274C15.2624 7.77237 15.3114 7.64979 15.3114 7.52198V7.52161Z" fill="white"/>
</g>
</svg>
