<svg width="32" height="32" viewBox="0 0 32 32" fill="none" xmlns="http://www.w3.org/2000/svg">
<path d="M25.0096 18.6535C27.8053 15.4248 28.2126 10.5116 25.7247 6.79104C24.3254 4.70173 22.1818 3.27346 19.7654 2.82044C17.349 2.36742 14.8577 2.92676 12.8396 4.37541C10.8216 5.82406 9.44199 8.04335 9.00442 10.5451C8.56684 13.0468 9.10711 15.626 10.5064 17.7153C11.197 18.7517 12.0792 19.6359 13.1021 20.3168C14.125 20.9977 15.2682 21.4618 16.4656 21.6822C17.0182 21.7861 17.5788 21.8385 18.1405 21.8386C19.2874 21.8392 20.4241 21.6166 21.4915 21.1824L23.4154 25.681C23.5991 26.1122 23.8729 26.4959 24.217 26.8045C24.5611 27.1131 24.967 27.3389 25.4054 27.4658C25.5002 27.4933 25.5971 27.5164 25.6929 27.5342C25.8762 27.5694 26.0622 27.5874 26.2486 27.5882C26.8622 27.5867 27.4614 27.3963 27.9701 27.0412C28.4788 26.6861 28.874 26.1822 29.1052 25.5939C29.3365 25.0055 29.3934 24.3592 29.2688 23.7372C29.1442 23.1153 28.8436 22.5458 28.4053 22.1012L25.0096 18.6535ZM27.9731 24.5368C27.9526 24.7862 27.8821 25.0284 27.766 25.248C27.6499 25.4675 27.4909 25.6596 27.299 25.8119C27.1071 25.9641 26.8867 26.0732 26.6517 26.1322C26.4168 26.1912 26.1725 26.1988 25.9346 26.1544C25.8825 26.1442 25.8262 26.1312 25.7726 26.1156C25.526 26.0445 25.2978 25.9176 25.1042 25.7442C24.9107 25.5708 24.7567 25.3551 24.6534 25.1127L22.7123 20.5742C22.9428 20.4372 23.1685 20.2897 23.3893 20.1315C23.6126 19.9712 23.8268 19.8024 24.032 19.6252L27.4574 23.1004C27.6404 23.2856 27.7814 23.5104 27.8704 23.7588C27.9594 24.0072 27.9941 24.2729 27.972 24.5368H27.9731Z" fill="white"/>
<path d="M8.4244 29.1277C8.55132 29.2592 8.72349 29.3331 8.90303 29.3331H18.684C19.1908 29.3326 19.6766 29.1239 20.035 28.7529C20.3933 28.3819 20.5949 27.8789 20.5954 27.3543V24.6043C20.5954 24.4184 20.5241 24.2401 20.3971 24.1087C20.2701 23.9772 20.0979 23.9034 19.9183 23.9034C19.7388 23.9034 19.5666 23.9772 19.4396 24.1087C19.3126 24.2401 19.2413 24.4184 19.2413 24.6043V27.3543C19.241 27.5072 19.1822 27.6538 19.0777 27.7619C18.9733 27.8701 18.8317 27.9309 18.684 27.9312H9.90248V23.4887C9.90207 23.0521 9.73435 22.6335 9.43615 22.3248C9.13795 22.016 8.73362 21.8424 8.3119 21.842H4.02088V7.16052C4.02115 7.00759 4.07995 6.86101 4.1844 6.75287C4.28885 6.64473 4.43044 6.58386 4.57815 6.58357H7.4989C7.67847 6.58357 7.85068 6.50972 7.97766 6.37826C8.10463 6.24681 8.17597 6.06851 8.17597 5.88261C8.17597 5.6967 8.10463 5.51841 7.97766 5.38695C7.85068 5.25549 7.67847 5.18164 7.4989 5.18164H4.57815C4.07139 5.18221 3.58553 5.39088 3.22719 5.76187C2.86886 6.13286 2.6673 6.63586 2.66675 7.16052V22.8767C2.66681 23.0626 2.73819 23.2408 2.86518 23.3722L8.4244 29.1277Z" fill="white"/>
<path d="M23.7261 12.3956V9.84354C23.7261 9.65764 23.6548 9.47934 23.5278 9.34789C23.4008 9.21643 23.2286 9.14258 23.0491 9.14258H20.583C20.4034 9.14258 20.2312 9.21643 20.1042 9.34789C19.9772 9.47934 19.9059 9.65764 19.9059 9.84354C19.9059 10.0295 19.9772 10.2077 20.1042 10.3392C20.2312 10.4707 20.4034 10.5445 20.583 10.5445H21.4163L18.996 13.0502L16.8659 10.8448C16.7389 10.7135 16.5668 10.6397 16.3873 10.6397C16.2078 10.6397 16.0356 10.7135 15.9086 10.8448L12.703 14.162C12.6378 14.2266 12.5857 14.3039 12.5497 14.3896C12.5138 14.4752 12.4947 14.5675 12.4937 14.6609C12.4927 14.7543 12.5097 14.8469 12.5437 14.9334C12.5778 15.0199 12.6282 15.0985 12.692 15.1645C12.7557 15.2306 12.8316 15.2827 12.9152 15.318C12.9987 15.3532 13.0882 15.3708 13.1784 15.3698C13.2686 15.3687 13.3577 15.349 13.4405 15.3118C13.5232 15.2746 13.5979 15.2206 13.6603 15.1531L16.3857 12.3325L18.5159 14.5379C18.6428 14.6692 18.815 14.743 18.9945 14.743C19.174 14.743 19.3462 14.6692 19.4731 14.5379L22.372 11.5366V12.3961C22.372 12.582 22.4433 12.7603 22.5703 12.8918C22.6973 13.0233 22.8695 13.0971 23.0491 13.0971C23.2286 13.0971 23.4008 13.0233 23.5278 12.8918C23.6548 12.7603 23.7261 12.582 23.7261 12.3961V12.3956Z" fill="url(#paint0_linear_4587_131396)"/>
<defs>
<linearGradient id="paint0_linear_4587_131396" x1="23.4615" y1="14.7054" x2="17.6625" y2="4.51429" gradientUnits="userSpaceOnUse">
<stop stop-color="#12ADB7"/>
<stop offset="1" stop-color="#125B54"/>
</linearGradient>
</defs>
</svg>
