<svg width="16" height="22" viewBox="0 0 16 22" fill="none" xmlns="http://www.w3.org/2000/svg">
<g id="Group 1116606764">
<path id="Vector" opacity="0.3" d="M1.19879 5.02053C1.13435 5.08493 1.09814 5.17227 1.09814 5.26334C1.09814 5.35441 1.13435 5.44174 1.19879 5.50615L4.23531 8.53989C4.30014 8.60245 4.38697 8.63706 4.4771 8.63628C4.56723 8.6355 4.65345 8.59938 4.71718 8.5357C4.78091 8.47203 4.81707 8.38589 4.81785 8.29584C4.81863 8.2058 4.78399 8.11904 4.72137 8.05427L1.68485 5.02053C1.62039 4.95615 1.53297 4.91998 1.44182 4.91998C1.35067 4.91998 1.26325 4.95615 1.19879 5.02053ZM11.0096 6.69426V2.45867C11.0096 2.36759 10.9734 2.28023 10.9089 2.21583C10.8444 2.15142 10.757 2.11524 10.6658 2.11524C10.5747 2.11524 10.4872 2.15142 10.4228 2.21583C10.3583 2.28023 10.3221 2.36759 10.3221 2.45867V6.69426C10.3221 6.78535 10.3583 6.8727 10.4228 6.93711C10.4872 7.00152 10.5747 7.0377 10.6658 7.0377C10.757 7.0377 10.8444 7.00152 10.9089 6.93711C10.9734 6.8727 11.0096 6.78535 11.0096 6.69426ZM5.68043 0.609613C5.67012 0.565195 5.65106 0.523273 5.62437 0.486292C5.59767 0.44931 5.56387 0.41801 5.52494 0.394217C5.48601 0.370424 5.44273 0.354614 5.39762 0.34771C5.3525 0.340806 5.30647 0.342945 5.26219 0.354004C5.21792 0.365063 5.17629 0.384819 5.13974 0.41212C5.10319 0.439422 5.07244 0.473722 5.0493 0.51302C5.02615 0.552318 5.01107 0.595826 5.00494 0.641008C4.9988 0.68619 5.00173 0.732141 5.01356 0.776179L6.04481 4.89741C6.05511 4.94183 6.07417 4.98375 6.10087 5.02073C6.12756 5.05771 6.16136 5.08901 6.20029 5.1128C6.23923 5.1366 6.28251 5.15241 6.32762 5.15931C6.37273 5.16621 6.41877 5.16408 6.46304 5.15302C6.50732 5.14196 6.54895 5.1222 6.5855 5.0949C6.62205 5.0676 6.6528 5.0333 6.67594 4.994C6.69908 4.9547 6.71416 4.91119 6.7203 4.86601C6.72644 4.82083 6.72351 4.77488 6.71168 4.73084L5.68043 0.609613ZM7.15615 7.35263L6.39732 7.4627L6.94646 7.99743L6.81687 8.75247L7.49543 8.39599L8.17399 8.75247L8.0444 7.99743L8.59354 7.4627L7.83471 7.35263L7.49543 6.66559L7.15615 7.35263ZM8.26216 3.22179L8.49488 3.74484L8.76885 3.24205L9.33862 3.18246L8.94468 2.7669L9.06396 2.2071L8.54662 2.453L8.05059 2.16658L8.12484 2.73411L7.69893 3.11687L8.26216 3.22179ZM3.6884 2.99289L3.27332 2.59845L3.21248 3.16752L2.70854 3.44004L3.23156 3.67375L3.33537 4.23664L3.71934 3.81198L4.28738 3.88736L4.00173 3.39127L4.24906 2.87492L3.6884 2.99289Z" fill="#75CDC5"/>
<path id="Vector_2" d="M1.19905 4.67678C1.13461 4.74118 1.09841 4.82852 1.09841 4.91959C1.09841 5.01066 1.13461 5.09799 1.19905 5.1624L4.23557 8.19614C4.3004 8.2587 4.38723 8.29331 4.47736 8.29253C4.56749 8.29175 4.65371 8.25563 4.71744 8.19195C4.78118 8.12828 4.81733 8.04214 4.81811 7.95209C4.81889 7.86204 4.78425 7.77529 4.72163 7.71052L1.68511 4.67678C1.62065 4.6124 1.53323 4.57623 1.44208 4.57623C1.35093 4.57623 1.26351 4.6124 1.19905 4.67678ZM11.0098 6.35051V2.11492C11.0098 2.02384 10.9736 1.93648 10.9092 1.87208C10.8447 1.80767 10.7573 1.77149 10.6661 1.77149C10.5749 1.77149 10.4875 1.80767 10.423 1.87208C10.3586 1.93648 10.3223 2.02384 10.3223 2.11492V6.35051C10.3223 6.4416 10.3586 6.52895 10.423 6.59336C10.4875 6.65777 10.5749 6.69395 10.6661 6.69395C10.7573 6.69395 10.8447 6.65777 10.9092 6.59336C10.9736 6.52895 11.0098 6.4416 11.0098 6.35051ZM5.68069 0.265863C5.67038 0.221445 5.65132 0.179523 5.62463 0.142542C5.59793 0.10556 5.56413 0.0742602 5.5252 0.0504671C5.48627 0.026674 5.44299 0.0108642 5.39788 0.00396003C5.35276 -0.00294415 5.30673 -0.000804507 5.26245 0.0102541C5.21818 0.0213128 5.17655 0.041069 5.14 0.0683705C5.10345 0.0956719 5.0727 0.129972 5.04956 0.16927C5.02641 0.208568 5.01133 0.252076 5.0052 0.297258C4.99906 0.34244 5.00199 0.388391 5.01382 0.432429L6.04507 4.55366C6.05537 4.59808 6.07443 4.64 6.10113 4.67698C6.12782 4.71396 6.16162 4.74526 6.20056 4.76905C6.23949 4.79285 6.28277 4.80866 6.32788 4.81556C6.37299 4.82246 6.41903 4.82033 6.4633 4.80927C6.50758 4.79821 6.54921 4.77845 6.58576 4.75115C6.62231 4.72385 6.65306 4.68955 6.6762 4.65025C6.69935 4.61095 6.71443 4.56744 6.72056 4.52226C6.7267 4.47708 6.72377 4.43113 6.71194 4.38709L5.68069 0.265863ZM14.7351 15.754C14.5235 15.5419 14.2548 15.3957 13.9616 15.3332C14.0166 15.1383 14.0284 14.9337 13.9964 14.7337C13.9643 14.5337 13.8891 14.343 13.776 14.1749C13.6628 14.0068 13.5145 13.8653 13.3412 13.7602C13.1678 13.6551 12.9737 13.589 12.7723 13.5663C12.8268 13.4118 12.8553 13.2493 12.8565 13.0855C12.8573 12.7274 12.7337 12.3801 12.5067 12.1029C12.2798 11.8258 11.9636 11.6359 11.6121 11.5658L13.4787 9.7009C13.6255 9.55521 13.7419 9.3817 13.8208 9.19054C13.8997 8.99939 13.9397 8.79441 13.9384 8.58763C13.9371 8.38084 13.8945 8.1764 13.8131 7.98626C13.7317 7.79613 13.6132 7.62412 13.4645 7.48032C13.3157 7.33651 13.1398 7.2238 12.9469 7.14877C12.754 7.07374 12.5481 7.03791 12.3412 7.04338C12.1343 7.04884 11.9305 7.09548 11.7419 7.18058C11.5533 7.26568 11.3835 7.38752 11.2426 7.53897C9.20069 9.71807 6.66038 12.1942 5.65835 12.6047C5.07397 12.8451 4.93132 12.6579 4.481 11.9109C4.167 11.3311 3.74999 10.8132 3.25038 10.3826C2.65741 9.90009 1.95788 9.88636 1.37694 10.3448C0.722097 10.8686 0.627566 11.7581 1.14835 12.5068C2.22772 14.0471 2.21913 14.7511 2.21225 15.4311C2.16069 20.344 5.57241 21.8637 7.59882 21.9856C7.7535 21.9959 7.90304 21.9993 8.05085 21.9993C8.98725 22.0094 9.91518 21.8214 10.7737 21.4476C11.6321 21.0738 12.4017 20.5227 13.0318 19.8305L14.1558 18.5907C14.1626 18.5843 14.1689 18.5774 14.1748 18.5701L14.7351 17.9537C15.0265 17.6617 15.1901 17.2662 15.1901 16.8538C15.1901 16.4415 15.0265 16.0459 14.7351 15.754ZM13.116 14.4506C13.2428 14.5766 13.3174 14.7457 13.3251 14.9242C13.3327 15.1027 13.2728 15.2776 13.1573 15.414C13.1427 15.4276 13.1295 15.4425 13.1177 15.4586C13.1168 15.4595 13.1162 15.4607 13.116 15.462L12.1277 16.4477C11.9878 16.4982 11.8365 16.5082 11.6912 16.4766C11.5459 16.445 11.4124 16.3731 11.3062 16.2691C11.2924 16.2554 11.2787 16.2416 11.2649 16.2296C11.1291 16.0895 11.0493 15.9046 11.0405 15.7098C11.0316 15.515 11.0943 15.3237 11.2168 15.1718C11.3526 15.0636 11.9301 14.6103 12.236 14.3476C12.3731 14.2639 12.5343 14.2285 12.6938 14.2472C12.8534 14.2659 13.002 14.3375 13.116 14.4506ZM11.9146 12.4724C11.9955 12.5527 12.0596 12.6483 12.1033 12.7535C12.1469 12.8587 12.1693 12.9715 12.169 13.0855C12.1469 13.3645 12.0176 13.6242 11.808 13.8101C11.5983 13.9921 11.1463 14.3527 10.8129 14.6155C10.6706 14.6559 10.52 14.6573 10.3769 14.6196C10.2339 14.5818 10.1036 14.5062 9.99991 14.4008L9.97757 14.3785C9.82129 14.2219 9.73353 14.0098 9.73353 13.7886C9.73353 13.5675 9.82129 13.3554 9.97757 13.1988L10.7837 12.3917C10.9504 12.2671 11.1565 12.2067 11.3642 12.2215C11.5719 12.2364 11.7673 12.3254 11.9146 12.4724ZM12.5162 19.3755C12.511 19.3806 12.5076 19.3858 12.5024 19.3909C11.8871 20.053 11.1306 20.5684 10.2889 20.8989C9.44725 21.2295 8.54197 21.3667 7.64007 21.3004C6.75503 21.2271 5.90214 20.935 5.15819 20.4504C5.21147 20.4539 5.26475 20.4573 5.32147 20.4573C5.36788 20.4573 5.41772 20.4556 5.46757 20.4522C6.3235 20.3989 7.11241 19.8769 7.81194 18.9015C7.86255 18.8274 7.88213 18.7365 7.8665 18.6482C7.85087 18.5598 7.80126 18.4811 7.72829 18.4288C7.65532 18.3766 7.56477 18.3549 7.47602 18.3685C7.38726 18.382 7.30734 18.4298 7.25335 18.5014C6.681 19.2982 6.06741 19.7241 5.42804 19.767C4.536 19.8254 3.85022 19.1128 3.84163 19.1025C3.82649 19.0858 3.80914 19.0714 3.79007 19.0595C3.2521 18.2112 2.88257 17.047 2.89975 15.438C2.91007 14.5296 2.82929 13.7088 1.7121 12.1153C1.45429 11.7443 1.38382 11.2189 1.80491 10.8823C2.13663 10.6213 2.46663 10.6316 2.81725 10.9167C3.25445 11.2974 3.61899 11.7541 3.89319 12.2646C4.05286 12.563 4.25361 12.8376 4.4896 13.0803C4.49647 13.0889 4.50335 13.0992 4.51022 13.1078C4.53944 13.137 5.19428 13.8582 4.52741 14.904C4.49407 14.9558 4.47537 15.0157 4.47328 15.0773C4.47119 15.1389 4.48579 15.1999 4.51555 15.2539C4.5453 15.3079 4.5891 15.3529 4.64231 15.3841C4.69553 15.4153 4.75618 15.4315 4.81788 15.4311C4.87547 15.4314 4.9322 15.4171 4.98272 15.3895C5.03323 15.3618 5.07588 15.3218 5.10663 15.2731C5.29733 15.0003 5.42469 14.6884 5.4794 14.3601C5.53411 14.0318 5.5148 13.6955 5.42288 13.3757C5.59376 13.3528 5.76081 13.3071 5.9196 13.24C7.27054 12.6854 10.4433 9.39696 11.7444 8.00776C11.8235 7.92245 11.9192 7.8541 12.0256 7.80687C12.1319 7.75964 12.2468 7.73451 12.3632 7.73301C12.4784 7.73105 12.5929 7.75203 12.7 7.79473C12.807 7.83742 12.9045 7.90097 12.9868 7.98168C13.069 8.0624 13.1343 8.15865 13.1789 8.26484C13.2235 8.37103 13.2466 8.48502 13.2466 8.60019C13.2472 8.7144 13.2251 8.8276 13.1814 8.93315C13.1377 9.0387 13.0734 9.1345 12.9923 9.21494L9.49116 12.7128C9.34942 12.8548 9.23713 13.0234 9.16073 13.2088C9.08434 13.3943 9.04534 13.593 9.04598 13.7935C9.04662 13.994 9.08688 14.1925 9.16445 14.3774C9.24203 14.5624 9.35539 14.7302 9.49804 14.8713L9.51522 14.8885C9.75185 15.1258 10.0609 15.2774 10.3935 15.3195C10.3342 15.5674 10.339 15.8262 10.4076 16.0717C10.4761 16.3172 10.6062 16.5411 10.7854 16.7224C10.7905 16.7259 10.794 16.731 10.7991 16.7345C10.8033 16.7395 10.8079 16.7441 10.8129 16.7482C11.0893 17.0254 11.4645 17.1816 11.8562 17.1826C11.834 17.4012 11.8607 17.622 11.9344 17.829C12.0081 18.036 12.127 18.2241 12.2824 18.3795C12.291 18.3881 12.2996 18.3984 12.3082 18.4087C12.5071 18.6069 12.7579 18.745 13.0318 18.8071L12.5162 19.3755ZM14.2366 17.4797L13.6935 18.079C13.5474 18.1483 13.3835 18.1711 13.224 18.1443C13.0645 18.1176 12.917 18.0427 12.8015 17.9296C12.7912 17.9176 12.7808 17.9073 12.7705 17.897C12.6324 17.7593 12.5495 17.5759 12.5375 17.3813C12.5255 17.1868 12.5851 16.9946 12.7052 16.8409L13.5594 15.9892C13.5852 15.9875 13.611 15.9858 13.6351 15.9858C13.7491 15.9853 13.8621 16.0076 13.9674 16.0512C14.0728 16.0948 14.1684 16.159 14.2487 16.2399C14.3298 16.3219 14.3938 16.4191 14.4371 16.5259C14.4804 16.6327 14.5022 16.7471 14.5011 16.8623C14.4999 16.9776 14.476 17.0915 14.4306 17.1974C14.3852 17.3034 14.3193 17.3993 14.2366 17.4797Z" fill="#75CDC5"/>
<path id="Vector_3" d="M14.7351 15.7541C14.5235 15.542 14.2548 15.3958 13.9616 15.3334C14.0166 15.1384 14.0284 14.9338 13.9964 14.7338C13.9643 14.5338 13.8891 14.3431 13.776 14.1751C13.6628 14.007 13.5145 13.8655 13.3412 13.7604C13.1678 13.6553 12.9737 13.5891 12.7723 13.5664C12.8268 13.4119 12.8553 13.2494 12.8565 13.0856C12.8573 12.7275 12.7337 12.3802 12.5067 12.1031C12.2798 11.8259 11.9636 11.636 11.6121 11.5659L13.4787 9.70104C13.6255 9.55534 13.7419 9.38184 13.8208 9.19068C13.8997 8.99952 13.9397 8.79455 13.9384 8.58776C13.9371 8.38098 13.8945 8.17653 13.8131 7.9864C13.7317 7.79626 13.6132 7.62426 13.4645 7.48045C13.3157 7.33665 13.1398 7.22393 12.9469 7.14891C12.754 7.07388 12.5481 7.03805 12.3412 7.04351C12.1343 7.04897 11.9305 7.09562 11.7419 7.18072C11.5533 7.26582 11.3835 7.38766 11.2426 7.53911C9.20069 9.71821 6.66038 12.1944 5.65835 12.6048C5.07397 12.8452 4.93132 12.658 4.481 11.911C4.167 11.3312 3.74999 10.8134 3.25038 10.3828C2.65741 9.90023 1.95788 9.88649 1.37694 10.345C0.722097 10.8687 0.627566 11.7582 1.14835 12.5069C2.22772 14.0472 2.21913 14.7513 2.21225 15.4313C2.16069 20.3441 5.57241 21.8638 7.59882 21.9857C7.7535 21.996 7.90304 21.9995 8.05085 21.9995C8.98725 22.0095 9.91518 21.8215 10.7737 21.4477C11.6321 21.0739 12.4017 20.5228 13.0318 19.8307L14.1558 18.5909C14.1626 18.5844 14.1689 18.5776 14.1748 18.5703L14.7351 17.9538C15.0265 17.6618 15.1901 17.2663 15.1901 16.8539C15.1901 16.4416 15.0265 16.0461 14.7351 15.7541ZM13.116 14.4508C13.2428 14.5768 13.3174 14.7459 13.3251 14.9244C13.3327 15.1029 13.2728 15.2777 13.1573 15.4141C13.1427 15.4277 13.1295 15.4427 13.1177 15.4587C13.1168 15.4597 13.1162 15.4609 13.116 15.4622L12.1277 16.4478C11.9878 16.4983 11.8365 16.5083 11.6912 16.4768C11.5459 16.4452 11.4124 16.3732 11.3062 16.2692C11.2924 16.2555 11.2787 16.2418 11.2649 16.2297C11.1291 16.0896 11.0493 15.9048 11.0405 15.71C11.0316 15.5151 11.0943 15.3238 11.2168 15.172C11.3526 15.0638 11.9301 14.6104 12.236 14.3477C12.3731 14.264 12.5343 14.2287 12.6938 14.2473C12.8534 14.266 13.002 14.3376 13.116 14.4508ZM11.9146 12.4726C11.9955 12.5529 12.0596 12.6484 12.1033 12.7536C12.1469 12.8588 12.1693 12.9717 12.169 13.0856C12.1469 13.3647 12.0176 13.6244 11.808 13.8102C11.5983 13.9923 11.1463 14.3529 10.8129 14.6156C10.6706 14.656 10.52 14.6575 10.3769 14.6197C10.2339 14.5819 10.1036 14.5064 9.99991 14.401L9.97757 14.3786C9.82129 14.222 9.73353 14.0099 9.73353 13.7888C9.73353 13.5676 9.82129 13.3555 9.97757 13.1989L10.7837 12.3919C10.9504 12.2673 11.1565 12.2069 11.3642 12.2217C11.5719 12.2365 11.7673 12.3256 11.9146 12.4726ZM12.5162 19.3756C12.511 19.3808 12.5076 19.3859 12.5024 19.3911C11.8871 20.0532 11.1306 20.5686 10.2889 20.8991C9.44725 21.2296 8.54197 21.3668 7.64007 21.3006C6.75503 21.2272 5.90214 20.9351 5.15819 20.4506C5.21147 20.454 5.26475 20.4574 5.32147 20.4574C5.36788 20.4574 5.41772 20.4557 5.46757 20.4523C6.3235 20.3991 7.11241 19.877 7.81194 18.9017C7.86255 18.8276 7.88213 18.7366 7.8665 18.6483C7.85087 18.56 7.80126 18.4813 7.72829 18.429C7.65532 18.3767 7.56477 18.355 7.47602 18.3686C7.38726 18.3822 7.30734 18.4299 7.25335 18.5016C6.681 19.2983 6.06741 19.7242 5.42804 19.7671C4.536 19.8255 3.85022 19.1129 3.84163 19.1026C3.82649 19.086 3.80914 19.0715 3.79007 19.0597C3.2521 18.2114 2.88257 17.0471 2.89975 15.4381C2.91007 14.5297 2.82929 13.7089 1.7121 12.1154C1.45429 11.7445 1.38382 11.219 1.80491 10.8825C2.13663 10.6214 2.46663 10.6317 2.81725 10.9168C3.25445 11.2975 3.61899 11.7542 3.89319 12.2648C4.05286 12.5632 4.25361 12.8377 4.4896 13.0804C4.49647 13.089 4.50335 13.0993 4.51022 13.1079C4.53944 13.1371 5.19428 13.8583 4.52741 14.9041C4.49407 14.956 4.47537 15.0158 4.47328 15.0775C4.47119 15.1391 4.48579 15.2001 4.51555 15.2541C4.5453 15.3081 4.5891 15.353 4.64231 15.3842C4.69553 15.4154 4.75618 15.4317 4.81788 15.4313C4.87547 15.4316 4.9322 15.4172 4.98272 15.3896C5.03323 15.362 5.07588 15.3219 5.10663 15.2733C5.29733 15.0004 5.42469 14.6885 5.4794 14.3602C5.53411 14.032 5.5148 13.6957 5.42288 13.3758C5.59376 13.3529 5.76081 13.3073 5.9196 13.2401C7.27054 12.6855 10.4433 9.3971 11.7444 8.0079C11.8235 7.92259 11.9192 7.85424 12.0256 7.80701C12.1319 7.75977 12.2468 7.73465 12.3632 7.73315C12.4784 7.73119 12.5929 7.75217 12.7 7.79486C12.807 7.83755 12.9045 7.90111 12.9868 7.98182C13.069 8.06253 13.1343 8.15879 13.1789 8.26497C13.2235 8.37116 13.2466 8.48516 13.2466 8.60033C13.2472 8.71454 13.2251 8.82773 13.1814 8.93329C13.1377 9.03884 13.0734 9.13463 12.9923 9.21508L9.49116 12.713C9.34942 12.855 9.23713 13.0235 9.16073 13.209C9.08434 13.3944 9.04534 13.5931 9.04598 13.7936C9.04662 13.9942 9.08688 14.1926 9.16445 14.3776C9.24203 14.5625 9.35539 14.7304 9.49804 14.8715L9.51522 14.8886C9.75185 15.1259 10.0609 15.2776 10.3935 15.3196C10.3342 15.5675 10.339 15.8264 10.4076 16.0718C10.4761 16.3173 10.6062 16.5413 10.7854 16.7226C10.7905 16.726 10.794 16.7312 10.7991 16.7346C10.8033 16.7396 10.8079 16.7442 10.8129 16.7483C11.0893 17.0255 11.4645 17.1818 11.8562 17.1828C11.834 17.4014 11.8607 17.6222 11.9344 17.8292C12.0081 18.0362 12.127 18.2242 12.2824 18.3797C12.291 18.3882 12.2996 18.3985 12.3082 18.4088C12.5071 18.607 12.7579 18.7451 13.0318 18.8072L12.5162 19.3756ZM14.2366 17.4799L13.6935 18.0792C13.5474 18.1484 13.3835 18.1712 13.224 18.1445C13.0645 18.1178 12.917 18.0428 12.8015 17.9298C12.7912 17.9177 12.7808 17.9074 12.7705 17.8971C12.6324 17.7594 12.5495 17.576 12.5375 17.3815C12.5255 17.1869 12.5851 16.9947 12.7052 16.8411L13.5594 15.9893C13.5852 15.9876 13.611 15.9859 13.6351 15.9859C13.7491 15.9855 13.8621 16.0077 13.9674 16.0513C14.0728 16.095 14.1684 16.1591 14.2487 16.2401C14.3298 16.322 14.3938 16.4192 14.4371 16.526C14.4804 16.6329 14.5022 16.7472 14.5011 16.8625C14.4999 16.9777 14.476 17.0916 14.4306 17.1976C14.3852 17.3035 14.3193 17.3995 14.2366 17.4799Z" fill="#75CDC5"/>
<path id="Vector_4" d="M14.2365 17.48L13.6934 18.0793C13.5472 18.1485 13.3834 18.1713 13.2239 18.1446C13.0644 18.1179 12.9169 18.0429 12.8013 17.9299C12.791 17.9178 12.7807 17.9075 12.7704 17.8972C12.6323 17.7596 12.5494 17.5761 12.5374 17.3816C12.5253 17.187 12.585 16.9948 12.7051 16.8412L13.5593 15.9895C13.5851 15.9877 13.6109 15.986 13.6349 15.986C13.749 15.9856 13.862 16.0078 13.9673 16.0515C14.0727 16.0951 14.1683 16.1592 14.2485 16.2402C14.3296 16.3221 14.3937 16.4193 14.437 16.5262C14.4803 16.633 14.502 16.7473 14.5009 16.8626C14.4998 16.9778 14.4759 17.0917 14.4305 17.1977C14.3851 17.3036 14.3192 17.3996 14.2365 17.48ZM13.3256 14.9557C13.3259 15.1237 13.2661 15.2863 13.1571 15.4142C13.1426 15.4278 13.1293 15.4428 13.1176 15.4588C13.1167 15.4598 13.1161 15.461 13.1159 15.4623L12.1276 16.4479C11.9877 16.4984 11.8364 16.5085 11.6911 16.4769C11.5457 16.4453 11.4123 16.3733 11.306 16.2694C11.2923 16.2556 11.2785 16.2419 11.2648 16.2299C11.129 16.0897 11.0492 15.9049 11.0403 15.7101C11.0315 15.5153 11.0942 15.3239 11.2167 15.1721C11.3524 15.0639 11.9299 14.6106 12.2359 14.3478C12.3729 14.2641 12.5341 14.2288 12.6937 14.2474C12.8532 14.2661 13.0019 14.3378 13.1159 14.4509C13.1827 14.5168 13.2357 14.5955 13.2717 14.6822C13.3077 14.7688 13.326 14.8618 13.3256 14.9557ZM12.1688 13.0857C12.1468 13.3648 12.0174 13.6245 11.8079 13.8104C11.5982 13.9924 11.1462 14.353 10.8127 14.6157C10.6704 14.6562 10.5198 14.6576 10.3768 14.6198C10.2337 14.582 10.1035 14.5065 9.99978 14.4011L9.97744 14.3787C9.82116 14.2221 9.7334 14.01 9.7334 13.7889C9.7334 13.5677 9.82116 13.3556 9.97744 13.199L10.7835 12.392C10.9124 12.2958 11.0654 12.2373 11.2256 12.2231C11.3858 12.2089 11.5468 12.2395 11.6906 12.3115C11.8343 12.3835 11.9552 12.4941 12.0397 12.6308C12.1242 12.7675 12.1689 12.925 12.1688 13.0857Z" fill="white"/>
<path id="Vector_5" d="M12.3078 18.4092C12.5066 18.6074 12.7574 18.7455 13.0314 18.8076L12.5157 19.376C12.5106 19.3811 12.5071 19.3863 12.502 19.3914C11.8866 20.0535 11.1301 20.5689 10.2885 20.8995C9.44682 21.23 8.54155 21.3672 7.63964 21.301C6.7546 21.2276 5.90172 20.9355 5.15776 20.4509C5.21105 20.4544 5.26433 20.4578 5.32105 20.4578C5.36745 20.4578 5.4173 20.4561 5.46714 20.4527C6.32308 20.3994 7.11198 19.8774 7.81151 18.9021C7.86212 18.828 7.88171 18.737 7.86607 18.6487C7.85044 18.5603 7.80084 18.4816 7.72786 18.4294C7.65489 18.3771 7.56434 18.3554 7.47559 18.369C7.38683 18.3826 7.30691 18.4303 7.25292 18.502C6.68058 19.2987 6.06698 19.7246 5.42761 19.7675C4.53558 19.8259 3.8498 19.1133 3.8412 19.103C3.82607 19.0864 3.80872 19.0719 3.78964 19.06C3.25167 18.2117 2.88214 17.0475 2.89933 15.4385C2.90964 14.5301 2.82886 13.7093 1.71167 12.1158C1.45386 11.7449 1.38339 11.2194 1.80448 10.8828C2.1362 10.6218 2.4662 10.6321 2.81683 10.9172C3.25403 11.2979 3.61856 11.7546 3.89276 12.2652C4.05243 12.5636 4.25319 12.8381 4.48917 13.0808C4.49605 13.0894 4.50292 13.0997 4.5098 13.1083C4.53901 13.1375 5.19386 13.8587 4.52698 14.9045C4.49364 14.9563 4.47494 15.0162 4.47285 15.0778C4.47076 15.1394 4.48537 15.2005 4.51512 15.2545C4.54487 15.3084 4.58867 15.3534 4.64188 15.3846C4.6951 15.4158 4.75576 15.432 4.81745 15.4316C4.87505 15.432 4.93177 15.4176 4.98229 15.39C5.03281 15.3623 5.07545 15.3223 5.1062 15.2737C5.29691 15.0008 5.42426 14.6889 5.47897 14.3606C5.53368 14.0324 5.51437 13.696 5.42245 13.3762C5.59333 13.3533 5.76039 13.3076 5.91917 13.2405C7.27011 12.6859 10.4429 9.39747 11.744 8.00827C11.8231 7.92296 11.9188 7.85461 12.0251 7.80738C12.1315 7.76015 12.2464 7.73502 12.3628 7.73352C12.478 7.73156 12.5925 7.75254 12.6996 7.79524C12.8066 7.83793 12.9041 7.90148 12.9863 7.98219C13.0686 8.0629 13.1339 8.15916 13.1785 8.26535C13.2231 8.37154 13.2461 8.48553 13.2462 8.6007C13.2468 8.71491 13.2246 8.82811 13.181 8.93366C13.1373 9.03921 13.073 9.13501 12.9918 9.21545L9.49073 12.7133C9.34899 12.8553 9.2367 13.0239 9.16031 13.2093C9.08391 13.3948 9.04491 13.5935 9.04555 13.794C9.04619 13.9946 9.08645 14.193 9.16403 14.378C9.2416 14.5629 9.35496 14.7307 9.49761 14.8718L9.5148 14.889C9.75142 15.1263 10.0605 15.278 10.3931 15.32C10.3337 15.5679 10.3386 15.8267 10.4071 16.0722C10.4757 16.3177 10.6057 16.5416 10.785 16.723C10.7901 16.7264 10.7935 16.7315 10.7987 16.735C10.8028 16.74 10.8075 16.7446 10.8125 16.7487C11.0889 17.0259 11.4641 17.1821 11.8557 17.1832C11.8335 17.4017 11.8603 17.6225 11.934 17.8295C12.0077 18.0365 12.1266 18.2246 12.282 18.38C12.2906 18.3886 12.2992 18.3989 12.3078 18.4092Z" fill="#75CDC5"/>
<path id="Vector_6" d="M7.15611 7.00832L6.39728 7.11839L6.94642 7.65312L6.81682 8.40816L7.49539 8.05168L8.17395 8.40816L8.04436 7.65312L8.5935 7.11839L7.83467 7.00832L7.49539 6.32127L7.15611 7.00832ZM8.26212 2.87747L8.49484 3.40052L8.76881 2.89773L9.33857 2.83815L8.94464 2.42259L9.06392 1.86279L8.54657 2.10869L8.05054 1.82227L8.12479 2.38979L7.69889 2.77255L8.26212 2.87747ZM3.68836 2.64857L3.27328 2.25414L3.21243 2.82321L2.7085 3.09573L3.23151 3.32943L3.33532 3.89232L3.71929 3.46767L4.28734 3.54305L4.00168 3.04696L4.24901 2.5306L3.68836 2.64857Z" fill="#75CDC5"/>
</g>
</svg>
