<svg width="22" height="32" viewBox="0 0 22 32" fill="none" xmlns="http://www.w3.org/2000/svg">
<g id="Group 1116606764">
<path id="Vector" opacity="0.3" d="M1.10709 7.30259C1.01335 7.39627 0.960693 7.5233 0.960693 7.65576C0.960693 7.78823 1.01335 7.91526 1.10709 8.00894L5.52384 12.4217C5.61814 12.5126 5.74444 12.563 5.87554 12.5619C6.00664 12.5607 6.13204 12.5082 6.22475 12.4156C6.31745 12.3229 6.37003 12.1977 6.37117 12.0667C6.37231 11.9357 6.32192 11.8095 6.23084 11.7153L1.81409 7.30259C1.72032 7.20894 1.59317 7.15633 1.46059 7.15633C1.328 7.15633 1.20085 7.20894 1.10709 7.30259ZM15.3773 9.73711V3.57625C15.3773 3.44376 15.3247 3.3167 15.2309 3.22302C15.1371 3.12934 15.0099 3.07671 14.8773 3.07671C14.7447 3.07671 14.6176 3.12934 14.5238 3.22302C14.43 3.3167 14.3773 3.44376 14.3773 3.57625V9.73711C14.3773 9.8696 14.43 9.99666 14.5238 10.0903C14.6176 10.184 14.7447 10.2367 14.8773 10.2367C15.0099 10.2367 15.1371 10.184 15.2309 10.0903C15.3247 9.99666 15.3773 9.8696 15.3773 9.73711ZM7.62584 0.88671C7.61084 0.822102 7.58312 0.761125 7.54429 0.707333C7.50546 0.653542 7.4563 0.608015 7.39967 0.573407C7.34304 0.538798 7.28009 0.515802 7.21447 0.50576C7.14885 0.495718 7.08189 0.49883 7.01749 0.514915C6.95309 0.531 6.89254 0.559737 6.83937 0.599448C6.78621 0.639159 6.74149 0.68905 6.70782 0.746211C6.67416 0.803371 6.65222 0.866657 6.6433 0.932376C6.63437 0.998095 6.63864 1.06493 6.65584 1.12899L8.15584 7.1235C8.17083 7.18811 8.19855 7.24909 8.23738 7.30288C8.27621 7.35667 8.32538 7.4022 8.382 7.43681C8.43863 7.47141 8.50159 7.49441 8.5672 7.50445C8.63282 7.51449 8.69978 7.51138 8.76418 7.4953C8.82858 7.47921 8.88913 7.45048 8.9423 7.41076C8.99547 7.37105 9.04019 7.32116 9.07385 7.264C9.10752 7.20684 9.12945 7.14356 9.13838 7.07784C9.1473 7.01212 9.14304 6.94528 9.12584 6.88122L7.62584 0.88671ZM9.77234 10.6947L8.66859 10.8548L9.46734 11.6326L9.27884 12.7309L10.2658 12.2123L11.2528 12.7309L11.0643 11.6326L11.8631 10.8548L10.7593 10.6947L10.2658 9.6954L9.77234 10.6947ZM11.3811 4.68623L11.7196 5.44704L12.1181 4.71571L12.9468 4.62903L12.3738 4.02459L12.5473 3.21033L11.7948 3.56801L11.0733 3.15139L11.1813 3.97688L10.5618 4.53362L11.3811 4.68623ZM4.72834 4.35329L4.12459 3.77956L4.03609 4.6073L3.30309 5.00369L4.06384 5.34363L4.21484 6.16238L4.77334 5.5447L5.59959 5.65435L5.18409 4.93276L5.54384 4.18169L4.72834 4.35329Z" fill="white"/>
<path id="Vector_2" d="M1.10747 6.80259C1.01373 6.89627 0.961073 7.0233 0.961073 7.15577C0.961073 7.28823 1.01373 7.41526 1.10747 7.50894L5.52422 11.9217C5.61852 12.0126 5.74482 12.063 5.87592 12.0619C6.00702 12.0607 6.13242 12.0082 6.22513 11.9156C6.31783 11.823 6.37041 11.6977 6.37155 11.5667C6.37269 11.4357 6.3223 11.3095 6.23122 11.2153L1.81447 6.80259C1.7207 6.70894 1.59355 6.65633 1.46097 6.65633C1.32838 6.65633 1.20123 6.70894 1.10747 6.80259ZM15.3777 9.23711V3.07625C15.3777 2.94376 15.325 2.8167 15.2313 2.72302C15.1375 2.62934 15.0103 2.57671 14.8777 2.57671C14.7451 2.57671 14.6179 2.62934 14.5242 2.72302C14.4304 2.8167 14.3777 2.94376 14.3777 3.07625V9.23711C14.3777 9.3696 14.4304 9.49666 14.5242 9.59034C14.6179 9.68402 14.7451 9.73665 14.8777 9.73665C15.0103 9.73665 15.1375 9.68402 15.2313 9.59034C15.325 9.49666 15.3777 9.3696 15.3777 9.23711ZM7.62622 0.38671C7.61122 0.322102 7.5835 0.261125 7.54467 0.207334C7.50584 0.153542 7.45668 0.108015 7.40005 0.0734067C7.34342 0.0387985 7.28047 0.0158025 7.21485 0.00576004C7.14923 -0.0042824 7.08227 -0.00117019 7.01787 0.0149151C6.95347 0.0310004 6.89292 0.0597368 6.83975 0.099448C6.78659 0.139159 6.74187 0.18905 6.7082 0.246211C6.67454 0.303371 6.6526 0.366657 6.64368 0.432376C6.63475 0.498095 6.63902 0.564932 6.65622 0.628988L8.15622 6.6235C8.17121 6.68811 8.19893 6.74909 8.23776 6.80288C8.27659 6.85667 8.32576 6.9022 8.38238 6.93681C8.43901 6.97141 8.50197 6.99441 8.56758 7.00445C8.6332 7.01449 8.70016 7.01138 8.76456 6.9953C8.82896 6.97921 8.88951 6.95048 8.94268 6.91076C8.99585 6.87105 9.04057 6.82116 9.07423 6.764C9.1079 6.70684 9.12983 6.64356 9.13876 6.57784C9.14768 6.51212 9.14342 6.44528 9.12622 6.38122L7.62622 0.38671ZM20.7962 22.9148C20.4884 22.6063 20.0976 22.3938 19.6712 22.3029C19.7512 22.0193 19.7684 21.7217 19.7218 21.4308C19.6751 21.1399 19.5658 20.8626 19.4012 20.6181C19.2366 20.3736 19.0208 20.1678 18.7687 20.0149C18.5166 19.862 18.2343 19.7658 17.9412 19.7328C18.0206 19.508 18.062 19.2717 18.0637 19.0334C18.0649 18.5125 17.8851 18.0074 17.555 17.6043C17.2249 17.2011 16.765 16.925 16.2537 16.8229L18.9687 14.1104C19.1824 13.8985 19.3516 13.6461 19.4664 13.3681C19.5812 13.09 19.6394 12.7919 19.6374 12.4911C19.6355 12.1903 19.5736 11.8929 19.4552 11.6164C19.3368 11.3398 19.1644 11.0896 18.9481 10.8805C18.7317 10.6713 18.4758 10.5073 18.1952 10.3982C17.9147 10.2891 17.6152 10.237 17.3142 10.2449C17.0132 10.2529 16.7169 10.3207 16.4425 10.4445C16.1681 10.5683 15.9212 10.7455 15.7162 10.9658C12.7462 14.1354 9.05122 17.7371 7.59372 18.334C6.74372 18.6837 6.53622 18.4115 5.88122 17.325C5.42448 16.4816 4.81793 15.7284 4.09122 15.102C3.22872 14.4001 2.21122 14.3802 1.36622 15.047C0.413716 15.8088 0.276216 17.1027 1.03372 18.1917C2.60372 20.4321 2.59122 21.4562 2.58122 22.4453C2.50622 29.5912 7.46872 31.8017 10.4162 31.979C10.6412 31.994 10.8587 31.999 11.0737 31.999C12.4358 32.0137 13.7855 31.7402 15.0342 31.1964C16.2829 30.6527 17.4022 29.8512 18.3187 28.8444L19.9537 27.0411C19.9636 27.0317 19.9727 27.0217 19.9812 27.0111L20.7962 26.1144C21.2201 25.6897 21.4581 25.1144 21.4581 24.5146C21.4581 23.9149 21.2201 23.3396 20.7962 22.9148ZM18.4412 21.0191C18.6256 21.2024 18.7342 21.4483 18.7453 21.708C18.7564 21.9676 18.6693 22.2219 18.5012 22.4203C18.4801 22.4401 18.4608 22.4618 18.4437 22.4852C18.4424 22.4866 18.4415 22.4883 18.4412 22.4902L17.0037 23.9239C16.8002 23.9974 16.5802 24.0119 16.3688 23.966C16.1574 23.92 15.9633 23.8154 15.8087 23.6642C15.7887 23.6442 15.7687 23.6242 15.7487 23.6067C15.5512 23.4029 15.4351 23.134 15.4222 22.8507C15.4093 22.5673 15.5006 22.289 15.6787 22.0681C15.8762 21.9108 16.7162 21.2514 17.1612 20.8692C17.3606 20.7474 17.5951 20.696 17.8271 20.7232C18.0592 20.7504 18.2754 20.8546 18.4412 21.0191ZM16.6937 18.1417C16.8113 18.2585 16.9046 18.3975 16.9681 18.5505C17.0316 18.7036 17.0641 18.8677 17.0637 19.0334C17.0316 19.4393 16.8435 19.8171 16.5387 20.0874C16.2337 20.3522 15.5762 20.8767 15.0912 21.2589C14.8842 21.3177 14.6652 21.3197 14.4571 21.2648C14.249 21.2099 14.0596 21.1 13.9087 20.9466L13.8762 20.9142C13.6489 20.6864 13.5213 20.3779 13.5213 20.0562C13.5213 19.7346 13.6489 19.426 13.8762 19.1982L15.0487 18.0243C15.2913 17.8431 15.591 17.7552 15.8931 17.7768C16.1952 17.7983 16.4794 17.9279 16.6937 18.1417ZM17.5687 28.1825C17.5612 28.19 17.5562 28.1975 17.5487 28.205C16.6537 29.1681 15.5533 29.9177 14.3291 30.3985C13.1048 30.8792 11.7881 31.0788 10.4762 30.9825C9.18889 30.8758 7.94833 30.4509 6.86622 29.7461C6.94372 29.7511 7.02122 29.7561 7.10372 29.7561C7.17122 29.7561 7.24372 29.7536 7.31622 29.7486C8.56122 29.6712 9.70872 28.9119 10.7262 27.4932C10.7998 27.3854 10.8283 27.2531 10.8056 27.1246C10.7828 26.9961 10.7107 26.8816 10.6045 26.8056C10.4984 26.7296 10.3667 26.6981 10.2376 26.7178C10.1085 26.7375 9.99225 26.8069 9.91372 26.9112C9.08122 28.0701 8.18872 28.6896 7.25872 28.752C5.96122 28.8369 4.96372 27.8004 4.95122 27.7854C4.9292 27.7612 4.90397 27.7402 4.87622 27.7229C4.09372 26.4891 3.55622 24.7956 3.58122 22.4553C3.59622 21.134 3.47872 19.9401 1.85372 17.6222C1.47872 17.0827 1.37622 16.3184 1.98872 15.8288C2.47122 15.4492 2.95122 15.4642 3.46122 15.8788C4.09714 16.4325 4.62738 17.0968 5.02622 17.8395C5.25846 18.2735 5.55047 18.6729 5.89372 19.0259C5.90372 19.0384 5.91372 19.0534 5.92372 19.0659C5.96622 19.1083 6.91872 20.1574 5.94872 21.6785C5.90022 21.7539 5.87302 21.841 5.86998 21.9306C5.86694 22.0202 5.88818 22.109 5.93146 22.1876C5.97474 22.2661 6.03844 22.3315 6.11584 22.3769C6.19325 22.4222 6.28148 22.4459 6.37122 22.4453C6.45499 22.4457 6.5375 22.4249 6.61098 22.3847C6.68446 22.3445 6.74649 22.2863 6.79122 22.2155C7.0686 21.8186 7.25384 21.3649 7.33342 20.8874C7.413 20.41 7.38492 19.9208 7.25122 19.4555C7.49977 19.4222 7.74276 19.3558 7.97372 19.2582C9.93872 18.4514 14.5537 13.6683 16.4462 11.6477C16.5613 11.5236 16.7004 11.4241 16.8551 11.3554C17.0098 11.2867 17.1769 11.2502 17.3462 11.248C17.5139 11.2452 17.6804 11.2757 17.8361 11.3378C17.9918 11.3999 18.1336 11.4923 18.2532 11.6097C18.3728 11.7271 18.4678 11.8671 18.5327 12.0216C18.5976 12.176 18.6311 12.3419 18.6312 12.5094C18.6321 12.6755 18.5998 12.8401 18.5363 12.9937C18.4728 13.1472 18.3793 13.2865 18.2612 13.4035L13.1687 18.4914C12.9625 18.6979 12.7992 18.9431 12.6881 19.2128C12.577 19.4826 12.5203 19.7716 12.5212 20.0633C12.5221 20.355 12.5807 20.6436 12.6935 20.9126C12.8063 21.1817 12.9712 21.4258 13.1787 21.631L13.2037 21.656C13.5479 22.0011 13.9974 22.2217 14.4812 22.2829C14.3949 22.6434 14.4019 23.02 14.5017 23.377C14.6014 23.734 14.7905 24.0598 15.0512 24.3236C15.0587 24.3286 15.0637 24.336 15.0712 24.341C15.0772 24.3483 15.0839 24.355 15.0912 24.361C15.4933 24.7642 16.0391 24.9915 16.6087 24.9929C16.5764 25.3109 16.6153 25.632 16.7225 25.9331C16.8298 26.2342 17.0027 26.5077 17.2287 26.7339C17.2412 26.7463 17.2537 26.7613 17.2662 26.7763C17.5555 27.0646 17.9203 27.2654 18.3187 27.3558L17.5687 28.1825ZM20.0712 25.425L19.2812 26.2967C19.0687 26.3975 18.8303 26.4306 18.5983 26.3918C18.3663 26.3529 18.1518 26.2439 17.9837 26.0794C17.9687 26.062 17.9537 26.047 17.9387 26.032C17.7378 25.8317 17.6173 25.5649 17.5998 25.2819C17.5823 24.9989 17.669 24.7193 17.8437 24.4959L19.0862 23.257C19.1237 23.2545 19.1612 23.252 19.1962 23.252C19.3621 23.2514 19.5264 23.2837 19.6797 23.3472C19.8329 23.4107 19.972 23.504 20.0887 23.6217C20.2067 23.7409 20.2998 23.8823 20.3629 24.0377C20.4259 24.1931 20.4575 24.3594 20.4558 24.527C20.4542 24.6947 20.4194 24.8603 20.3534 25.0144C20.2874 25.1686 20.1915 25.3081 20.0712 25.425Z" fill="white"/>
<g id="Vector_3">
<mask id="path-3-inside-1_4588_34156" fill="white">
<path d="M20.7962 22.9149C20.4884 22.6064 20.0976 22.3938 19.6712 22.3029C19.7512 22.0193 19.7684 21.7217 19.7218 21.4308C19.6751 21.1399 19.5658 20.8626 19.4012 20.6181C19.2366 20.3736 19.0208 20.1678 18.7687 20.0149C18.5166 19.8621 18.2343 19.7658 17.9412 19.7328C18.0206 19.5081 18.062 19.2717 18.0637 19.0334C18.0649 18.5126 17.8851 18.0074 17.555 17.6043C17.2249 17.2011 16.765 16.925 16.2537 16.8229L18.9687 14.1104C19.1824 13.8985 19.3516 13.6461 19.4664 13.3681C19.5812 13.09 19.6394 12.7919 19.6374 12.4911C19.6355 12.1903 19.5736 11.893 19.4552 11.6164C19.3368 11.3398 19.1644 11.0897 18.9481 10.8805C18.7317 10.6713 18.4758 10.5074 18.1952 10.3982C17.9147 10.2891 17.6152 10.237 17.3142 10.2449C17.0132 10.2529 16.7169 10.3207 16.4425 10.4445C16.1681 10.5683 15.9212 10.7455 15.7162 10.9658C12.7462 14.1354 9.05122 17.7371 7.59372 18.3341C6.74372 18.6837 6.53622 18.4115 5.88122 17.325C5.42448 16.4816 4.81793 15.7284 4.09122 15.102C3.22872 14.4002 2.21122 14.3802 1.36622 15.0471C0.413716 15.8089 0.276216 17.1027 1.03372 18.1917C2.60372 20.4321 2.59122 21.4562 2.58122 22.4453C2.50622 29.5913 7.46872 31.8017 10.4162 31.9791C10.6412 31.9941 10.8587 31.9991 11.0737 31.9991C12.4358 32.0137 13.7855 31.7402 15.0342 31.1965C16.2829 30.6528 17.4022 29.8512 18.3187 28.8444L19.9537 27.0411C19.9636 27.0317 19.9727 27.0217 19.9812 27.0111L20.7962 26.1144C21.2201 25.6897 21.4581 25.1144 21.4581 24.5146C21.4581 23.9149 21.2201 23.3396 20.7962 22.9149ZM18.4412 21.0191C18.6256 21.2024 18.7342 21.4483 18.7453 21.708C18.7564 21.9676 18.6693 22.222 18.5012 22.4203C18.4801 22.4401 18.4608 22.4619 18.4437 22.4853C18.4424 22.4866 18.4415 22.4884 18.4412 22.4903L17.0037 23.9239C16.8002 23.9974 16.5802 24.012 16.3688 23.966C16.1574 23.9201 15.9633 23.8154 15.8087 23.6642C15.7887 23.6442 15.7687 23.6242 15.7487 23.6067C15.5512 23.4029 15.4351 23.134 15.4222 22.8507C15.4093 22.5673 15.5006 22.289 15.6787 22.0681C15.8762 21.9108 16.7162 21.2514 17.1612 20.8692C17.3606 20.7475 17.5951 20.6961 17.8271 20.7232C18.0592 20.7504 18.2754 20.8546 18.4412 21.0191ZM16.6937 18.1417C16.8113 18.2585 16.9046 18.3975 16.9681 18.5505C17.0316 18.7036 17.0641 18.8677 17.0637 19.0334C17.0316 19.4393 16.8435 19.8171 16.5387 20.0875C16.2337 20.3522 15.5762 20.8767 15.0912 21.2589C14.8842 21.3177 14.6652 21.3198 14.4571 21.2648C14.249 21.2099 14.0596 21.1 13.9087 20.9467L13.8762 20.9142C13.6489 20.6864 13.5213 20.3779 13.5213 20.0562C13.5213 19.7346 13.6489 19.426 13.8762 19.1983L15.0487 18.0243C15.2913 17.8431 15.591 17.7552 15.8931 17.7768C16.1952 17.7984 16.4794 17.9279 16.6937 18.1417ZM17.5687 28.1825C17.5612 28.19 17.5562 28.1975 17.5487 28.205C16.6537 29.1681 15.5533 29.9177 14.3291 30.3985C13.1048 30.8793 11.7881 31.0788 10.4762 30.9825C9.18889 30.8758 7.94833 30.4509 6.86622 29.7461C6.94372 29.7511 7.02122 29.7561 7.10372 29.7561C7.17122 29.7561 7.24372 29.7536 7.31622 29.7486C8.56122 29.6712 9.70872 28.9119 10.7262 27.4932C10.7998 27.3854 10.8283 27.2531 10.8056 27.1246C10.7828 26.9961 10.7107 26.8816 10.6045 26.8056C10.4984 26.7296 10.3667 26.6981 10.2376 26.7178C10.1085 26.7375 9.99225 26.807 9.91372 26.9112C9.08122 28.0701 8.18872 28.6896 7.25872 28.752C5.96122 28.8369 4.96372 27.8004 4.95122 27.7854C4.9292 27.7613 4.90397 27.7402 4.87622 27.723C4.09372 26.4891 3.55622 24.7956 3.58122 22.4553C3.59622 21.134 3.47872 19.9401 1.85372 17.6222C1.47872 17.0827 1.37622 16.3184 1.98872 15.8288C2.47122 15.4492 2.95122 15.4642 3.46122 15.8788C4.09714 16.4326 4.62738 17.0969 5.02622 17.8395C5.25846 18.2735 5.55047 18.6729 5.89372 19.0259C5.90372 19.0384 5.91372 19.0534 5.92372 19.0659C5.96622 19.1083 6.91872 20.1574 5.94872 21.6785C5.90022 21.7539 5.87302 21.8411 5.86998 21.9307C5.86694 22.0203 5.88818 22.109 5.93146 22.1876C5.97474 22.2661 6.03844 22.3315 6.11584 22.3769C6.19325 22.4222 6.28148 22.4459 6.37122 22.4453C6.45499 22.4458 6.5375 22.4249 6.61098 22.3847C6.68446 22.3445 6.74649 22.2863 6.79122 22.2155C7.0686 21.8186 7.25384 21.3649 7.33342 20.8875C7.413 20.41 7.38492 19.9208 7.25122 19.4555C7.49977 19.4222 7.74276 19.3558 7.97372 19.2582C9.93872 18.4514 14.5537 13.6683 16.4462 11.6477C16.5613 11.5236 16.7004 11.4242 16.8551 11.3555C17.0098 11.2868 17.1769 11.2502 17.3462 11.248C17.5139 11.2452 17.6804 11.2757 17.8361 11.3378C17.9918 11.3999 18.1336 11.4923 18.2532 11.6097C18.3728 11.7271 18.4678 11.8671 18.5327 12.0216C18.5976 12.1761 18.6311 12.3419 18.6312 12.5094C18.6321 12.6755 18.5998 12.8402 18.5363 12.9937C18.4728 13.1472 18.3793 13.2866 18.2612 13.4036L13.1687 18.4914C12.9625 18.6979 12.7992 18.9431 12.6881 19.2129C12.577 19.4826 12.5203 19.7716 12.5212 20.0633C12.5221 20.355 12.5807 20.6436 12.6935 20.9127C12.8063 21.1817 12.9712 21.4258 13.1787 21.631L13.2037 21.656C13.5479 22.0011 13.9974 22.2218 14.4812 22.2829C14.3949 22.6434 14.4019 23.02 14.5017 23.377C14.6014 23.7341 14.7905 24.0598 15.0512 24.3236C15.0587 24.3286 15.0637 24.3361 15.0712 24.3411C15.0772 24.3483 15.0839 24.355 15.0912 24.361C15.4933 24.7642 16.0391 24.9915 16.6087 24.993C16.5764 25.3109 16.6153 25.6321 16.7225 25.9332C16.8298 26.2342 17.0027 26.5078 17.2287 26.7339C17.2412 26.7464 17.2537 26.7613 17.2662 26.7763C17.5555 27.0646 17.9203 27.2655 18.3187 27.3558L17.5687 28.1825ZM20.0712 25.4251L19.2812 26.2968C19.0687 26.3975 18.8303 26.4307 18.5983 26.3918C18.3663 26.3529 18.1518 26.2439 17.9837 26.0795C17.9687 26.062 17.9537 26.047 17.9387 26.032C17.7378 25.8317 17.6173 25.5649 17.5998 25.282C17.5823 24.999 17.669 24.7194 17.8437 24.4959L19.0862 23.2571C19.1237 23.2546 19.1612 23.2521 19.1962 23.2521C19.3621 23.2514 19.5264 23.2838 19.6797 23.3472C19.8329 23.4107 19.972 23.504 20.0887 23.6217C20.2067 23.741 20.2998 23.8823 20.3629 24.0377C20.4259 24.1931 20.4575 24.3594 20.4558 24.527C20.4542 24.6947 20.4194 24.8603 20.3534 25.0145C20.2874 25.1686 20.1915 25.3081 20.0712 25.4251Z"/>
</mask>
<path d="M20.7962 22.9149C20.4884 22.6064 20.0976 22.3938 19.6712 22.3029C19.7512 22.0193 19.7684 21.7217 19.7218 21.4308C19.6751 21.1399 19.5658 20.8626 19.4012 20.6181C19.2366 20.3736 19.0208 20.1678 18.7687 20.0149C18.5166 19.8621 18.2343 19.7658 17.9412 19.7328C18.0206 19.5081 18.062 19.2717 18.0637 19.0334C18.0649 18.5126 17.8851 18.0074 17.555 17.6043C17.2249 17.2011 16.765 16.925 16.2537 16.8229L18.9687 14.1104C19.1824 13.8985 19.3516 13.6461 19.4664 13.3681C19.5812 13.09 19.6394 12.7919 19.6374 12.4911C19.6355 12.1903 19.5736 11.893 19.4552 11.6164C19.3368 11.3398 19.1644 11.0897 18.9481 10.8805C18.7317 10.6713 18.4758 10.5074 18.1952 10.3982C17.9147 10.2891 17.6152 10.237 17.3142 10.2449C17.0132 10.2529 16.7169 10.3207 16.4425 10.4445C16.1681 10.5683 15.9212 10.7455 15.7162 10.9658C12.7462 14.1354 9.05122 17.7371 7.59372 18.3341C6.74372 18.6837 6.53622 18.4115 5.88122 17.325C5.42448 16.4816 4.81793 15.7284 4.09122 15.102C3.22872 14.4002 2.21122 14.3802 1.36622 15.0471C0.413716 15.8089 0.276216 17.1027 1.03372 18.1917C2.60372 20.4321 2.59122 21.4562 2.58122 22.4453C2.50622 29.5913 7.46872 31.8017 10.4162 31.9791C10.6412 31.9941 10.8587 31.9991 11.0737 31.9991C12.4358 32.0137 13.7855 31.7402 15.0342 31.1965C16.2829 30.6528 17.4022 29.8512 18.3187 28.8444L19.9537 27.0411C19.9636 27.0317 19.9727 27.0217 19.9812 27.0111L20.7962 26.1144C21.2201 25.6897 21.4581 25.1144 21.4581 24.5146C21.4581 23.9149 21.2201 23.3396 20.7962 22.9149ZM18.4412 21.0191C18.6256 21.2024 18.7342 21.4483 18.7453 21.708C18.7564 21.9676 18.6693 22.222 18.5012 22.4203C18.4801 22.4401 18.4608 22.4619 18.4437 22.4853C18.4424 22.4866 18.4415 22.4884 18.4412 22.4903L17.0037 23.9239C16.8002 23.9974 16.5802 24.012 16.3688 23.966C16.1574 23.9201 15.9633 23.8154 15.8087 23.6642C15.7887 23.6442 15.7687 23.6242 15.7487 23.6067C15.5512 23.4029 15.4351 23.134 15.4222 22.8507C15.4093 22.5673 15.5006 22.289 15.6787 22.0681C15.8762 21.9108 16.7162 21.2514 17.1612 20.8692C17.3606 20.7475 17.5951 20.6961 17.8271 20.7232C18.0592 20.7504 18.2754 20.8546 18.4412 21.0191ZM16.6937 18.1417C16.8113 18.2585 16.9046 18.3975 16.9681 18.5505C17.0316 18.7036 17.0641 18.8677 17.0637 19.0334C17.0316 19.4393 16.8435 19.8171 16.5387 20.0875C16.2337 20.3522 15.5762 20.8767 15.0912 21.2589C14.8842 21.3177 14.6652 21.3198 14.4571 21.2648C14.249 21.2099 14.0596 21.1 13.9087 20.9467L13.8762 20.9142C13.6489 20.6864 13.5213 20.3779 13.5213 20.0562C13.5213 19.7346 13.6489 19.426 13.8762 19.1983L15.0487 18.0243C15.2913 17.8431 15.591 17.7552 15.8931 17.7768C16.1952 17.7984 16.4794 17.9279 16.6937 18.1417ZM17.5687 28.1825C17.5612 28.19 17.5562 28.1975 17.5487 28.205C16.6537 29.1681 15.5533 29.9177 14.3291 30.3985C13.1048 30.8793 11.7881 31.0788 10.4762 30.9825C9.18889 30.8758 7.94833 30.4509 6.86622 29.7461C6.94372 29.7511 7.02122 29.7561 7.10372 29.7561C7.17122 29.7561 7.24372 29.7536 7.31622 29.7486C8.56122 29.6712 9.70872 28.9119 10.7262 27.4932C10.7998 27.3854 10.8283 27.2531 10.8056 27.1246C10.7828 26.9961 10.7107 26.8816 10.6045 26.8056C10.4984 26.7296 10.3667 26.6981 10.2376 26.7178C10.1085 26.7375 9.99225 26.807 9.91372 26.9112C9.08122 28.0701 8.18872 28.6896 7.25872 28.752C5.96122 28.8369 4.96372 27.8004 4.95122 27.7854C4.9292 27.7613 4.90397 27.7402 4.87622 27.723C4.09372 26.4891 3.55622 24.7956 3.58122 22.4553C3.59622 21.134 3.47872 19.9401 1.85372 17.6222C1.47872 17.0827 1.37622 16.3184 1.98872 15.8288C2.47122 15.4492 2.95122 15.4642 3.46122 15.8788C4.09714 16.4326 4.62738 17.0969 5.02622 17.8395C5.25846 18.2735 5.55047 18.6729 5.89372 19.0259C5.90372 19.0384 5.91372 19.0534 5.92372 19.0659C5.96622 19.1083 6.91872 20.1574 5.94872 21.6785C5.90022 21.7539 5.87302 21.8411 5.86998 21.9307C5.86694 22.0203 5.88818 22.109 5.93146 22.1876C5.97474 22.2661 6.03844 22.3315 6.11584 22.3769C6.19325 22.4222 6.28148 22.4459 6.37122 22.4453C6.45499 22.4458 6.5375 22.4249 6.61098 22.3847C6.68446 22.3445 6.74649 22.2863 6.79122 22.2155C7.0686 21.8186 7.25384 21.3649 7.33342 20.8875C7.413 20.41 7.38492 19.9208 7.25122 19.4555C7.49977 19.4222 7.74276 19.3558 7.97372 19.2582C9.93872 18.4514 14.5537 13.6683 16.4462 11.6477C16.5613 11.5236 16.7004 11.4242 16.8551 11.3555C17.0098 11.2868 17.1769 11.2502 17.3462 11.248C17.5139 11.2452 17.6804 11.2757 17.8361 11.3378C17.9918 11.3999 18.1336 11.4923 18.2532 11.6097C18.3728 11.7271 18.4678 11.8671 18.5327 12.0216C18.5976 12.1761 18.6311 12.3419 18.6312 12.5094C18.6321 12.6755 18.5998 12.8402 18.5363 12.9937C18.4728 13.1472 18.3793 13.2866 18.2612 13.4036L13.1687 18.4914C12.9625 18.6979 12.7992 18.9431 12.6881 19.2129C12.577 19.4826 12.5203 19.7716 12.5212 20.0633C12.5221 20.355 12.5807 20.6436 12.6935 20.9127C12.8063 21.1817 12.9712 21.4258 13.1787 21.631L13.2037 21.656C13.5479 22.0011 13.9974 22.2218 14.4812 22.2829C14.3949 22.6434 14.4019 23.02 14.5017 23.377C14.6014 23.7341 14.7905 24.0598 15.0512 24.3236C15.0587 24.3286 15.0637 24.3361 15.0712 24.3411C15.0772 24.3483 15.0839 24.355 15.0912 24.361C15.4933 24.7642 16.0391 24.9915 16.6087 24.993C16.5764 25.3109 16.6153 25.6321 16.7225 25.9332C16.8298 26.2342 17.0027 26.5078 17.2287 26.7339C17.2412 26.7464 17.2537 26.7613 17.2662 26.7763C17.5555 27.0646 17.9203 27.2655 18.3187 27.3558L17.5687 28.1825ZM20.0712 25.4251L19.2812 26.2968C19.0687 26.3975 18.8303 26.4307 18.5983 26.3918C18.3663 26.3529 18.1518 26.2439 17.9837 26.0795C17.9687 26.062 17.9537 26.047 17.9387 26.032C17.7378 25.8317 17.6173 25.5649 17.5998 25.282C17.5823 24.999 17.669 24.7194 17.8437 24.4959L19.0862 23.2571C19.1237 23.2546 19.1612 23.2521 19.1962 23.2521C19.3621 23.2514 19.5264 23.2838 19.6797 23.3472C19.8329 23.4107 19.972 23.504 20.0887 23.6217C20.2067 23.741 20.2998 23.8823 20.3629 24.0377C20.4259 24.1931 20.4575 24.3594 20.4558 24.527C20.4542 24.6947 20.4194 24.8603 20.3534 25.0145C20.2874 25.1686 20.1915 25.3081 20.0712 25.4251Z" fill="white" stroke="white" stroke-width="2" mask="url(#path-3-inside-1_4588_34156)"/>
</g>
<path id="Vector_4" d="M20.0712 25.4257L19.2812 26.2974C19.0686 26.3981 18.8303 26.4313 18.5983 26.3924C18.3663 26.3535 18.1518 26.2445 17.9837 26.0801C17.9687 26.0626 17.9537 26.0476 17.9387 26.0326C17.7378 25.8323 17.6172 25.5655 17.5997 25.2826C17.5822 24.9996 17.669 24.72 17.8437 24.4965L19.0862 23.2576C19.1237 23.2552 19.1612 23.2527 19.1962 23.2527C19.3621 23.252 19.5264 23.2844 19.6797 23.3478C19.8329 23.4113 19.9719 23.5046 20.0887 23.6223C20.2067 23.7416 20.2998 23.8829 20.3628 24.0383C20.4258 24.1937 20.4574 24.36 20.4558 24.5276C20.4542 24.6953 20.4194 24.8609 20.3534 25.0151C20.2873 25.1692 20.1915 25.3087 20.0712 25.4257ZM18.7462 21.754C18.7467 21.9984 18.6598 22.2349 18.5012 22.4209C18.4801 22.4407 18.4608 22.4625 18.4437 22.4859C18.4423 22.4872 18.4415 22.489 18.4412 22.4909L17.0037 23.9245C16.8002 23.998 16.5802 24.0126 16.3688 23.9666C16.1574 23.9207 15.9632 23.816 15.8087 23.6648C15.7887 23.6448 15.7687 23.6248 15.7487 23.6073C15.5512 23.4035 15.4351 23.1346 15.4222 22.8513C15.4093 22.5679 15.5006 22.2896 15.6787 22.0687C15.8762 21.9114 16.7162 21.252 17.1612 20.8698C17.3606 20.7481 17.595 20.6967 17.8271 20.7238C18.0592 20.751 18.2754 20.8552 18.4412 21.0197C18.5384 21.1156 18.6155 21.23 18.6678 21.3561C18.7202 21.4822 18.7469 21.6175 18.7462 21.754ZM17.0637 19.034C17.0316 19.4399 16.8435 19.8177 16.5387 20.0881C16.2337 20.3528 15.5762 20.8773 15.0912 21.2595C14.8842 21.3183 14.6652 21.3204 14.4571 21.2654C14.249 21.2105 14.0596 21.1006 13.9087 20.9473L13.8762 20.9148C13.6489 20.687 13.5212 20.3785 13.5212 20.0568C13.5212 19.7352 13.6489 19.4266 13.8762 19.1989L15.0487 18.0249C15.2361 17.885 15.4587 17.8 15.6917 17.7793C15.9248 17.7587 16.1589 17.8032 16.368 17.9079C16.5772 18.0127 16.753 18.1734 16.8758 18.3723C16.9987 18.5712 17.0638 18.8003 17.0637 19.034Z" fill="url(#paint0_linear_4588_34156)"/>
<path id="Vector_5" d="M17.266 26.7765C17.5552 27.0648 17.92 27.2656 18.3184 27.356L17.5684 28.1827C17.5609 28.1902 17.556 28.1977 17.5484 28.2052C16.6534 29.1683 15.553 29.9179 14.3288 30.3987C13.1046 30.8794 11.7878 31.079 10.476 30.9827C9.18862 30.876 7.94806 30.4511 6.86595 29.7463C6.94345 29.7513 7.02095 29.7563 7.10345 29.7563C7.17095 29.7563 7.24345 29.7538 7.31595 29.7488C8.56095 29.6714 9.70845 28.9121 10.726 27.4934C10.7996 27.3856 10.828 27.2533 10.8053 27.1248C10.7826 26.9963 10.7104 26.8818 10.6043 26.8058C10.4981 26.7298 10.3664 26.6983 10.2373 26.718C10.1082 26.7377 9.99199 26.8071 9.91345 26.9114C9.08095 28.0703 8.18845 28.6898 7.25845 28.7522C5.96095 28.8371 4.96345 27.8006 4.95095 27.7856C4.92894 27.7614 4.9037 27.7404 4.87595 27.7232C4.09345 26.4893 3.55595 24.7958 3.58095 22.4555C3.59595 21.1342 3.47845 19.9403 1.85345 17.6224C1.47845 17.0829 1.37595 16.3186 1.98845 15.829C2.47095 15.4494 2.95095 15.4644 3.46095 15.879C4.09688 16.4328 4.62711 17.097 5.02595 17.8397C5.25819 18.2737 5.5502 18.6731 5.89345 19.0261C5.90345 19.0386 5.91345 19.0536 5.92345 19.0661C5.96595 19.1085 6.91845 20.1576 5.94845 21.6787C5.89995 21.7541 5.87275 21.8412 5.86971 21.9309C5.86668 22.0205 5.88792 22.1092 5.93119 22.1878C5.97447 22.2663 6.03817 22.3317 6.11558 22.3771C6.19298 22.4224 6.28121 22.4461 6.37095 22.4455C6.45472 22.4459 6.53724 22.4251 6.61072 22.3849C6.68419 22.3447 6.74622 22.2865 6.79095 22.2157C7.06834 21.8188 7.25358 21.3651 7.33316 20.8876C7.41274 20.4102 7.38465 19.921 7.25095 19.4557C7.49951 19.4224 7.74249 19.356 7.97345 19.2584C9.93845 18.4516 14.5535 13.6685 16.446 11.6479C16.561 11.5238 16.7001 11.4244 16.8548 11.3557C17.0096 11.287 17.1767 11.2504 17.346 11.2482C17.5136 11.2454 17.6801 11.2759 17.8358 11.338C17.9916 11.4001 18.1334 11.4925 18.253 11.6099C18.3726 11.7273 18.4676 11.8673 18.5325 12.0218C18.5974 12.1762 18.6308 12.3421 18.6309 12.5096C18.6318 12.6757 18.5996 12.8403 18.5361 12.9939C18.4725 13.1474 18.379 13.2868 18.261 13.4038L13.1685 18.4916C12.9623 18.6981 12.7989 18.9433 12.6878 19.213C12.5767 19.4828 12.52 19.7718 12.5209 20.0635C12.5218 20.3552 12.5804 20.6438 12.6932 20.9129C12.8061 21.1819 12.971 21.426 13.1785 21.6312L13.2035 21.6562C13.5476 22.0013 13.9972 22.2219 14.481 22.2831C14.3946 22.6436 14.4017 23.0202 14.5014 23.3772C14.6011 23.7342 14.7903 24.06 15.051 24.3238C15.0584 24.3288 15.0635 24.3363 15.071 24.3412C15.077 24.3485 15.0837 24.3552 15.091 24.3612C15.493 24.7644 16.0388 24.9917 16.6085 24.9932C16.5762 25.3111 16.615 25.6323 16.7223 25.9333C16.8295 26.2344 17.0024 26.5079 17.2284 26.7341C17.2409 26.7465 17.2535 26.7615 17.266 26.7765Z" fill="white"/>
<path id="Vector_6" d="M9.77247 10.1947L8.66872 10.3548L9.46747 11.1326L9.27897 12.2309L10.266 11.7123L11.253 12.2309L11.0645 11.1326L11.8632 10.3548L10.7595 10.1947L10.266 9.19538L9.77247 10.1947ZM11.3812 4.18621L11.7197 4.94702L12.1182 4.21569L12.947 4.12901L12.374 3.52457L12.5475 2.71031L11.795 3.06799L11.0735 2.65137L11.1815 3.47686L10.562 4.0336L11.3812 4.18621ZM4.72847 3.85327L4.12472 3.27954L4.03622 4.10728L3.30322 4.50367L4.06397 4.84361L4.21497 5.66236L4.77347 5.04468L5.59972 5.15433L5.18422 4.43274L5.54397 3.68167L4.72847 3.85327Z" fill="white"/>
</g>
<defs>
<linearGradient id="paint0_linear_4588_34156" x1="20.2925" y1="25.487" x2="11.2145" y2="18.383" gradientUnits="userSpaceOnUse">
<stop stop-color="#12ADB7"/>
<stop offset="1" stop-color="#125B54"/>
</linearGradient>
</defs>
</svg>
