<svg width="24" height="24" viewBox="0 0 24 24" fill="none" xmlns="http://www.w3.org/2000/svg">
<g id="icon-park:hamburger-button">
<g id="Group">
<path id="Vector (Stroke)" fill-rule="evenodd" clip-rule="evenodd" d="M1.99976 5C1.99976 4.44772 2.49224 4 3.09976 4H11.8998C12.5073 4 12.9998 4.44772 12.9998 5C12.9998 5.55228 12.5073 6 11.8998 6H3.09976C2.49224 6 1.99976 5.55228 1.99976 5Z" fill="#17172E"/>
<path id="Vector (Stroke)_2" fill-rule="evenodd" clip-rule="evenodd" d="M1.99976 12C1.99976 11.4477 2.49722 11 3.11087 11H20.8886C21.5023 11 21.9998 11.4477 21.9998 12C21.9998 12.5523 21.5023 13 20.8886 13H3.11087C2.49722 13 1.99976 12.5523 1.99976 12Z" fill="#17172E"/>
<path id="Vector (Stroke)_3" fill-rule="evenodd" clip-rule="evenodd" d="M1.99976 19C1.99976 18.4477 2.49224 18 3.09976 18H11.8998C12.5073 18 12.9998 18.4477 12.9998 19C12.9998 19.5523 12.5073 20 11.8998 20H3.09976C2.49224 20 1.99976 19.5523 1.99976 19Z" fill="#17172E"/>
</g>
</g>
</svg>
