<svg width="17" height="17" viewBox="0 0 17 17" fill="none" xmlns="http://www.w3.org/2000/svg">
<g id="ph:info-duotone">
<g id="Group">
<path id="Vector" d="M14.0711 12.1112C14.7853 11.0423 15.1665 9.78558 15.1665 8.5C15.1665 6.77609 14.4817 5.12279 13.2627 3.90381C12.0437 2.68482 10.3904 2 8.66651 2C7.38093 2 6.12422 2.38122 5.0553 3.09545C3.98638 3.80968 3.15326 4.82484 2.66129 6.01256C2.16932 7.20028 2.0406 8.50721 2.2914 9.76809C2.54221 11.029 3.16127 12.1872 4.07031 13.0962C4.97935 14.0052 6.13754 14.6243 7.39842 14.8751C8.6593 15.1259 9.96623 14.9972 11.1539 14.5052C12.3417 14.0132 13.3568 13.1801 14.0711 12.1112Z" fill="white" stroke="#E4E7EC"/>
<path id="Vector_2" d="M9.6665 11.5C9.6665 11.6326 9.61383 11.7598 9.52006 11.8536C9.42629 11.9473 9.29911 12 9.1665 12C8.90129 12 8.64693 11.8946 8.4594 11.7071C8.27186 11.5196 8.1665 11.2652 8.1665 11V8.5C8.0339 8.5 7.90672 8.44732 7.81295 8.35355C7.71918 8.25979 7.6665 8.13261 7.6665 8C7.6665 7.86739 7.71918 7.74022 7.81295 7.64645C7.90672 7.55268 8.0339 7.5 8.1665 7.5C8.43172 7.5 8.68607 7.60536 8.87361 7.79289C9.06115 7.98043 9.1665 8.23478 9.1665 8.5V11C9.29911 11 9.42629 11.0527 9.52006 11.1464C9.61383 11.2402 9.6665 11.3674 9.6665 11.5ZM8.4165 6.5C8.56484 6.5 8.70984 6.45601 8.83318 6.3736C8.95652 6.29119 9.05265 6.17406 9.10941 6.03701C9.16618 5.89997 9.18103 5.74917 9.15209 5.60368C9.12315 5.4582 9.05172 5.32456 8.94683 5.21967C8.84194 5.11478 8.70831 5.04335 8.56282 5.01441C8.41734 4.98547 8.26654 5.00032 8.12949 5.05709C7.99245 5.11386 7.87531 5.20999 7.7929 5.33332C7.71049 5.45666 7.6665 5.60166 7.6665 5.75C7.6665 5.94891 7.74552 6.13968 7.88617 6.28033C8.02683 6.42098 8.21759 6.5 8.4165 6.5Z" fill="#1D2939"/>
</g>
</g>
</svg>
