<svg width="40" height="40" viewBox="0 0 40 40" fill="none" xmlns="http://www.w3.org/2000/svg">
<circle cx="20.0007" cy="19.9997" r="16.6667" fill="#0077B5"/>
<path fill-rule="evenodd" clip-rule="evenodd" d="M15.6459 11.9032C15.6459 12.9408 14.8559 13.7805 13.6205 13.7805C12.4331 13.7805 11.6431 12.9408 11.6675 11.9032C11.6431 10.8152 12.4331 10 13.6441 10C14.8559 10 15.6223 10.8152 15.6459 11.9032ZM11.7669 27.3492V15.2635H15.5229V27.3484H11.7669V27.3492Z" fill="white"/>
<path fill-rule="evenodd" clip-rule="evenodd" d="M18.5329 19.1208C18.5329 17.6133 18.4833 16.3282 18.4336 15.2654H21.6961L21.8695 16.9211H21.9436C22.438 16.1547 23.6734 14.9941 25.6753 14.9941C28.1462 14.9941 29.9998 16.6254 29.9998 20.1828V27.3511H26.2437V20.6534C26.2437 19.0955 25.7005 18.0335 24.3412 18.0335C23.3029 18.0335 22.6855 18.7502 22.4387 19.4417C22.3394 19.6892 22.2905 20.0346 22.2905 20.3814V27.3511H18.5344V19.1208H18.5329Z" fill="white"/>
</svg>
