<svg width="40" height="40" viewBox="0 0 40 40" fill="none" xmlns="http://www.w3.org/2000/svg">
<path d="M20.0386 3.33301H19.9627C10.7789 3.33301 3.33398 10.7779 3.33398 19.9617V20.0376C3.33398 29.2214 10.7789 36.6664 19.9627 36.6664H20.0386C29.2224 36.6664 36.6673 29.2214 36.6673 20.0376V19.9617C36.6673 10.7779 29.2224 3.33301 20.0386 3.33301Z" fill="#00B0F2"/>
<path d="M9.64769 19.4313C9.6944 19.408 9.74114 19.3858 9.78668 19.3647C10.5785 18.998 11.3808 18.6547 12.1819 18.3114C12.2251 18.3114 12.2975 18.2611 12.3384 18.2448C12.4003 18.2179 12.4622 18.1922 12.5241 18.1654L12.8803 18.0124C13.1185 17.9108 13.3556 17.8092 13.5938 17.7076C14.0691 17.5044 14.5444 17.3012 15.0197 17.0968C15.9703 16.6904 16.9221 16.2828 17.8727 15.8764C18.8233 15.47 19.7751 15.0625 20.7257 14.6561C21.6763 14.2497 22.6281 13.8421 23.5787 13.4357C24.5293 13.0293 25.4811 12.6217 26.4318 12.2153C26.6431 12.1242 26.872 11.9887 27.0986 11.949C27.2889 11.9152 27.4746 11.8498 27.6661 11.8136C28.0293 11.7447 28.4299 11.7166 28.7779 11.8673C28.8982 11.9198 29.0091 11.9934 29.1014 12.0857C29.5428 12.5224 29.4809 13.2395 29.3875 13.8538C28.737 18.135 28.0865 22.4174 27.4349 26.6987C27.3461 27.2861 27.2247 27.9308 26.7611 28.3021C26.3687 28.6163 25.8104 28.6513 25.3258 28.5182C24.8411 28.3839 24.4137 28.1024 23.9945 27.8257C22.2556 26.6742 20.5155 25.5227 18.7766 24.3712C18.3632 24.098 17.9031 23.7406 17.9078 23.2443C17.9101 22.9453 18.0888 22.679 18.271 22.442C19.7821 20.4707 21.9625 19.116 23.5846 17.2358C23.8135 16.9707 23.9933 16.4919 23.6792 16.3389C23.4923 16.2478 23.2774 16.3716 23.1069 16.4896C20.9628 17.9785 18.8198 19.4687 16.6757 20.9577C15.9762 21.4435 15.2428 21.9433 14.3996 22.0624C13.6452 22.1699 12.8861 21.9597 12.1562 21.7448C11.5443 21.5649 10.9335 21.3804 10.325 21.1901C10.0015 21.0896 9.66755 20.981 9.41763 20.7533C9.16772 20.5256 9.02409 20.1425 9.17474 19.8389C9.26934 19.6485 9.45269 19.5282 9.64538 19.4301L9.64769 19.4313Z" fill="#FEFFFC"/>
</svg>
