<svg xlink="http://www.w3.org/1999/xlink" viewBox="0 0 5000 5000" xmlns="http://www.w3.org/2000/svg" style="transform: scale(1);"><defs><filter id="goo"><feGaussianBlur in="SourceGraphic" stdDeviation="14.550000000000002" result="blur"></feGaussianBlur><feColorMatrix in="blur" type="matrix" values="1 0 0 0 0 0 1 0 0 0 0 0 1 0 0 0 0 0 19 -9" result="good"></feColorMatrix><feComposite in="SourceGraphic" in2="goo" operator="atop"></feComposite></filter><path d="M191,222C203,200 239,221 248,221C258,221 287,192 303,212C317,233 280,254 276,262C271,272 275,314 254,315C233,316 234,276 227,267C220,258 182,241 191,222z" id="P0"></path><path d="M181,246C182,228 224,233 230,228C235,223 232,180 254,181C272,182 267,224 273,231C278,237 320,237 319,254C318,272 276,267 269,273C263,278 263,320 246,319C228,318 233,276 227,269C222,263 180,263 181,246z" id="P1"></path><path d="M182,223C187,210 227,228 234,224C238,221 236,176 255,177C269,177 263,221 270,226C274,230 316,214 321,232C325,245 281,254 278,261C277,267 305,301 289,312C278,320 256,281 248,281C242,281 218,318 203,306C192,298 222,265 220,258C219,252 175,241 182,223z" id="P2"></path><path d="M345,281C331,317 260,269 254,270C247,271 205,345 177,318C152,289 228,250 231,244C233,236 199,157 231,152C263,146 259,231 265,236C270,242 356,250 345,281z" id="P3"></path><path d="M350,314C335,340 270,286 257,289C247,291 212,368 186,350C160,335 214,270 211,260C209,250 130,219 150,186C165,160 230,214 240,211C250,209 281,130 314,150C340,165 286,230 289,240C291,250 370,281 350,314z" id="P4"></path><path d="M183,259C180,246 220,242 224,236C227,231 205,196 221,188C233,182 248,220 256,221C261,222 288,191 300,203C309,212 278,239 279,246C280,252 318,267 310,283C304,295 269,273 263,277C258,280 254,320 237,317C224,315 234,276 228,270C224,266 185,276 183,259z" id="P5"></path><path d="M266,165C299,172 279,229 282,240C285,250 337,278 317,305C294,331 254,285 244,283C231,280 175,304 167,277C159,250 217,239 224,229C233,219 238,159 266,165z" id="P6"></path><path d="M364,279C358,309 280,278 271,283C263,289 258,372 221,364C191,358 222,280 217,271C211,263 128,258 136,221C142,191 220,222 231,215C240,210 250,127 279,136C309,142 278,220 285,231C290,240 373,250 364,279z" id="P7"></path><path d="M185,254C184,242 222,241 226,234C228,230 211,196 226,190C237,184 250,220 257,222C263,223 289,196 300,209C309,218 278,241 279,248C280,254 314,271 305,285C299,296 268,274 261,277C256,279 250,317 234,313C221,311 232,274 228,268C224,264 186,271 185,254z" id="P8"></path><path d="M336,331C303,363 253,292 240,288C228,285 155,329 138,286C125,242 212,232 221,223C232,212 242,125 279,136C316,145 282,223 288,238C292,253 363,303 336,331z" id="P9"></path><path d="M186,225C192,208 230,226 239,222C246,219 259,179 275,186C292,192 274,230 278,239C281,246 321,259 314,275C308,292 270,274 261,278C254,281 241,321 225,314C208,308 226,270 222,261C219,254 179,241 186,225z" id="P10"></path><path d="M183,213C189,199 229,225 237,222C242,219 245,171 264,174C279,176 267,223 273,229C277,233 324,221 326,240C329,255 281,258 278,265C275,271 301,311 283,320C270,327 252,282 244,281C238,280 208,317 194,303C183,292 220,262 219,254C218,248 173,230 183,213z" id="P11"></path><path d="M337,187C360,222 289,255 284,266C279,277 304,348 263,356C222,360 227,282 220,272C212,260 137,236 153,204C168,173 231,216 245,213C260,212 317,158 337,187z" id="P12"></path><path d="M256,280C248,282 243,272 238,269C233,266 222,266 220,256C218,248 228,243 231,238C234,233 234,222 244,220C252,218 257,228 262,231C267,234 278,234 280,244C282,252 272,257 269,262C266,267 266,278 256,280z" id="P13"></path><path d="M199,196C209,186 238,221 246,219C252,218 269,176 286,185C299,191 274,230 278,237C281,242 326,245 323,264C321,278 277,267 271,272C267,277 278,321 259,323C245,326 242,281 235,277C230,274 191,299 183,282C176,269 218,252 220,244C221,238 186,209 199,196z" id="P14"></path></defs><rect id="RECT" width="5000" height="5000" fill="#FFFFFF"></rect><g id="group" fill="#FD9800" filter="url(#goo)" opacity="0.04"><use x="-212" y="60" href="#P13"></use><use x="-139" y="206" href="#P3"></use><use x="-250" y="576" href="#P4"></use><use x="43" y="948" href="#P9"></use><use x="-127" y="1505" href="#P14"></use><use x="-241" y="1713" href="#P12"></use><use x="6" y="2062" href="#P4"></use><use x="-169" y="2242" href="#P7"></use><use x="-90" y="2837" href="#P4"></use><use x="-210" y="3073" href="#P3"></use><use x="-144" y="3495" href="#P6"></use><use x="7" y="3675" href="#P5"></use><use x="-132" y="4075" href="#P1"></use><use x="-13" y="4649" href="#P3"></use><use x="-167" y="4986" href="#P1"></use><use x="-232" y="5225" href="#P8"></use><use x="430" y="-175" href="#P10"></use><use x="155" y="409" href="#P14"></use><use x="234" y="743" href="#P5"></use><use x="212" y="823" href="#P14"></use><use x="231" y="1422" href="#P13"></use><use x="260" y="1627" href="#P5"></use><use x="312" y="2034" href="#P7"></use><use x="437" y="2475" href="#P4"></use><use x="310" y="2836" href="#P14"></use><use x="478" y="3130" href="#P5"></use><use x="238" y="3496" href="#P11"></use><use x="405" y="3927" href="#P13"></use><use x="145" y="4016" href="#P13"></use><use x="237" y="4524" href="#P3"></use><use x="363" y="4739" href="#P6"></use><use x="227" y="5339" href="#P14"></use><use x="794" y="-203" href="#P2"></use><use x="809" y="425" href="#P2"></use><use x="707" y="554" href="#P4"></use><use x="504" y="1161" href="#P2"></use><use x="662" y="1495" href="#P5"></use><use x="520" y="1812" href="#P5"></use><use x="579" y="1927" href="#P2"></use><use x="486" y="2570" href="#P10"></use><use x="832" y="2676" href="#P10"></use><use x="703" y="2969" href="#P6"></use><use x="503" y="3411" href="#P1"></use><use x="790" y="3888" href="#P9"></use><use x="663" y="4272" href="#P3"></use><use x="587" y="4393" href="#P6"></use><use x="663" y="5022" href="#P10"></use><use x="787" y="5297" href="#P2"></use><use x="913" y="42" href="#P5"></use><use x="1065" y="110" href="#P9"></use><use x="1209" y="663" href="#P6"></use><use x="1200" y="883" href="#P0"></use><use x="892" y="1487" href="#P14"></use><use x="940" y="1725" href="#P11"></use><use x="1007" y="2225" href="#P9"></use><use x="922" y="2555" href="#P6"></use><use x="1175" y="2929" href="#P9"></use><use x="1170" y="2977" href="#P8"></use><use x="1057" y="3354" href="#P6"></use><use x="1172" y="3690" href="#P11"></use><use x="995" y="4343" href="#P13"></use><use x="979" y="4624" href="#P0"></use><use x="1178" y="4889" href="#P6"></use><use x="1114" y="5202" href="#P11"></use><use x="1541" y="54" href="#P0"></use><use x="1252" y="209" href="#P1"></use><use x="1227" y="474" href="#P13"></use><use x="1500" y="929" href="#P13"></use><use x="1542" y="1304" href="#P0"></use><use x="1381" y="1660" href="#P14"></use><use x="1229" y="1927" href="#P10"></use><use x="1222" y="2234" href="#P6"></use><use x="1327" y="2831" href="#P7"></use><use x="1268" y="3014" href="#P13"></use><use x="1478" y="3359" href="#P4"></use><use x="1509" y="3844" href="#P5"></use><use x="1333" y="4344" href="#P3"></use><use x="1517" y="4705" href="#P12"></use><use x="1304" y="4715" href="#P11"></use><use x="1224" y="5384" href="#P3"></use><use x="1769" y="59" href="#P1"></use><use x="1926" y="189" href="#P3"></use><use x="1725" y="633" href="#P7"></use><use x="1692" y="1128" href="#P5"></use><use x="1749" y="1316" href="#P6"></use><use x="1725" y="1637" href="#P11"></use><use x="1746" y="2182" href="#P7"></use><use x="1744" y="2550" href="#P5"></use><use x="1698" y="2774" href="#P0"></use><use x="1793" y="3102" href="#P6"></use><use x="1663" y="3291" href="#P12"></use><use x="1634" y="3819" href="#P9"></use><use x="1950" y="4140" href="#P2"></use><use x="1639" y="4369" href="#P9"></use><use x="1807" y="5058" href="#P13"></use><use x="1749" y="5319" href="#P7"></use><use x="2202" y="-189" href="#P4"></use><use x="2274" y="333" href="#P1"></use><use x="2159" y="669" href="#P14"></use><use x="2075" y="1033" href="#P8"></use><use x="1954" y="1186" href="#P6"></use><use x="2141" y="1554" href="#P3"></use><use x="2212" y="2172" href="#P4"></use><use x="2185" y="2387" href="#P2"></use><use x="2278" y="2759" href="#P6"></use><use x="2160" y="3230" href="#P2"></use><use x="2040" y="3615" href="#P9"></use><use x="2231" y="3838" href="#P9"></use><use x="2151" y="4207" href="#P5"></use><use x="2311" y="4634" href="#P0"></use><use x="2135" y="4954" href="#P6"></use><use x="2079" y="5400" href="#P12"></use><use x="2673" y="99" href="#P4"></use><use x="2357" y="117" href="#P1"></use><use x="2627" y="729" href="#P6"></use><use x="2345" y="1097" href="#P9"></use><use x="2660" y="1336" href="#P11"></use><use x="2385" y="1634" href="#P7"></use><use x="2629" y="1946" href="#P7"></use><use x="2537" y="2547" href="#P2"></use><use x="2576" y="2677" href="#P12"></use><use x="2499" y="3236" href="#P6"></use><use x="2445" y="3379" href="#P10"></use><use x="2569" y="3983" href="#P4"></use><use x="2389" y="4125" href="#P12"></use><use x="2568" y="4492" href="#P10"></use><use x="2384" y="4843" href="#P13"></use><use x="2618" y="5251" href="#P13"></use><use x="2950" y="47" href="#P8"></use><use x="2854" y="216" href="#P5"></use><use x="2865" y="698" href="#P0"></use><use x="2700" y="1054" href="#P14"></use><use x="3044" y="1423" href="#P8"></use><use x="2938" y="1614" href="#P2"></use><use x="2884" y="2036" href="#P7"></use><use x="2784" y="2541" href="#P5"></use><use x="2904" y="2721" href="#P2"></use><use x="3025" y="2991" href="#P4"></use><use x="2773" y="3465" href="#P2"></use><use x="2899" y="3707" href="#P4"></use><use x="3028" y="4180" href="#P8"></use><use x="2942" y="4386" href="#P12"></use><use x="3050" y="4784" href="#P6"></use><use x="3024" y="5247" href="#P2"></use><use x="3172" y="50" href="#P0"></use><use x="3381" y="419" href="#P0"></use><use x="3190" y="506" href="#P0"></use><use x="3260" y="934" href="#P7"></use><use x="3369" y="1510" href="#P1"></use><use x="3347" y="1863" href="#P13"></use><use x="3329" y="2106" href="#P9"></use><use x="3193" y="2545" href="#P3"></use><use x="3065" y="2833" href="#P7"></use><use x="3061" y="3164" href="#P12"></use><use x="3158" y="3582" href="#P1"></use><use x="3050" y="3784" href="#P3"></use><use x="3130" y="4136" href="#P8"></use><use x="3363" y="4368" href="#P3"></use><use x="3163" y="4883" href="#P8"></use><use x="3381" y="5291" href="#P6"></use><use x="3617" y="-65" href="#P8"></use><use x="3455" y="354" href="#P7"></use><use x="3699" y="805" href="#P4"></use><use x="3529" y="924" href="#P6"></use><use x="3537" y="1486" href="#P6"></use><use x="3606" y="1537" href="#P11"></use><use x="3627" y="1880" href="#P7"></use><use x="3519" y="2459" href="#P7"></use><use x="3468" y="2736" href="#P3"></use><use x="3678" y="3023" href="#P10"></use><use x="3714" y="3383" href="#P3"></use><use x="3540" y="3737" href="#P7"></use><use x="3604" y="4309" href="#P0"></use><use x="3583" y="4455" href="#P1"></use><use x="3783" y="4926" href="#P8"></use><use x="3755" y="5140" href="#P1"></use><use x="3991" y="15" href="#P4"></use><use x="3838" y="364" href="#P13"></use><use x="3893" y="754" href="#P6"></use><use x="4074" y="920" href="#P1"></use><use x="4130" y="1345" href="#P8"></use><use x="4098" y="1860" href="#P6"></use><use x="3858" y="2135" href="#P4"></use><use x="3801" y="2553" href="#P8"></use><use x="4087" y="2865" href="#P7"></use><use x="4043" y="3004" href="#P12"></use><use x="4061" y="3493" href="#P5"></use><use x="4008" y="3710" href="#P1"></use><use x="3835" y="3998" href="#P14"></use><use x="3853" y="4417" href="#P11"></use><use x="4094" y="5008" href="#P9"></use><use x="3994" y="5093" href="#P7"></use><use x="4280" y="-26" href="#P7"></use><use x="4353" y="323" href="#P10"></use><use x="4198" y="736" href="#P12"></use><use x="4270" y="870" href="#P12"></use><use x="4402" y="1322" href="#P1"></use><use x="4334" y="1714" href="#P4"></use><use x="4501" y="2098" href="#P4"></use><use x="4178" y="2537" href="#P0"></use><use x="4352" y="2755" href="#P8"></use><use x="4185" y="3131" href="#P3"></use><use x="4375" y="3386" href="#P12"></use><use x="4207" y="3672" href="#P4"></use><use x="4397" y="4210" href="#P10"></use><use x="4337" y="4655" href="#P0"></use><use x="4151" y="4930" href="#P14"></use><use x="4399" y="5059" href="#P7"></use><use x="4805" y="-114" href="#P5"></use><use x="4693" y="439" href="#P14"></use><use x="4803" y="520" href="#P2"></use><use x="4620" y="1087" href="#P8"></use><use x="4806" y="1371" href="#P3"></use><use x="4863" y="1842" href="#P10"></use><use x="4686" y="1964" href="#P0"></use><use x="4733" y="2374" href="#P13"></use><use x="4636" y="2802" href="#P5"></use><use x="4704" y="3132" href="#P6"></use><use x="4809" y="3292" href="#P1"></use><use x="4643" y="3858" href="#P3"></use><use x="4761" y="4312" href="#P10"></use><use x="4669" y="4378" href="#P12"></use><use x="4696" y="4930" href="#P3"></use><use x="4765" y="5356" href="#P11"></use><use x="4912" y="-71" href="#P4"></use><use x="5076" y="315" href="#P5"></use><use x="5235" y="609" href="#P2"></use><use x="5031" y="920" href="#P3"></use><use x="5097" y="1413" href="#P12"></use><use x="5002" y="1718" href="#P10"></use><use x="5041" y="2048" href="#P4"></use><use x="4928" y="2344" href="#P7"></use><use x="5020" y="2886" href="#P6"></use><use x="4889" y="3004" href="#P6"></use><use x="4886" y="3589" href="#P13"></use><use x="5093" y="3853" href="#P9"></use><use x="5220" y="4193" href="#P5"></use><use x="5015" y="4485" href="#P0"></use><use x="5207" y="4862" href="#P14"></use><use x="4934" y="5134" href="#P4"></use></g></svg>