<svg xlink="http://www.w3.org/1999/xlink" viewBox="0 0 5000 5000" xmlns="http://www.w3.org/2000/svg" style="transform: scale(1);"><defs><filter id="goo"><feGaussianBlur in="SourceGraphic" stdDeviation="14.550000000000002" result="blur"></feGaussianBlur><feColorMatrix in="blur" type="matrix" values="1 0 0 0 0 0 1 0 0 0 0 0 1 0 0 0 0 0 19 -9" result="good"></feColorMatrix><feComposite in="SourceGraphic" in2="goo" operator="atop"></feComposite></filter><path d="M215,186C240,173 258,219 266,224C275,230 321,222 323,250C322,278 274,272 265,277C254,282 231,325 211,312C191,299 220,262 219,250C220,238 194,197 215,186z" id="P0"></path><path d="M255,163C278,164 269,221 274,227C280,233 338,227 337,255C336,278 279,269 273,274C267,280 273,338 245,337C222,336 231,279 226,273C220,267 162,273 163,245C164,222 221,231 227,226C233,220 227,162 255,163z" id="P1"></path><path d="M361,294C353,316 280,278 271,284C265,288 273,370 243,369C220,369 233,287 225,281C218,276 143,309 135,280C128,258 209,245 213,235C215,228 161,166 186,150C205,136 242,210 252,210C260,210 302,139 326,158C344,172 286,230 289,240C291,247 372,265 361,294z" id="P2"></path><path d="M347,275C336,312 261,268 255,270C249,271 211,347 182,323C154,295 229,251 230,245C233,237 193,161 225,153C257,145 258,230 264,235C269,241 356,243 347,275z" id="P3"></path><path d="M230,171C250,165 258,217 266,222C273,225 322,204 329,230C335,250 283,258 278,266C275,273 296,322 270,329C250,335 242,283 234,278C227,275 178,296 171,270C165,250 217,242 222,234C225,227 204,178 230,171z" id="P4"></path><path d="M214,288C207,281 225,262 224,255C223,250 197,240 203,228C207,219 231,230 237,227C242,224 243,197 257,198C267,199 263,226 268,231C272,234 298,227 301,240C304,250 277,255 274,261C272,266 287,289 275,296C267,301 253,277 247,276C242,276 224,297 214,288z" id="P5"></path><path d="M190,261C186,238 225,234 232,228C239,222 246,186 269,192C291,200 276,236 278,245C279,256 305,285 289,297C274,310 252,280 241,277C231,273 193,281 190,261z" id="P6"></path><path d="M205,179C223,167 248,216 256,218C265,219 306,183 321,205C333,223 284,248 282,258C280,266 314,310 295,321C277,333 252,284 242,282C234,280 190,314 179,295C167,277 216,252 218,242C220,234 186,190 205,179z" id="P7"></path><path d="M194,276C188,266 221,252 222,245C223,239 196,216 208,205C216,196 239,223 246,222C252,221 266,188 280,196C291,201 273,231 276,238C278,243 314,246 311,262C309,274 275,266 269,271C266,275 274,309 258,312C246,314 243,278 236,275C231,273 201,291 194,276z" id="P8"></path><path d="M345,281C331,317 260,269 254,270C247,271 205,345 177,318C152,289 228,250 231,244C233,236 199,157 231,152C263,146 259,231 265,236C270,242 356,250 345,281z" id="P9"></path><path d="M184,229C189,212 229,227 236,224C242,220 250,178 271,184C288,189 273,229 276,236C280,242 322,250 316,271C311,288 271,273 263,277C256,280 245,322 229,316C212,311 227,271 223,263C220,256 178,245 184,229z" id="P10"></path><path d="M244,296C235,295 237,273 233,268C229,265 207,270 205,259C203,250 225,245 227,239C229,235 218,215 228,210C235,205 247,224 253,225C258,225 273,208 281,216C288,222 273,239 275,245C276,250 297,259 292,270C288,278 268,269 262,272C258,275 256,297 244,296z" id="P11"></path><path d="M193,219C206,197 241,221 250,221C259,221 290,195 305,215C318,237 280,256 275,264C270,274 271,316 250,315C229,315 232,275 226,266C220,256 182,237 193,219z" id="P12"></path><path d="M195,268C190,254 222,245 226,237C229,230 218,199 232,195C246,190 255,222 263,226C270,229 301,218 305,232C310,246 278,255 274,263C271,270 282,301 268,305C254,310 245,278 237,274C230,271 199,282 195,268z" id="P13"></path><path d="M303,166C320,176 280,228 283,237C286,243 352,250 346,275C342,293 280,272 273,278C268,282 282,347 256,349C237,351 239,285 231,280C225,277 168,310 158,286C150,269 213,250 215,241C217,234 168,190 187,174C201,161 239,215 248,214C255,213 282,153 303,166z" id="P14"></path></defs><rect id="RECT" width="5000" height="5000" fill="#FFFFFF"></rect><g id="group" fill="#FD9800" filter="url(#goo)" opacity="0.09"><use x="-422" y="-433" href="#P6"></use><use x="-513" y="-298" href="#P3"></use><use x="-731" y="54" href="#P14"></use><use x="-794" y="692" href="#P8"></use><use x="-767" y="813" href="#P2"></use><use x="-913" y="1307" href="#P3"></use><use x="-871" y="1862" href="#P13"></use><use x="-841" y="2219" href="#P13"></use><use x="-947" y="2897" href="#P10"></use><use x="-945" y="3406" href="#P3"></use><use x="-827" y="3823" href="#P5"></use><use x="-897" y="4068" href="#P8"></use><use x="-639" y="4564" href="#P9"></use><use x="-715" y="4923" href="#P1"></use><use x="-533" y="5448" href="#P1"></use><use x="-436" y="5665" href="#P0"></use><use x="-38" y="-610" href="#P2"></use><use x="-265" y="-218" href="#P6"></use><use x="-178" y="219" href="#P9"></use><use x="-221" y="303" href="#P4"></use><use x="-262" y="885" href="#P8"></use><use x="-393" y="1428" href="#P7"></use><use x="-613" y="2029" href="#P13"></use><use x="-537" y="2432" href="#P14"></use><use x="-636" y="2894" href="#P5"></use><use x="-657" y="3367" href="#P2"></use><use x="-518" y="3891" href="#P6"></use><use x="-449" y="4212" href="#P4"></use><use x="-553" y="4460" href="#P11"></use><use x="-124" y="4969" href="#P5"></use><use x="-196" y="5418" href="#P12"></use><use x="-180" y="5652" href="#P5"></use><use x="369" y="-586" href="#P8"></use><use x="255" y="-285" href="#P9"></use><use x="118" y="-26" href="#P8"></use><use x="-90" y="342" href="#P9"></use><use x="-139" y="1027" href="#P0"></use><use x="-159" y="1544" href="#P6"></use><use x="-163" y="2083" href="#P5"></use><use x="-287" y="2465" href="#P13"></use><use x="-143" y="3075" href="#P6"></use><use x="-147" y="3551" href="#P4"></use><use x="-14" y="3701" href="#P4"></use><use x="127" y="4453" href="#P8"></use><use x="-58" y="4657" href="#P0"></use><use x="35" y="5120" href="#P11"></use><use x="34" y="5387" href="#P7"></use><use x="319" y="5708" href="#P0"></use><use x="701" y="-933" href="#P5"></use><use x="479" y="-269" href="#P1"></use><use x="387" y="-181" href="#P12"></use><use x="569" y="244" href="#P6"></use><use x="302" y="963" href="#P7"></use><use x="208" y="1488" href="#P8"></use><use x="527" y="1946" href="#P13"></use><use x="300" y="2307" href="#P2"></use><use x="461" y="2756" href="#P14"></use><use x="476" y="3502" href="#P1"></use><use x="296" y="4045" href="#P12"></use><use x="314" y="4351" href="#P10"></use><use x="540" y="4595" href="#P1"></use><use x="501" y="5137" href="#P5"></use><use x="644" y="5430" href="#P4"></use><use x="717" y="5857" href="#P9"></use><use x="1121" y="-721" href="#P4"></use><use x="975" y="-278" href="#P12"></use><use x="950" y="9" href="#P1"></use><use x="797" y="190" href="#P7"></use><use x="1116" y="682" href="#P12"></use><use x="664" y="1428" href="#P11"></use><use x="833" y="1648" href="#P2"></use><use x="857" y="2497" href="#P14"></use><use x="931" y="2883" href="#P14"></use><use x="619" y="3341" href="#P9"></use><use x="857" y="3725" href="#P10"></use><use x="1126" y="4556" href="#P12"></use><use x="751" y="4971" href="#P2"></use><use x="1030" y="5152" href="#P14"></use><use x="1136" y="5793" href="#P5"></use><use x="1162" y="6088" href="#P7"></use><use x="1300" y="-750" href="#P4"></use><use x="1399" y="-326" href="#P14"></use><use x="1506" y="-118" href="#P14"></use><use x="1303" y="370" href="#P1"></use><use x="1566" y="721" href="#P14"></use><use x="1339" y="1532" href="#P12"></use><use x="1626" y="1768" href="#P12"></use><use x="1238" y="2314" href="#P12"></use><use x="1188" y="2991" href="#P14"></use><use x="1152" y="3519" href="#P7"></use><use x="1510" y="3712" href="#P9"></use><use x="1208" y="4278" href="#P11"></use><use x="1489" y="5033" href="#P8"></use><use x="1322" y="5375" href="#P7"></use><use x="1614" y="5721" href="#P10"></use><use x="1602" y="6001" href="#P3"></use><use x="2199" y="-907" href="#P8"></use><use x="2001" y="-620" href="#P3"></use><use x="2110" y="33" href="#P14"></use><use x="1856" y="308" href="#P0"></use><use x="2046" y="999" href="#P13"></use><use x="2076" y="1503" href="#P5"></use><use x="2032" y="1645" href="#P8"></use><use x="1729" y="2160" href="#P3"></use><use x="1732" y="3017" href="#P6"></use><use x="1883" y="3556" href="#P8"></use><use x="2086" y="4090" href="#P5"></use><use x="1825" y="4313" href="#P11"></use><use x="2075" y="4984" href="#P0"></use><use x="1863" y="5251" href="#P7"></use><use x="1882" y="5796" href="#P14"></use><use x="2097" y="6119" href="#P10"></use><use x="2361" y="-721" href="#P0"></use><use x="2747" y="-659" href="#P14"></use><use x="2376" y="-319" href="#P1"></use><use x="2532" y="309" href="#P12"></use><use x="2515" y="958" href="#P3"></use><use x="2297" y="1266" href="#P1"></use><use x="2426" y="1887" href="#P10"></use><use x="2338" y="2538" href="#P11"></use><use x="2306" y="2639" href="#P7"></use><use x="2785" y="3327" href="#P14"></use><use x="2545" y="3877" href="#P2"></use><use x="2307" y="4276" href="#P7"></use><use x="2628" y="4721" href="#P10"></use><use x="2385" y="5238" href="#P7"></use><use x="2529" y="5760" href="#P9"></use><use x="2698" y="5974" href="#P9"></use><use x="3130" y="-807" href="#P8"></use><use x="2890" y="-570" href="#P6"></use><use x="3004" y="-177" href="#P11"></use><use x="2807" y="310" href="#P13"></use><use x="3038" y="874" href="#P7"></use><use x="3086" y="1293" href="#P13"></use><use x="2837" y="1711" href="#P6"></use><use x="3134" y="2613" href="#P11"></use><use x="3296" y="2944" href="#P7"></use><use x="3246" y="3568" href="#P2"></use><use x="2796" y="4073" href="#P4"></use><use x="3233" y="4528" href="#P2"></use><use x="2774" y="5013" href="#P8"></use><use x="2992" y="5463" href="#P8"></use><use x="3217" y="5749" href="#P7"></use><use x="3007" y="5942" href="#P10"></use><use x="3313" y="-988" href="#P10"></use><use x="3632" y="-515" href="#P3"></use><use x="3592" y="-195" href="#P2"></use><use x="3632" y="435" href="#P12"></use><use x="3647" y="761" href="#P9"></use><use x="3693" y="1337" href="#P1"></use><use x="3889" y="1900" href="#P4"></use><use x="3884" y="2277" href="#P3"></use><use x="3654" y="2728" href="#P9"></use><use x="3607" y="3375" href="#P13"></use><use x="3373" y="4012" href="#P11"></use><use x="3333" y="4219" href="#P9"></use><use x="3427" y="4873" href="#P0"></use><use x="3645" y="5264" href="#P4"></use><use x="3564" y="5681" href="#P10"></use><use x="3450" y="6046" href="#P3"></use><use x="3730" y="-985" href="#P0"></use><use x="3889" y="-288" href="#P12"></use><use x="3969" y="-190" href="#P12"></use><use x="4155" y="173" href="#P1"></use><use x="4271" y="788" href="#P0"></use><use x="4229" y="1292" href="#P11"></use><use x="4332" y="1701" href="#P11"></use><use x="4360" y="2393" href="#P8"></use><use x="3950" y="2791" href="#P2"></use><use x="3919" y="3613" href="#P13"></use><use x="3925" y="3859" href="#P7"></use><use x="4045" y="4592" href="#P8"></use><use x="4185" y="4788" href="#P14"></use><use x="4077" y="5297" href="#P0"></use><use x="4100" y="5435" href="#P12"></use><use x="4080" y="5822" href="#P12"></use><use x="4444" y="-568" href="#P10"></use><use x="4359" y="-309" href="#P8"></use><use x="4523" y="-97" href="#P2"></use><use x="4421" y="298" href="#P3"></use><use x="4378" y="801" href="#P10"></use><use x="4624" y="1182" href="#P4"></use><use x="4733" y="1856" href="#P8"></use><use x="4760" y="2116" href="#P2"></use><use x="4779" y="3061" href="#P7"></use><use x="4579" y="3310" href="#P5"></use><use x="4375" y="3885" href="#P5"></use><use x="4715" y="4114" href="#P9"></use><use x="4687" y="4611" href="#P4"></use><use x="4432" y="5247" href="#P3"></use><use x="4500" y="5532" href="#P14"></use><use x="4267" y="6009" href="#P8"></use><use x="4758" y="-673" href="#P7"></use><use x="5077" y="-169" href="#P1"></use><use x="4996" y="17" href="#P11"></use><use x="5077" y="588" href="#P7"></use><use x="5034" y="1004" href="#P2"></use><use x="4867" y="1206" href="#P8"></use><use x="5243" y="1916" href="#P9"></use><use x="5269" y="2550" href="#P12"></use><use x="5148" y="2789" href="#P7"></use><use x="5253" y="3528" href="#P14"></use><use x="5066" y="3663" href="#P12"></use><use x="5182" y="4135" href="#P10"></use><use x="4773" y="4683" href="#P10"></use><use x="4804" y="5092" href="#P13"></use><use x="4949" y="5321" href="#P4"></use><use x="4581" y="6028" href="#P0"></use><use x="5208" y="-608" href="#P5"></use><use x="5350" y="-153" href="#P12"></use><use x="5399" y="-46" href="#P0"></use><use x="5286" y="378" href="#P13"></use><use x="5564" y="849" href="#P9"></use><use x="5317" y="1288" href="#P13"></use><use x="5410" y="1783" href="#P12"></use><use x="5457" y="2425" href="#P7"></use><use x="5459" y="2932" href="#P6"></use><use x="5348" y="3171" href="#P11"></use><use x="5492" y="3599" href="#P7"></use><use x="5551" y="4193" href="#P4"></use><use x="5148" y="4793" href="#P4"></use><use x="5303" y="4944" href="#P4"></use><use x="5192" y="5578" href="#P3"></use><use x="5177" y="5896" href="#P11"></use><use x="5373" y="-647" href="#P8"></use><use x="5598" y="-284" href="#P5"></use><use x="5571" y="155" href="#P13"></use><use x="5919" y="626" href="#P9"></use><use x="5616" y="794" href="#P12"></use><use x="5975" y="1353" href="#P9"></use><use x="5754" y="1678" href="#P13"></use><use x="5836" y="2238" href="#P12"></use><use x="5799" y="2702" href="#P5"></use><use x="5704" y="3403" href="#P2"></use><use x="5818" y="3851" href="#P1"></use><use x="5881" y="4226" href="#P7"></use><use x="5562" y="4731" href="#P3"></use><use x="5613" y="4972" href="#P5"></use><use x="5626" y="5283" href="#P2"></use><use x="5499" y="5700" href="#P13"></use></g></svg>