<svg width="1289" height="419" viewBox="0 0 1289 419" fill="none" xmlns="http://www.w3.org/2000/svg">
<path d="M882.289 361.032C885.657 359.023 886.754 354.695 884.738 351.366C882.723 348.036 878.359 346.966 874.991 348.975C871.623 350.984 870.526 355.311 872.542 358.641C874.557 361.97 878.921 363.041 882.289 361.032Z" fill="#FFD036"/>
<path fill-rule="evenodd" clip-rule="evenodd" d="M878.835 347.965C881.857 348.493 883.701 351.747 882.864 355.358C882.027 358.97 878.632 361.683 875.417 360.971C874.996 360.874 874.59 360.723 874.209 360.521C876.626 362.447 880.032 362.592 882.62 360.877C885.207 359.162 886.38 355.988 885.514 353.033C885.09 351.593 884.213 350.324 883.012 349.413C881.811 348.502 880.348 347.997 878.84 347.972L878.835 347.965Z" fill="#FFC20C"/>
<path fill-rule="evenodd" clip-rule="evenodd" d="M875.973 353.385C875.766 354.495 874.903 355.27 874.044 355.116C873.184 354.962 872.656 353.937 872.862 352.828C873.069 351.718 873.933 350.942 874.792 351.097C875.651 351.251 876.18 352.275 875.973 353.385Z" fill="#F9E4AA"/>
<path fill-rule="evenodd" clip-rule="evenodd" d="M1054.65 18.3125L1075.6 45.4621L1088.45 37.6989L1088.79 22.7609L1054.65 18.3125Z" fill="#5971EA"/>
<path fill-rule="evenodd" clip-rule="evenodd" d="M1075.71 45.8506L1088.56 38.0875L1054.76 18.7011L1075.71 45.8506Z" fill="#8D8DFF"/>
<path fill-rule="evenodd" clip-rule="evenodd" d="M1264.26 37.6665C1261.52 38.8676 1257.68 36.1922 1255.68 31.6905C1253.68 27.1888 1254.27 22.5656 1257.01 21.3645C1259.74 20.1634 1263.58 22.8388 1265.59 27.3405C1267.59 31.8422 1266.99 36.4647 1264.26 37.6665Z" fill="#7FEAC1"/>
<path fill-rule="evenodd" clip-rule="evenodd" d="M1234.15 34.3178C1234.41 32.2844 1235.33 30.9184 1236.6 30.3562L1257 21.368C1255.72 21.9352 1254.79 23.2981 1254.56 25.3295C1254.06 29.3672 1256.37 34.523 1259.72 36.8396C1261.39 37.9916 1262.99 38.2271 1264.25 37.6706L1243.85 46.657C1242.57 47.2241 1240.98 46.9805 1239.32 45.8342C1235.98 43.5446 1233.65 38.3649 1234.15 34.3178Z" fill="#4DDBA7"/>
<path fill-rule="evenodd" clip-rule="evenodd" d="M1257.55 34.7851C1258.17 35.5706 1258.9 36.2626 1259.72 36.8392C1261.39 37.9912 1262.99 38.2266 1264.25 37.6701L1243.85 46.6565C1242.57 47.2237 1240.98 46.9801 1239.32 45.8337C1238.5 45.2557 1237.77 44.5618 1237.15 43.7739L1257.55 34.7851Z" fill="#3BD093"/>
<path d="M1170.99 164.007C1178.38 166.672 1186.55 162.909 1189.23 155.601C1191.91 148.294 1188.1 140.209 1180.71 137.544C1173.32 134.878 1165.16 138.642 1162.47 145.949C1159.79 153.257 1163.6 161.342 1170.99 164.007Z" fill="#FAA166"/>
<path fill-rule="evenodd" clip-rule="evenodd" d="M1187.14 142.204C1190.11 147.533 1187.33 154.482 1180.62 157.742C1173.9 161.003 1165.37 159.182 1162.44 153.324C1162.06 152.553 1161.79 151.735 1161.63 150.893C1161.65 157.052 1165.71 162.489 1171.66 164.322C1177.6 166.156 1184.05 163.96 1187.6 158.901C1191.14 153.842 1190.95 147.088 1187.13 142.22L1187.14 142.204Z" fill="#F0833B"/>
<path fill-rule="evenodd" clip-rule="evenodd" d="M1175.03 144.611C1173.03 145.691 1170.72 145.335 1169.88 143.816C1169.04 142.296 1169.98 140.188 1171.98 139.108C1173.99 138.027 1176.29 138.382 1177.13 139.903C1177.97 141.422 1177.03 143.53 1175.03 144.611Z" fill="#FFCAA7"/>
<path fill-rule="evenodd" clip-rule="evenodd" d="M683.243 336.317L688.964 338.055C687.688 337.786 686.36 338.236 685.49 339.232C684.249 340.535 683.329 342.105 682.801 343.82C682.273 345.536 682.152 347.349 682.448 349.118C682.601 350.415 683.432 351.52 684.625 352.012L678.904 350.274C677.709 349.786 676.876 348.679 676.727 347.381C676.432 345.609 676.553 343.794 677.081 342.077C677.61 340.36 678.531 338.788 679.773 337.484C680.644 336.493 681.971 336.047 683.243 336.317Z" fill="#F76D84"/>
<path fill-rule="evenodd" clip-rule="evenodd" d="M685.504 328.763L691.353 330.539C693.522 331.197 695.258 333.262 696.05 336.568C697.644 343.223 694.811 352.429 689.734 357.092C687.181 359.435 684.542 360.193 682.342 359.526L676.493 357.749C678.693 358.417 681.329 357.669 683.885 355.315C688.962 350.652 691.795 341.447 690.198 334.801C689.406 331.496 687.669 329.431 685.504 328.763Z" fill="#FF879B"/>
<path fill-rule="evenodd" clip-rule="evenodd" d="M682.491 346.644L675.764 344.601L675.067 351.047L684.496 352.097C682.927 350.791 682.165 348.718 682.49 346.644L682.491 346.644Z" fill="url(#paint0_linear_9_325)"/>
<path d="M678.336 331.132C683.39 326.461 688.781 328.066 690.352 334.715C691.923 341.366 689.094 350.561 684.038 355.231C678.983 359.902 673.549 358.296 672.019 351.659C670.489 345.021 673.281 335.803 678.335 331.132L678.336 331.132ZM682.547 348.938C683.794 347.657 684.718 346.101 685.243 344.397C685.767 342.693 685.877 340.89 685.564 339.135C684.82 335.966 682.243 335.195 679.836 337.395C678.588 338.678 677.664 340.236 677.139 341.941C676.614 343.647 676.503 345.452 676.816 347.208C677.57 350.38 680.15 351.141 682.544 348.948L682.547 348.938Z" fill="#FFC7D3"/>
<path fill-rule="evenodd" clip-rule="evenodd" d="M1258.9 342.995L1251.99 356.356L1236.83 357.233L1243.74 343.872L1258.9 342.995Z" fill="#ADFBF9"/>
<path fill-rule="evenodd" clip-rule="evenodd" d="M1259.02 342.852L1288.55 388.107L1281.82 401.362L1252.29 356.106L1259.02 342.852Z" fill="#73DAD6"/>
<path fill-rule="evenodd" clip-rule="evenodd" d="M1252.25 356.177L1281.79 401.431L1266.87 402.144L1237.33 356.89L1252.25 356.177Z" fill="#8BEAE7"/>
<path fill-rule="evenodd" clip-rule="evenodd" d="M972.626 368.519L980.279 367.043L974.012 364.665L966.36 366.142L972.626 368.519Z" fill="#FDDEFF"/>
<path fill-rule="evenodd" clip-rule="evenodd" d="M953.41 405.172L958.48 410.999L972.627 368.518L966.36 366.14L953.41 405.172Z" fill="#F2B1F6"/>
<path fill-rule="evenodd" clip-rule="evenodd" d="M958.481 411L966.126 409.523L980.279 367.043L972.627 368.519L958.481 411Z" fill="#FCCDFF"/>
<path fill-rule="evenodd" clip-rule="evenodd" d="M190.031 32.9779C188.018 30.1092 182.547 30.4967 177.812 33.8442C173.077 37.1909 170.871 42.2306 172.884 45.0993C174.898 47.9681 180.368 47.5805 185.103 44.2331C189.838 40.8863 192.044 35.8467 190.031 32.9779Z" fill="#C9C9FF"/>
<path fill-rule="evenodd" clip-rule="evenodd" d="M157.832 18.1796C156.857 20.3936 156.948 22.3307 157.88 23.6674L172.883 45.0957C171.941 43.7459 171.838 41.806 172.833 39.6073C174.783 35.2203 180.224 31.3969 184.98 31.0734C187.352 30.9161 189.104 31.6467 190.027 32.9701L175.031 11.5487C174.088 10.1989 172.351 9.48709 169.986 9.64016C165.25 9.93935 159.784 13.7801 157.833 18.1789L157.832 18.1796Z" fill="#8D8DFF"/>
<path fill-rule="evenodd" clip-rule="evenodd" d="M181.565 31.8436C182.66 31.4226 183.811 31.1632 184.98 31.0734C187.352 30.9161 189.104 31.6467 190.027 32.9701L175.031 11.5487C174.088 10.1989 172.351 9.48709 169.986 9.64016C168.808 9.73061 167.656 9.99154 166.564 10.4153L181.566 31.8436L181.565 31.8436Z" fill="#5971EA"/>
<path d="M9.31873 161.541C4.21931 164.616 2.54771 171.223 5.58511 176.297C8.62251 181.371 15.2187 182.992 20.3181 179.916C25.4176 176.84 27.0892 170.234 24.0518 165.159C21.0144 160.085 14.4182 158.465 9.31873 161.541Z" fill="#FFD036"/>
<path fill-rule="evenodd" clip-rule="evenodd" d="M14.5005 181.468C9.93322 180.67 7.1539 175.711 8.43095 170.198C9.70801 164.686 14.8517 160.536 19.7106 161.612C20.346 161.758 20.9593 161.988 21.5346 162.295C17.8854 159.364 12.7365 159.155 8.81786 161.778C4.89872 164.401 3.11655 169.25 4.41575 173.755C5.71495 178.261 9.79516 181.378 14.4938 181.457L14.5005 181.468Z" fill="#FFC20C"/>
<path fill-rule="evenodd" clip-rule="evenodd" d="M18.8482 173.205C19.164 171.511 20.4728 170.325 21.7715 170.558C23.0703 170.79 23.8668 172.352 23.5513 174.046C23.2358 175.741 21.9264 176.926 20.6281 176.694C19.3292 176.462 18.5327 174.9 18.8482 173.205Z" fill="#F9E4AA"/>
<path fill-rule="evenodd" clip-rule="evenodd" d="M342.417 327.75L327.341 312.707L320.124 318.713L321.157 328.065L342.417 327.75Z" fill="#1C9FE6"/>
<path fill-rule="evenodd" clip-rule="evenodd" d="M327.341 312.706L320.124 318.713L342.417 327.75L327.341 312.706Z" fill="#4FC9FF"/>
<path fill-rule="evenodd" clip-rule="evenodd" d="M100.651 408.517L94.1254 404.583C95.6163 405.312 97.395 405.164 98.7749 404.195C100.708 402.96 102.328 401.291 103.508 399.32C104.688 397.349 105.396 395.13 105.576 392.838C105.787 391.177 105.101 389.544 103.78 388.564L110.306 392.499C111.632 393.476 112.319 395.111 112.102 396.772C111.921 399.067 111.212 401.288 110.031 403.26C108.85 405.233 107.229 406.904 105.295 408.142C103.913 409.105 102.14 409.248 100.651 408.517Z" fill="#DD6E0A"/>
<path fill-rule="evenodd" clip-rule="evenodd" d="M95.3431 417.62L88.677 413.601C86.2049 412.111 84.7036 409 84.7507 404.635C84.8499 395.842 91.2019 385.235 98.913 380.985C102.791 378.849 106.282 378.716 108.79 380.228L115.455 384.247C112.948 382.735 109.464 382.855 105.579 385.003C97.868 389.254 91.516 399.861 91.4238 408.642C91.3766 413.007 92.8779 416.118 95.3431 417.62L95.3431 417.62Z" fill="#EA7F13"/>
<path fill-rule="evenodd" clip-rule="evenodd" d="M104.965 396.111L112.661 400.751L115.318 393.253L104.023 388.924C105.586 391.001 105.944 393.732 104.964 396.111L104.965 396.111Z" fill="url(#paint1_radial_9_325)"/>
<path d="M105.232 416.557C97.5864 420.849 91.4993 417.227 91.665 408.474C91.8307 399.721 98.1765 389.124 105.822 384.833C113.467 380.542 119.607 384.18 119.395 392.905C119.183 401.63 112.877 412.266 105.232 416.557ZM105.67 393.118C103.741 394.34 102.125 395.998 100.95 397.959C99.7753 399.921 99.075 402.131 98.9053 404.414C98.8214 408.584 101.729 410.321 105.363 408.307C109.274 405.83 111.791 401.628 112.134 397C112.206 392.823 109.292 391.098 105.677 393.106L105.67 393.118Z" fill="#FFAA4D"/>
<path fill-rule="evenodd" clip-rule="evenodd" d="M446.566 85.8417L447.18 95.2871L455.706 99.4389L455.092 89.9935L446.566 85.8417Z" fill="#FFB0C1"/>
<path fill-rule="evenodd" clip-rule="evenodd" d="M446.478 86.0379L418.361 105.097L418.935 114.391L447.051 95.3316L446.478 86.0379Z" fill="#FF879B"/>
<path fill-rule="evenodd" clip-rule="evenodd" d="M447.23 95.5036L419.114 114.562L427.487 118.577L455.603 99.519L447.23 95.5036Z" fill="#FFC7D3"/>
<path fill-rule="evenodd" clip-rule="evenodd" d="M568.562 44.4229L581.912 40.3992L592.222 49.9037L578.881 53.9233L568.562 44.4229Z" fill="#1FB1FF"/>
<path fill-rule="evenodd" clip-rule="evenodd" d="M568.643 44.3304L577.938 4.10799L591.304 2.28882e-05L582.008 40.2225L568.643 44.3304Z" fill="#008AD1"/>
<path fill-rule="evenodd" clip-rule="evenodd" d="M581.94 40.4323L591.235 0.209846L601.453 9.78049L592.158 50.0029L581.94 40.4323Z" fill="#73D4FF"/>
<defs>
<linearGradient id="paint0_linear_9_325" x1="960.393" y1="964.17" x2="1510.78" y2="-314.608" gradientUnits="userSpaceOnUse">
<stop stop-color="#B4132E"/>
<stop offset="0.3088" stop-color="#C8324B"/>
<stop offset="1" stop-color="#F76D84" stop-opacity="0"/>
</linearGradient>
<radialGradient id="paint1_radial_9_325" cx="0" cy="0" r="1" gradientUnits="userSpaceOnUse" gradientTransform="translate(-828.019 892.592) rotate(120.915) scale(902.75 901.374)">
<stop stop-color="#D96700" stop-opacity="0.6"/>
<stop offset="0.16" stop-color="#CD6101" stop-opacity="0.53"/>
<stop offset="0.47" stop-color="#AC5302" stop-opacity="0.36"/>
<stop offset="0.89" stop-color="#783B04" stop-opacity="0.08"/>
<stop offset="1" stop-color="#693405" stop-opacity="0"/>
</radialGradient>
</defs>
</svg>
