<svg width="1685" height="1217" viewBox="0 0 1685 1217" fill="none" xmlns="http://www.w3.org/2000/svg">
<rect width="1440" height="750" transform="translate(174 213)" fill="white"/>
<g clip-path="url(#clip0_2_141)">
<path d="M398 187C363.736 211.943 331.675 238.345 302 266.057L288.56 278.666L287.856 278.891C252.635 310.745 214.608 341.007 174 369.497L174 187H398Z" fill="#12A7B3"/>
<path d="M643.568 187C560.667 230.487 485.584 283.59 418.32 346.31L404.816 358.918L404.144 359.167C337.306 419.907 259.997 474.543 174 521.815L174 340.22C206.325 316.367 236.649 291.205 264.816 264.862L278.32 252.253L278.992 252.005C304.144 229.299 330.373 207.631 357.68 187H643.568Z" fill="#1BAEB9"/>
<path d="M955.28 187C792.08 237.57 651.28 317.822 534.576 426.585L521.072 439.171L520.4 439.419C420.976 529.19 304.592 602.767 174 658.411V494.635C252.032 451.415 321.654 401.143 381.072 345.114L394.576 332.506L395.248 332.28C454.051 278.906 520.907 230.193 594.64 187L955.28 187Z" fill="#24B4C0"/>
<path d="M1614 187V209.871C1589.55 207.3 1453.1 194.962 1278.77 220.675C1025.58 258.027 814.32 354.295 650.8 506.838L637.296 519.446L636.592 519.672C533.008 613.3 410.96 689.222 273.584 745.611C241.2 758.919 208.005 771.121 174 782.219V630.172C296.464 580.346 404.592 511.913 497.2 425.367L510.704 412.781L511.408 412.533C614.928 319.176 736.656 243.389 873.648 187H1614Z" fill="#2EBBC6"/>
<path d="M1614 187V284.936C1540.43 284.988 1467.07 290.354 1395.06 300.951C1141.84 338.28 930.576 434.547 767.12 587.09L753.616 599.767L752.944 600.015C649.296 693.598 527.216 769.565 389.84 825.931C321.303 854.026 249.007 877.295 174 895.402L174 750.889C345.168 700.725 492.496 618.601 613.616 505.597L627.12 492.989L627.792 492.741C731.44 399.203 853.488 323.236 990.864 266.869C1073.27 233.07 1161.06 206.261 1252.4 187L1614 187Z" fill="#37C1CC"/>
<path d="M1614 233.667V369.7C1581.84 372.181 1547.41 375.857 1511.31 381.18C1258.13 418.532 1046.86 514.822 883.376 667.433L869.872 680.019L869.2 680.267C765.552 773.85 643.504 849.817 506.128 906.206C402.532 948.612 290.613 979.995 174 999.338V859.606C395.408 815.623 582.16 723.822 729.872 585.895L743.376 573.286L744.048 573.06C847.696 479.455 969.776 403.533 1107.15 347.144C1223.13 299.657 1349.42 265.974 1480.94 247.448C1524.92 241.197 1569.33 236.597 1614 233.667Z" fill="#40C8D3"/>
<path d="M1614 325.401V463.532C1366.83 502.282 1160.18 597.805 999.6 747.732L986.096 760.34L985.392 760.566C881.744 854.171 759.696 930.116 622.32 986.505C506.351 1033.94 380.083 1067.58 248.592 1086.06C222.992 1089.72 198.032 1092.67 174 1095.09V958.152C188.443 956.468 203.184 954.521 218.224 952.311C471.408 914.981 682.8 818.691 846 666.148L859.504 653.562L860.208 653.314C963.856 559.731 1085.9 483.764 1223.28 427.375C1339.3 379.896 1465.64 346.221 1597.2 327.702C1602.83 326.89 1608.43 326.123 1614 325.401Z" fill="#49CFD9"/>
<path d="M1614 425.119V566.926C1417.71 614.721 1250.58 702.259 1115.92 827.871L1102.42 840.48L1101.74 840.728C998.096 934.311 876.016 1010.28 738.64 1066.67C622.667 1114.15 496.373 1147.82 364.848 1166.32C301.921 1175.26 238.122 1180.83 174 1182.96L174 1047.43C227.946 1045.32 281.591 1040.35 334.48 1032.56C587.664 995.233 798.928 898.966 962.416 746.378L975.92 733.769L976.592 733.521C1080.24 639.938 1202.29 563.971 1339.66 507.605C1425.94 472.248 1518.08 444.543 1614 425.119Z" fill="#52D5DF"/>
<path d="M1614 533.52V681.327C1467.28 732.19 1339.44 808.067 1232.18 908.146L1218.67 920.732L1218 920.98C1114.35 1014.56 992.304 1090.53 854.928 1146.92C803.386 1168.05 749.692 1186.46 694.288 1202H174V1127.57C266.769 1131.17 359.808 1126.18 450.736 1112.72C703.92 1075.4 915.184 979.128 1078.67 826.585L1092.18 813.976L1092.85 813.751C1196.5 720.145 1318.58 644.201 1455.95 587.812C1506.68 567.02 1559.51 548.875 1614 533.52Z" fill="#5BDCE6"/>
<path d="M1614 651.78V808.993C1515.06 855.833 1426.52 915.635 1348.4 988.399L1334.9 1001.01L1334.19 1001.23C1245.23 1081.58 1142.74 1148.9 1028.59 1201.98H494C517.36 1199.72 541.776 1196.79 566.96 1193.07C820.208 1155.76 1031.6 1059.47 1194.8 906.929L1208.3 894.343L1209.01 894.095C1312.78 800.512 1434.8 724.545 1572.21 668.156C1586.01 662.502 1599.94 657.043 1614 651.78Z" fill="#64E2EC"/>
<path d="M1614 781.61V953.258C1559.15 988.289 1509.16 1026.93 1464.72 1068.65L1451.22 1081.26L1450.54 1081.51C1402.7 1124.84 1349.61 1165.15 1291.86 1202H962.512C1095.44 1151.48 1212.11 1079.68 1311.31 987.204L1324.82 974.596L1325.49 974.348C1409.9 898.042 1506.67 833.42 1614 781.61Z" fill="#6EE9F2"/>
<path d="M1614 925.581V1119.42C1602.8 1129.02 1591.79 1138.85 1580.98 1148.93L1567.47 1161.51L1566.8 1161.76C1551.55 1175.56 1535.86 1188.98 1519.73 1202H1246.8C1314.14 1162.18 1374.76 1117.04 1427.47 1067.46L1440.98 1054.85L1441.65 1054.62C1493.21 1007.88 1550.91 964.673 1614 925.581Z" fill="#77EFF9"/>
<path d="M1614 1087.42V1202H1480.56C1502.32 1184.77 1523.38 1166.67 1543.73 1147.71L1557.23 1135.12L1557.94 1134.87C1576.11 1118.53 1594.8 1102.71 1614 1087.42Z" fill="#80F6FF"/>
</g>
<g style="mix-blend-mode:plus-darker" filter="url(#filter0_d_2_141)">
<rect x="174" y="63" width="1440" height="1139" fill="white"/>
<rect x="174" y="63" width="1440" height="1139" fill="url(#paint0_linear_2_141)"/>
</g>
<path d="M1596 178.966C1595.97 179.044 1594.29 178.495 1591.11 177.934C1587.95 177.382 1583.21 176.894 1577.47 177.516C1571.76 178.123 1565 179.95 1559.08 183.827C1553.18 187.633 1548.12 193.394 1546.1 200.227C1546.08 200.289 1546.06 200.352 1546.04 200.409L1545.67 201.581L1545.1 200.47C1541.8 193.977 1535.93 188.817 1529.56 185.537C1523.18 182.196 1516.31 180.813 1510.58 180.501C1504.82 180.181 1500.14 180.84 1497.03 181.489C1493.9 182.147 1492.24 182.725 1492.21 182.65C1492.19 182.625 1492.6 182.471 1493.38 182.198C1494.17 181.921 1495.36 181.561 1496.92 181.194C1500.04 180.448 1504.76 179.692 1510.63 179.945C1516.45 180.19 1523.5 181.542 1530.05 184.926C1536.59 188.247 1542.63 193.512 1546.02 200.174L1545.07 200.235C1545.09 200.175 1545.11 200.112 1545.13 200.048C1547.21 193.021 1552.42 187.13 1558.5 183.262C1564.6 179.318 1571.56 177.508 1577.37 176.962C1583.24 176.401 1588.04 176.986 1591.2 177.635C1592.79 177.953 1594 178.282 1594.8 178.541C1595.6 178.795 1596.01 178.94 1596 178.966Z" fill="#263238"/>
<path d="M1596 283.275C1595.97 283.341 1595.03 283.061 1593.29 282.775C1591.56 282.493 1588.96 282.247 1585.83 282.602C1582.71 282.95 1579.04 283.958 1575.82 286.075C1572.61 288.155 1569.87 291.294 1568.77 295.009L1568.74 295.108L1568.36 296.28L1567.79 295.168C1566 291.635 1562.81 288.821 1559.34 287.026C1555.87 285.199 1552.14 284.431 1549.01 284.245C1545.86 284.053 1543.3 284.394 1541.58 284.729C1539.86 285.068 1538.94 285.365 1538.91 285.302C1538.9 285.277 1539.11 285.18 1539.54 285.02C1539.97 284.857 1540.62 284.648 1541.48 284.435C1543.19 284.002 1545.8 283.566 1549.05 283.689C1552.28 283.808 1556.19 284.546 1559.84 286.417C1563.47 288.253 1566.83 291.173 1568.71 294.874L1567.77 294.935L1567.8 294.831C1568.96 290.923 1571.86 287.653 1575.24 285.511C1578.64 283.327 1582.51 282.335 1585.73 282.049C1588.98 281.754 1591.63 282.097 1593.38 282.477C1594.25 282.663 1594.92 282.855 1595.35 283.008C1595.79 283.159 1596.01 283.251 1596 283.275Z" fill="#263238"/>
<path fill-rule="evenodd" clip-rule="evenodd" d="M350.729 256.525C365.472 261.402 381.193 266.603 398 272C474.042 296.419 547.423 275.506 627.579 252.662C734.524 222.183 853.527 188.267 1007 254C1119.27 302.085 1619.5 401.5 1664.5 254C1698.73 141.798 1681.43 53.2537 1666.75 7.71232C1665.44 3.65997 1661.65 1 1657.39 1H359H10.5797C3.8398 1 -0.970072 7.53166 1.03023 13.9679L87.9448 293.626C90.3172 301.259 100.243 303.161 105.27 296.946L140 254C185.404 201.836 240.914 220.199 350.729 256.525ZM1553.09 310.466C1553.35 304.919 1549.28 299.018 1540.52 296.391C1520.35 290.347 1512.63 308.422 1519.52 318.495C1522.64 323.049 1528.73 323.527 1535.07 322.659C1542.96 321.579 1552.71 318.42 1553.09 310.466Z" fill="#F9F9FB"/>
<path d="M398 272L398.153 271.524L398.153 271.524L398 272ZM350.729 256.525L350.572 257L350.572 257L350.729 256.525ZM627.579 252.662L627.442 252.181L627.442 252.181L627.579 252.662ZM1007 254L1006.8 254.46L1006.8 254.46L1007 254ZM1664.5 254L1664.98 254.146L1664.98 254.146L1664.5 254ZM1666.75 7.71232L1666.27 7.86571L1666.27 7.86571L1666.75 7.71232ZM1.03023 13.9679L0.552757 14.1163L0.552757 14.1163L1.03023 13.9679ZM87.9448 293.626L87.4673 293.774L87.4673 293.774L87.9448 293.626ZM105.27 296.946L105.659 297.26L105.659 297.26L105.27 296.946ZM140 254L139.623 253.672L139.617 253.679L139.611 253.686L140 254ZM1540.52 296.391L1540.66 295.912L1540.66 295.912L1540.52 296.391ZM1553.09 310.466L1552.59 310.442L1552.59 310.442L1553.09 310.466ZM1519.52 318.495L1519.11 318.777L1519.11 318.777L1519.52 318.495ZM1535.07 322.659L1535.14 323.154L1535.14 323.154L1535.07 322.659ZM398.153 271.524C381.348 266.128 365.629 260.928 350.886 256.051L350.572 257C365.314 261.877 381.038 267.078 397.847 272.476L398.153 271.524ZM627.442 252.181C547.258 275.033 474.027 295.889 398.153 271.524L397.847 272.476C474.058 296.949 547.589 275.979 627.716 253.143L627.442 252.181ZM1007.2 253.54C853.55 187.733 734.394 221.7 627.442 252.181L627.716 253.143C734.653 222.666 853.504 188.801 1006.8 254.46L1007.2 253.54ZM1664.02 253.854C1652.86 290.44 1613.43 311.832 1558.47 322.498C1503.56 333.155 1433.36 333.058 1361.02 326.846C1216.33 314.422 1063.26 277.554 1007.2 253.54L1006.8 254.46C1063 278.531 1216.19 315.413 1360.93 327.843C1433.31 334.058 1503.62 334.163 1558.66 323.479C1613.67 312.803 1653.64 291.31 1664.98 254.146L1664.02 253.854ZM1666.27 7.86571C1680.93 53.336 1698.22 141.773 1664.02 253.854L1664.98 254.146C1699.25 141.822 1681.92 53.1714 1667.22 7.55893L1666.27 7.86571ZM1657.39 1.5C1661.44 1.5 1665.03 4.02805 1666.27 7.86571L1667.22 7.55893C1665.85 3.29189 1661.85 0.5 1657.39 0.5V1.5ZM359 1.5H1657.39V0.5H359V1.5ZM10.5797 1.5H359V0.5H10.5797V1.5ZM1.5077 13.8195C-0.392585 7.70508 4.17679 1.5 10.5797 1.5V0.5C3.5028 0.5 -1.54756 7.35824 0.552757 14.1163L1.5077 13.8195ZM88.4223 293.477L1.5077 13.8195L0.552757 14.1163L87.4673 293.774L88.4223 293.477ZM104.881 296.631C100.106 302.536 90.676 300.729 88.4223 293.477L87.4673 293.774C89.9583 301.789 100.381 303.786 105.659 297.26L104.881 296.631ZM139.611 253.686L104.881 296.631L105.659 297.26L140.389 254.314L139.611 253.686ZM350.886 256.051C296.003 237.896 254.604 224.197 221.25 221.58C204.558 220.271 189.853 221.733 176.461 226.812C163.067 231.892 151.019 240.579 139.623 253.672L140.377 254.328C151.684 241.339 163.601 232.76 176.816 227.747C190.034 222.734 204.583 221.276 221.171 222.577C254.376 225.182 295.639 238.828 350.572 257L350.886 256.051ZM1540.37 296.87C1548.98 299.451 1552.84 305.188 1552.59 310.442L1553.59 310.489C1553.86 304.651 1549.58 298.585 1540.66 295.912L1540.37 296.87ZM1519.94 318.213C1516.62 313.358 1516.81 306.55 1520.28 301.69C1523.72 296.872 1530.46 293.898 1540.37 296.87L1540.66 295.912C1530.41 292.84 1523.2 295.882 1519.47 301.108C1515.76 306.293 1515.54 313.559 1519.11 318.777L1519.94 318.213ZM1535 322.163C1528.66 323.032 1522.87 322.501 1519.94 318.213L1519.11 318.777C1522.41 323.598 1528.79 324.023 1535.14 323.154L1535 322.163ZM1552.59 310.442C1552.41 314.18 1550.04 316.83 1546.66 318.703C1543.26 320.579 1538.92 321.627 1535 322.163L1535.14 323.154C1539.11 322.611 1543.59 321.54 1547.14 319.578C1550.69 317.612 1553.39 314.705 1553.59 310.489L1552.59 310.442Z" fill="#F9FAFB"/>
<defs>
<filter id="filter0_d_2_141" x="162" y="54" width="1464" height="1163" filterUnits="userSpaceOnUse" color-interpolation-filters="sRGB">
<feFlood flood-opacity="0" result="BackgroundImageFix"/>
<feColorMatrix in="SourceAlpha" type="matrix" values="0 0 0 0 0 0 0 0 0 0 0 0 0 0 0 0 0 0 127 0" result="hardAlpha"/>
<feOffset dy="3"/>
<feGaussianBlur stdDeviation="6"/>
<feComposite in2="hardAlpha" operator="out"/>
<feColorMatrix type="matrix" values="0 0 0 0 0 0 0 0 0 0 0 0 0 0 0 0 0 0 0.05 0"/>
<feBlend mode="normal" in2="BackgroundImageFix" result="effect1_dropShadow_2_141"/>
<feBlend mode="normal" in="SourceGraphic" in2="effect1_dropShadow_2_141" result="shape"/>
</filter>
<linearGradient id="paint0_linear_2_141" x1="1580.07" y1="1080.47" x2="372.619" y2="-406.826" gradientUnits="userSpaceOnUse">
<stop stop-color="#125B54"/>
<stop offset="1" stop-color="#12ADB7"/>
</linearGradient>
<clipPath id="clip0_2_141">
<rect width="1440" height="1015" fill="white" transform="translate(174 187)"/>
</clipPath>
</defs>
</svg>
