<svg width="1440" height="491" viewBox="0 0 1440 491" fill="none" xmlns="http://www.w3.org/2000/svg">
<g clip-path="url(#clip0_4646_230291)">
<path d="M2057.5 410C2057.5 410 1350 384.5 871 417C392 449.5 -225.5 451 -148.5 486.5C272.21 437.8 1707 567 2057.5 410Z" fill="#F4F7FA"/>
<path d="M1449.44 278V423.13H1247.84L1246.78 422.7C1238.88 419.05 1233.65 412.09 1237.06 406.11C1243.56 394.76 1257.7 401.11 1268.26 397.98C1290.87 391.16 1295.36 366.34 1305.99 352.38C1326.32 325.64 1365.51 301.76 1402.61 288.82C1417.87 283.819 1433.54 280.198 1449.44 278Z" fill="#FAFFFE"/>
<g opacity="0.6">
<path d="M966.22 167.72C965.007 165.727 963.239 164.131 961.132 163.127C959.026 162.124 956.672 161.756 954.36 162.07C945.86 162.88 946.87 169.36 942.82 168.75C938.77 168.14 933.1 168.75 931.89 172.8C930.68 176.85 925.21 174.62 925.01 178.06C924.81 181.5 931.28 183.93 938.77 180.9C946.26 177.87 949.9 183.25 960.43 182.28C970.96 181.31 972.26 180.09 978.49 180.69C984.72 181.29 984.57 177.03 981.74 174.2C978.91 171.37 967.43 171.64 966.22 167.72Z" fill="#E7EDF1"/>
</g>
<g opacity="0.6">
<path d="M1229.48 101.45C1229.48 101.45 1225.02 92.8799 1213.75 93.9499C1202.48 95.0199 1203.82 103.61 1198.46 102.81C1193.1 102.01 1185.58 102.81 1183.97 108.18C1182.36 113.55 1175.11 110.59 1174.85 115.18C1174.59 119.77 1183.16 122.96 1193.09 118.94C1203.02 114.92 1207.85 122.07 1221.8 120.77C1235.75 119.47 1237.48 117.87 1245.74 118.67C1254 119.47 1253.8 113.82 1250.05 110.06C1246.3 106.3 1231.08 106.64 1229.48 101.45Z" fill="#E7EDF1"/>
</g>
<path d="M900.5 361C1043 352 553 349.21 553 328.5C553 307.79 353.38 355 135.5 355C-82.3802 355 4.99986 351.79 4.99986 372.5C4.99986 393.21 682.63 361 900.5 361Z" fill="#F0F3F6"/>
<path d="M723 373.5C430.559 423.778 145.834 387.934 -151 435V312.94C-131.48 306.94 -110.2 304 -89.08 301.35C-70.08 298.98 -50.67 296.78 -31.62 298.78C5.53999 302.67 34.94 321.55 69.38 331.78C89.4599 337.627 110.276 340.557 131.19 340.48C169.3 340.48 207.99 330.8 244.78 337.69C269.58 342.37 290.1 354.05 313.86 360.69C333.741 366.107 354.416 367.998 374.95 366.28C389.9 365.06 404.88 361.93 419.76 363.5C437.95 365.41 696 365 723 373.5Z" fill="#F4F7FA"/>
<path d="M2236 414C2236 442.17 1955.24 433.5 1583 433.5C1213 475 751.5 443.5 737 425.5C1187 398.5 1189.76 363 1562 363C1934.24 363 2236 385.83 2236 414Z" fill="#F0F3F6"/>
<g opacity="0.4">
<path d="M523.69 195.87C523.69 195.87 518.37 186.65 508.63 188.17C498.89 189.69 508.41 193.84 495.63 195.87C482.85 197.9 480.05 202.23 485.89 205.69C491.73 209.15 501.25 199.42 511.64 204.18C522.03 208.94 535.95 204.87 523.69 195.87Z" fill="#E7EDF1"/>
</g>
<g opacity="0.6">
<path d="M376.639 101.45C376.639 101.45 372.189 92.8804 360.949 94.0004C349.709 95.1204 351.019 103.66 345.649 102.86C340.279 102.06 332.769 102.86 331.159 108.23C329.549 113.6 322.309 110.64 322.039 115.23C321.769 119.82 330.359 123.01 340.279 118.99C350.199 114.97 355.009 122 368.949 120.74C382.889 119.48 384.629 117.84 392.889 118.64C401.149 119.44 400.949 113.79 397.189 110.03C393.429 106.27 378.249 106.64 376.639 101.45Z" fill="#E7EDF1"/>
</g>
<g opacity="0.6">
<path d="M774.64 251.59C774.64 251.59 770.19 243.02 758.92 244.09C747.65 245.16 748.99 253.75 743.62 252.95C738.25 252.15 730.74 252.95 729.13 258.31C727.52 263.67 720.28 260.73 720.01 265.31C719.74 269.89 728.33 273.09 738.25 269.07C748.17 265.05 753.01 272.19 766.97 270.9C780.93 269.61 782.65 268 790.95 268.78C799.25 269.56 799.01 263.93 795.25 260.17C791.49 256.41 776.25 256.77 774.64 251.59Z" fill="#E7EDF1"/>
</g>
<g opacity="0.4">
<path d="M663.69 151.87C663.69 151.87 658.37 142.65 648.63 144.17C638.89 145.69 648.41 149.84 635.63 151.87C622.85 153.9 620.05 158.23 625.89 161.69C631.73 165.15 641.25 155.42 651.64 160.18C662.03 164.94 675.95 160.87 663.69 151.87Z" fill="#E7EDF1"/>
</g>
<path d="M850.76 150.67H841.57V191.15H850.76V150.67Z" fill="#F1F2F6"/>
<path d="M846.16 131.21L852.16 141.66L858.16 152.11H834.1L840.1 141.66L846.16 131.21Z" fill="#F1F2F6"/>
<path d="M64 166H57V197H64V166Z" fill="#E9F1EE"/>
<path d="M60.0262 151L64.5131 159L69 167H51L55.4869 159L60.0262 151Z" fill="#E9F1EE"/>
<path d="M158.8 22.8096H148.04V70.2496H158.8V22.8096Z" fill="#F1F2F6"/>
<path d="M153.42 0L160.49 12.24L167.56 24.49H139.28L146.35 12.24L153.42 0Z" fill="#F1F2F6"/>
<path d="M1130.66 180.46H1121.47V221H1130.66V180.46Z" fill="#F1F2F6"/>
<path d="M1126.07 161L1132.07 171.45L1138.07 181.9H1113.94L1119.94 171.45L1126.07 161Z" fill="#F1F2F6"/>
<path d="M650.66 277.46H641.48V318H650.66V277.46Z" fill="#F1F2F6"/>
<path d="M646.07 258L652.07 268.45L658.07 278.9H634L640 268.45L646.07 258Z" fill="#F1F2F6"/>
</g>
<defs>
<clipPath id="clip0_4646_230291">
<rect width="1440" height="491" fill="white"/>
</clipPath>
</defs>
</svg>
