<?xml version="1.0" standalone="no"?>
<!DOCTYPE svg PUBLIC "-//W3C//DTD SVG 20010904//EN"
 "http://www.w3.org/TR/2001/REC-SVG-20010904/DTD/svg10.dtd">
<svg version="1.0" xmlns="http://www.w3.org/2000/svg"
 width="401.000000pt" height="401.000000pt" viewBox="0 0 401.000000 401.000000"
 preserveAspectRatio="xMidYMid meet">

<g transform="translate(0.000000,401.000000) scale(0.100000,-0.100000)"
fill="#000000" stroke="none">
<path d="M1222 3363 c-11 -10 -34 -54 -50 -98 -17 -44 -42 -107 -57 -140 -40
-93 -40 -93 -90 -220 -27 -66 -55 -136 -63 -155 -28 -68 -30 -75 -35 -98 -4
-15 1 -30 14 -43 18 -18 36 -19 319 -19 l300 0 16 25 c16 24 15 29 -16 108
-32 80 -90 223 -115 282 -7 17 -32 77 -55 135 -23 58 -48 119 -56 137 -8 17
-14 34 -14 38 0 4 -9 20 -21 36 -23 33 -48 37 -77 12z"/>
</g>
</svg>
