<svg width="319" height="317" viewBox="0 0 319 317" fill="none" xmlns="http://www.w3.org/2000/svg">
<ellipse cx="114.088" cy="294.47" rx="55.0428" ry="10.8204" fill="#FFD3F8"/>
<ellipse cx="129.142" cy="305.761" rx="55.0428" ry="10.8204" fill="#FFD3F8"/>
<ellipse cx="147.961" cy="295.41" rx="55.0428" ry="10.8204" fill="#FFD3F8"/>
<path fill-rule="evenodd" clip-rule="evenodd" d="M124.736 222.685L225.271 161.42C228.282 159.584 232.023 162.262 231.256 165.705L207.261 273.459C207.261 273.459 193.372 253.41 171.608 240.019C149.843 226.629 124.736 222.685 124.736 222.685Z" fill="url(#paint0_linear_48_7463)"/>
<path fill-rule="evenodd" clip-rule="evenodd" d="M124.736 222.685L225.271 161.42C228.282 159.584 232.023 162.262 231.256 165.705L207.261 273.459C207.261 273.459 193.372 253.41 171.608 240.019C149.843 226.629 124.736 222.685 124.736 222.685Z" fill="url(#paint1_linear_48_7463)" style="mix-blend-mode:overlay"/>
<mask id="mask0_48_7463" style="mask-type:luminance" maskUnits="userSpaceOnUse" x="124" y="160" width="108" height="114">
<path fill-rule="evenodd" clip-rule="evenodd" d="M124.736 222.685L225.271 161.42C228.282 159.584 232.023 162.262 231.256 165.705L207.261 273.459C207.261 273.459 193.372 253.41 171.608 240.019C149.843 226.629 124.736 222.685 124.736 222.685Z" fill="white"/>
<path fill-rule="evenodd" clip-rule="evenodd" d="M124.736 222.685L225.271 161.42C228.282 159.584 232.023 162.262 231.256 165.705L207.261 273.459C207.261 273.459 193.372 253.41 171.608 240.019C149.843 226.629 124.736 222.685 124.736 222.685Z" stroke="white"/>
</mask>
<g mask="url(#mask0_48_7463)">
<g style="mix-blend-mode:soft-light">
<path d="M166.307 196.144C166.307 196.144 201.43 191.315 219.234 228.954" stroke="#8C4545" stroke-width="3"/>
</g>
<g style="mix-blend-mode:soft-light">
<path d="M151.252 206.494C151.252 206.494 194.779 202.507 216.174 252.598" stroke="#8C4545" stroke-width="3"/>
</g>
<g style="mix-blend-mode:soft-light">
<path d="M177.596 184.854C177.596 184.854 213.179 176.881 230.523 217.664" stroke="#8C4545" stroke-width="3"/>
</g>
<g style="mix-blend-mode:soft-light">
<path d="M185.469 174.651C185.469 174.651 226.268 165.682 238.512 206.252" stroke="#8C4545" stroke-width="3"/>
</g>
<g style="mix-blend-mode:soft-light">
<path d="M208.295 165.975C208.295 165.975 232.687 160.923 237.463 185.734" stroke="#8C4545" stroke-width="3"/>
</g>
<g style="mix-blend-mode:soft-light">
<path d="M177.422 242.44C177.422 240.956 178.183 208.868 159.721 190.5" stroke="#8C4545" stroke-width="3"/>
</g>
<g style="mix-blend-mode:soft-light">
<path d="M197.182 240.557C197.182 239.074 197.943 206.986 179.48 188.617" stroke="#8C4545" stroke-width="3"/>
</g>
<g style="mix-blend-mode:soft-light">
<path d="M216.169 240.558C216.169 238.833 217.099 201.513 194.533 180.149" stroke="#8C4545" stroke-width="3"/>
</g>
<g style="mix-blend-mode:soft-light">
<path d="M228.401 225.503C228.401 223.778 229.331 186.458 206.766 165.095" stroke="#8C4545" stroke-width="3"/>
</g>
</g>
<circle cx="147.96" cy="248.365" r="35.2838" fill="url(#paint2_linear_48_7463)"/>
<ellipse cx="148.234" cy="270.51" rx="45.462" ry="28.1929" fill="url(#paint3_linear_48_7463)"/>
<circle cx="174.305" cy="261.538" r="35.2838" fill="url(#paint4_linear_48_7463)"/>
<path d="M149.684 270.533C151.618 275.125 154.384 276.173 157.136 277.007" stroke="#ADFFFC" stroke-width="4" stroke-linecap="round" stroke-linejoin="round"/>
<path d="M96.5156 304.124C92.2078 301.974 90.0178 302.733 87.9889 303.633" stroke="#ADFFFC" stroke-width="4" stroke-linecap="round" stroke-linejoin="round"/>
<path d="M129.559 246.745C132.65 246.591 133.85 245.2 134.921 243.771" stroke="white" stroke-width="4" stroke-linecap="round" stroke-linejoin="round"/>
<path d="M146.838 296.208C147.606 296.423 148.623 296.309 149.631 296.179" stroke="white" stroke-width="4" stroke-linecap="round" stroke-linejoin="round"/>
<path d="M140.656 223.374C139.34 226.176 140.006 227.888 140.765 229.505" stroke="#C4A2FF" stroke-width="4" stroke-linecap="round" stroke-linejoin="round"/>
<path d="M163.248 306.071C162.144 305.804 161.778 305.988 161.46 306.192" stroke="#C4A2FF" stroke-width="4" stroke-linecap="round" stroke-linejoin="round"/>
<path d="M121.902 271.981C117.277 273.835 116.181 276.582 115.299 279.319" stroke="#FFA6EA" stroke-width="4" stroke-linecap="round" stroke-linejoin="round"/>
<path d="M170.66 249.441C168.235 251.511 168.131 253.042 168.155 254.512" stroke="#D6FFA9" stroke-width="4" stroke-linecap="round" stroke-linejoin="round"/>
<path d="M95.3262 290.103C97.5502 290.935 98.5853 290.45 99.5342 289.904" stroke="#D6FFA9" stroke-width="4" stroke-linecap="round" stroke-linejoin="round"/>
<path d="M193.625 262.773C190.322 261.196 188.668 261.802 187.138 262.513" stroke="#FFAFAF" stroke-width="4" stroke-linecap="round" stroke-linejoin="round"/>
<path d="M120.496 304.499C121.879 305.614 123.808 305.813 125.725 305.957" stroke="#FFAFAF" stroke-width="4" stroke-linecap="round" stroke-linejoin="round"/>
<rect x="124.908" y="247.894" width="7.52722" height="20.6999" rx="3.76361" fill="#746CA0"/>
<rect x="147.49" y="247.894" width="7.52722" height="20.6999" rx="3.76361" fill="#746CA0"/>
<path d="M132.906 280.355C132.906 280.355 137.114 277.532 141.355 277.532C145.597 277.532 149.861 280.355 149.861 280.355" stroke="#746CA0" stroke-width="3" stroke-linecap="round" stroke-linejoin="round"/>
<path opacity="0.5" d="M255.098 202.062C286.134 139.295 237.13 122.886 237.13 122.886C203.679 120.098 190.252 143.446 173.575 146.089C141.664 151.147 114.336 124.896 119.932 99.2123C122.045 89.5174 148.051 77.5111 154.783 121.884C157.154 137.516 153.613 154.444 126.95 162.443C88.5435 173.965 67.2907 129.464 65.3108 128.15" stroke="url(#paint5_linear_48_7463)" stroke-width="4" stroke-linecap="round" stroke-linejoin="round" stroke-dasharray="4 10"/>
<ellipse opacity="0.4" cx="46.7064" cy="120.844" rx="7.53055" ry="9.91302" transform="rotate(-120 46.7064 120.844)" fill="#CED8E5"/>
<ellipse opacity="0.4" cx="69.4967" cy="107.106" rx="7.53055" ry="9.91302" transform="rotate(60 69.4967 107.106)" fill="#CED8E5"/>
<path d="M55.8061 119.763C52.3492 118.836 50.2978 115.283 51.224 111.826L52.9134 105.521L59.2011 107.206C62.6579 108.132 64.7094 111.686 63.7831 115.142L62.0937 121.447L55.8061 119.763Z" fill="#A8B7C5"/>
<mask id="mask1_48_7463" style="mask-type:luminance" maskUnits="userSpaceOnUse" x="51" y="105" width="14" height="17">
<path d="M55.8061 119.763C52.3492 118.836 50.2978 115.283 51.224 111.826L52.9134 105.521L59.2011 107.206C62.6579 108.132 64.7094 111.686 63.7831 115.142L62.0937 121.447L55.8061 119.763Z" fill="white"/>
</mask>
<g mask="url(#mask1_48_7463)">
<rect x="52.4473" y="121.222" width="2.05379" height="15.0405" transform="rotate(-120 52.4473 121.222)" fill="#DDE5F2"/>
<path fill-rule="evenodd" clip-rule="evenodd" d="M50.2078 116.368L49.1806 114.589L62.2054 107.071L63.2326 108.85L50.2078 116.368Z" fill="#DDE5F2"/>
</g>
<path d="M51.5759 97.9312L51.7202 92.7974" stroke="#8696C5" stroke-width="0.72"/>
<path d="M49.0652 99.3838L44.7846 96.2467" stroke="#8696C5" stroke-width="0.72"/>
<ellipse cx="52.1242" cy="103.183" rx="5.47676" ry="5.46925" transform="rotate(-75 52.1242 103.183)" fill="#8B9AA8"/>
<defs>
<linearGradient id="paint0_linear_48_7463" x1="147.05" y1="199.494" x2="206.065" y2="264.032" gradientUnits="userSpaceOnUse">
<stop stop-color="#FFF2D2"/>
<stop offset="1" stop-color="#FFE0A6"/>
</linearGradient>
<linearGradient id="paint1_linear_48_7463" x1="177.738" y1="180.417" x2="150.367" y2="210.308" gradientUnits="userSpaceOnUse">
<stop stop-opacity="0.01"/>
<stop offset="1"/>
</linearGradient>
<linearGradient id="paint2_linear_48_7463" x1="82.2409" y1="263.919" x2="134.464" y2="300.85" gradientUnits="userSpaceOnUse">
<stop stop-color="#FFEFFD"/>
<stop offset="1" stop-color="#FFDBF9"/>
</linearGradient>
<linearGradient id="paint3_linear_48_7463" x1="66.6836" y1="274.345" x2="103.873" y2="323.621" gradientUnits="userSpaceOnUse">
<stop stop-color="#FFEFFD"/>
<stop offset="1" stop-color="#FFDBF9"/>
</linearGradient>
<linearGradient id="paint4_linear_48_7463" x1="114.696" y1="259.362" x2="158.34" y2="299.28" gradientUnits="userSpaceOnUse">
<stop stop-color="#FFEFFD"/>
<stop offset="1" stop-color="#FFDBF9"/>
</linearGradient>
<linearGradient id="paint5_linear_48_7463" x1="264.009" y1="44.2866" x2="94.4186" y2="23.4836" gradientUnits="userSpaceOnUse">
<stop stop-color="#95ABC2" stop-opacity="0.244084"/>
<stop offset="1" stop-color="#5C738E"/>
</linearGradient>
</defs>
</svg>
