<svg width="131" height="85" viewBox="0 0 131 85" fill="none" xmlns="http://www.w3.org/2000/svg">
<g id="Isolation_Mode" clip-path="url(#clip0_3636_101035)">
<g id="Group">
<path id="Vector" d="M72.0234 25.0448C72.6407 24.3971 73.258 23.7494 73.892 23.1182C77.5338 19.4587 81.5804 16.2217 85.9542 13.469C89.8082 11.1106 95.0802 11.6255 99.518 11.1937C104.39 10.7785 109.178 9.69894 114.049 9.38339C118.935 8.84284 123.871 9.78043 128.214 12.0739C128.944 12.5393 129.557 13.164 130.008 13.9007C130.459 14.6374 130.736 15.4667 130.817 16.3256C131.189 18.5814 130.869 20.8967 129.899 22.9688C127.597 28.3332 122.959 32.0866 119.121 36.2552C115.901 39.8093 113.349 45.7716 109.111 48.1134C106.775 49.4254 104.106 50.2724 101.887 51.6841C97.5661 54.3248 94.6297 58.7425 90.5422 61.7486C85.6206 65.3691 79.3642 66.731 74.0755 69.7703C70.9056 71.6138 68.0694 74.105 64.5658 75.2177C61.3459 76.2474 57.8923 76.0149 54.5556 76.7456C50.051 77.7587 46.2138 80.5157 41.8427 82.2097C37.0712 84.1196 31.8325 84.186 26.7106 84.6345C18.965 85.4596 11.1316 84.6793 3.70384 82.3426C-2.05202 80.3662 -0.383636 75.2177 3.57038 72.0289C6.0322 70.2909 8.71359 68.8836 11.5452 67.8437C22.7065 62.8613 32.6833 55.7198 42.5601 48.5784L57.7589 37.7001C60.7896 35.6065 63.6818 33.3209 66.4177 30.8576C68.3864 29.0307 70.1715 27.0045 72.0234 25.0448Z" fill="#004858"/>
<g id="Group_2">
<path id="Vector_2" d="M22.8234 76.8953L27.2612 79.8183C27.2612 79.8183 44.6622 76.613 47.3984 75.6829C110.98 54.2253 122.241 26.7888 122.241 26.7888L110.229 19.9297C99.7873 21.7249 89.6213 24.8507 79.9815 29.2302C68.5328 34.1757 57.6671 40.3637 47.5819 47.6817C37.3882 55.1388 33.601 63.9244 22.8234 76.8953Z" fill="#013645"/>
<path id="Vector_3" d="M4.97195 69.6041L5.78945 70.1854C6.5569 70.7168 7.7915 71.5638 9.34307 72.5271L10.0104 72.9257C10.1252 73.0098 10.2481 73.0821 10.3774 73.1416C10.4794 73.2086 10.5853 73.2697 10.6944 73.3243C10.9361 73.4926 11.1867 73.6478 11.4452 73.7893L11.8456 74.0052L12.5463 74.437C12.83 74.5865 13.0969 74.7194 13.3638 74.8854L13.5807 75.0017H13.6975C14.0979 75.2176 14.4983 75.4335 14.9154 75.6328C15.3325 75.8321 16.15 76.2639 16.784 76.5629L17.0676 76.6957L17.3679 76.812C17.7016 76.9781 18.0519 77.1441 18.4023 77.277L18.7026 77.4099L20.104 77.9911L20.9716 78.3067L21.3887 78.4562C21.9392 78.6389 22.4564 78.8215 23.057 78.971C24.4287 79.3675 25.8374 79.6235 27.2613 79.735C90.192 59.5396 111.847 31.555 113.132 29.7946C113.132 29.7946 113.466 29.2133 113.966 28.25C114.183 27.8182 114.45 27.3034 114.717 26.7221L114.967 26.2072C115.401 25.3104 115.851 24.2807 116.302 23.1846C116.302 23.0517 116.419 22.9355 116.469 22.8026C116.519 22.6697 116.736 22.0718 116.886 21.6899C116.938 21.5652 116.982 21.4377 117.019 21.3079C117.019 21.3079 117.019 21.175 117.103 21.092C117.186 21.0089 117.253 20.6768 117.336 20.4609C117.329 20.4224 117.329 20.383 117.336 20.3446L117.57 19.9294C117.589 19.8003 117.617 19.6727 117.653 19.5474C117.787 19.1654 117.92 18.7668 118.037 18.3682C118.254 17.6043 118.471 16.8237 118.638 16.0431C118.63 16.0048 118.63 15.9652 118.638 15.9269V15.6777C118.638 15.2958 118.788 14.9304 118.838 14.5484C118.886 14.3239 118.92 14.0964 118.938 13.8675C118.938 13.4523 119.038 13.0371 119.071 12.6551C119.079 12.5445 119.079 12.4335 119.071 12.3229C119.175 10.9283 119.051 9.52616 118.704 8.1709C117.617 9.41768 116.429 10.5731 115.151 11.6254C80.5322 36.6869 23.1071 61.8813 8.45884 68.0927L4.97195 69.6041Z" fill="#151D4B"/>
<g id="Group_3">
<path id="Vector_4" d="M10.0103 72.926C10.1273 73.0066 10.2499 73.0788 10.3773 73.1419C10.4793 73.209 10.5851 73.27 10.6943 73.3246L11.4451 73.7897C80.0148 57.4806 110.78 24.663 118.938 14.4823C118.938 14.2498 119.021 14.0173 119.038 13.8014C119.055 13.5855 119.138 12.971 119.171 12.589C119.163 12.4784 119.163 12.3674 119.171 12.2568C113.416 19.9298 83.1514 55.8364 10.0103 72.926Z" fill="black"/>
<path id="Vector_5" d="M10.0103 72.926C10.1273 73.0066 10.2499 73.0788 10.3773 73.1419C83.1514 56.0523 113.349 20.3283 119.171 12.589C119.163 12.4784 119.163 12.3674 119.171 12.2568C113.416 19.9298 83.1514 55.8364 10.0103 72.926Z" fill="#697EFF"/>
</g>
<g id="Group_4">
<path id="Vector_6" d="M13.3638 74.8855L13.5807 75.0017H13.6975C14.0979 75.2342 14.4983 75.4335 14.9154 75.6328C78.8638 59.6725 108.911 29.3462 118.07 18.2686C118.287 17.5047 118.504 16.7241 118.654 15.9435C118.654 15.9435 118.654 15.9435 118.654 15.8272C118.646 15.7444 118.646 15.661 118.654 15.5781C112.031 24.2807 82.3507 57.912 13.3638 74.8855Z" fill="black"/>
<path id="Vector_7" d="M13.3638 74.8855L13.5807 75.0017H13.6975C82.1838 58.1279 111.814 24.7956 118.654 15.9767C118.654 15.9767 118.654 15.9767 118.654 15.8604C118.646 15.7776 118.646 15.6942 118.654 15.6113C112.031 24.2807 82.3507 57.912 13.3638 74.8855Z" fill="#697EFF"/>
</g>
<g id="Group_5">
<path id="Vector_8" d="M17.0675 76.7458L17.3678 76.8787C17.7015 77.0448 18.0519 77.2109 18.4022 77.3437L18.7025 77.4766C76.6782 62.164 105.774 35.1593 116.369 23.0852C116.369 22.969 116.485 22.8527 116.535 22.7199C116.585 22.587 116.802 21.9891 116.953 21.6071C117.004 21.4825 117.049 21.3549 117.086 21.2251C117.086 21.2251 117.086 21.0757 117.169 21.0092C117.253 20.9428 117.32 20.594 117.403 20.3615C117.486 20.129 117.503 20.0626 117.57 19.8965C109.145 30.1935 80.0483 60.3869 17.0675 76.7458Z" fill="black"/>
<path id="Vector_9" d="M17.0675 76.7458L17.3678 76.8787C79.748 60.6526 108.778 30.8412 117.386 20.3615C117.386 20.212 117.503 20.046 117.57 19.8965C109.145 30.1935 80.0483 60.3869 17.0675 76.7458Z" fill="#697EFF"/>
</g>
<g id="Group_6">
<path id="Vector_10" d="M21.0385 78.4062L21.4556 78.5557C22.0061 78.7384 22.5233 78.921 23.124 79.0705C72.1572 65.2194 99.9522 43.1971 113.216 29.7944L114.05 28.2499L114.784 26.5725L115.034 26.0576C103.105 39.0285 74.6597 63.6416 21.0385 78.4062Z" fill="black"/>
<path id="Vector_11" d="M21.0385 78.4062L21.4556 78.5557C74.4429 63.8741 102.755 39.5932 114.784 26.5725L115.034 26.0576C103.105 39.0285 74.6597 63.6416 21.0385 78.4062Z" fill="#697EFF"/>
</g>
<path id="Vector_12" d="M5.78927 70.1854C6.55672 70.7168 7.79131 71.5472 9.3429 72.5271L10.0102 72.9257C10.125 73.0098 10.2479 73.0821 10.3773 73.1416C10.4792 73.2086 10.5851 73.2697 10.6943 73.3243L11.445 73.7893L11.8454 74.0052C12.0623 74.1547 12.2959 74.2709 12.5462 74.4204C12.5462 74.4204 83.4016 57.8124 117.436 20.2616C117.475 20.1485 117.519 20.0377 117.57 19.9294L117.653 19.5474C117.787 19.1654 117.903 18.7668 118.037 18.3682C118.254 17.6043 118.471 16.8237 118.621 16.0431C118.621 16.0431 118.621 16.0431 118.621 15.9269C118.613 15.844 118.613 15.7606 118.621 15.6777C118.621 15.2958 118.771 14.9304 118.821 14.5484L118.921 13.8675C118.921 13.4523 119.021 13.0371 119.055 12.6551C119.046 12.5445 119.046 12.4335 119.055 12.3229C119.158 10.9283 119.034 9.52616 118.688 8.1709C117.601 9.41287 116.419 10.5679 115.151 11.6254C80.532 36.6869 23.1069 61.8813 8.45866 68.0927L5.78927 70.1854Z" fill="#B8B8B8"/>
<path id="Vector_13" d="M2.5361 71.1991V72.727L5.3056 72.1956C49.7675 61.9152 78.7136 46.0545 96.3316 32.984C100.653 29.7786 104.29 26.7559 107.326 24.0322C111.995 19.9909 116.192 15.4393 119.839 10.4635L120.74 9.35071V7.82277L119.405 8.58674L107.126 1.52832H106.625H106.509C96.0036 3.35642 85.7769 6.51547 76.0776 10.9285C64.5843 15.9257 53.6796 22.1693 43.5612 29.5461C28.1956 40.6901 10.8779 61.8322 4.05432 70.4185L2.5361 71.1991Z" fill="#D9B891"/>
<path id="Vector_14" d="M2.5361 71.1987L5.33896 70.6506C89.9584 51.0698 118.304 11.2769 119.922 8.8687L120.74 7.82239L119.322 7.05842L107.126 0H106.509C96.0316 1.86036 85.8268 5.00667 76.1277 9.36694C72.0124 11.1495 67.9416 13.1204 63.9152 15.2794C56.86 19.0415 50.0757 23.2868 43.6112 27.9846C28.1956 39.1618 10.8779 60.4533 4.20447 69.0231L2.5361 71.1987Z" fill="#FFDFB8"/>
<path id="Vector_15" d="M13.6809 60.7528C13.6809 60.8524 13.6809 60.9521 13.6809 61.0351C13.7722 61.5497 13.9774 62.0376 14.2815 62.4634C14.311 62.5157 14.3445 62.5657 14.3816 62.6129C15.1257 63.5608 16.1545 64.2474 17.318 64.5726L17.7684 64.7055C19.1585 64.978 20.5834 65.0285 21.9894 64.8549C23.0361 64.7671 24.0738 64.5949 25.0926 64.3401C26.9384 63.8797 28.7593 63.3254 30.5481 62.6793L32.2165 62.1146L32.9172 61.8821L35.6533 60.9687L36.5208 60.6697C38.4395 60.0054 40.3581 59.3245 42.26 58.6269C48.3329 56.4679 54.2556 54.0099 60.0615 51.336C60.9958 50.9208 61.9134 50.489 62.831 50.0406L64.1323 49.4261C66.8517 48.1306 69.5211 46.7688 72.1738 45.3571L72.4741 45.191C77.7295 42.4009 82.868 39.3616 87.8398 36.0732L88.8408 35.3923L89.9419 34.6615C92.1664 33.1225 94.3909 31.5171 96.6154 29.8452C96.7028 29.7839 96.7863 29.7173 96.8656 29.6459C100.002 27.2709 103.039 24.7631 105.942 22.1224C108.444 19.9302 110.83 17.5552 113.082 15.1138L113.382 14.7983C114.233 13.8848 115.051 12.9382 115.852 11.9749C116.652 11.0117 117.403 10.0816 118.121 9.08512C118.377 8.76357 118.611 8.4251 118.821 8.07203L106.842 1.17969C96.3788 2.96402 86.19 6.08439 76.5282 10.4636C65.1248 15.4397 54.3 21.6379 44.2454 28.9483C43.211 29.6957 42.1933 30.4763 41.1923 31.2569C35.7968 35.6878 30.687 40.4527 25.8934 45.5232C23.5243 47.9922 21.1997 50.5056 18.9196 53.0632L18.0854 53.9933C17.6183 54.5247 17.051 55.0894 16.4171 55.6541C15.5447 56.5109 14.8027 57.4901 14.2148 58.5605C13.8285 59.2248 13.6431 59.9861 13.6809 60.7528Z" fill="#CCAD88"/>
<path id="Vector_16" d="M40.6748 37.2686L40.8584 41.4206L45.6799 37.7004L40.6748 37.2686Z" fill="#DBDBDB"/>
<path id="Vector_17" d="M65.3668 21.5908V25.7262L71.2061 22.77L65.3668 21.5908Z" fill="#DBDBDB"/>
<path id="Vector_18" d="M96.298 9.18457V13.3366L102.621 11.709L96.298 9.18457Z" fill="#DBDBDB"/>
<path id="Vector_19" d="M106.776 11.0449C107.56 13.0046 110.696 14.3665 113.082 15.1304L113.382 14.8149C114.233 13.8848 115.051 12.9382 115.852 11.9749C115.97 11.8654 116.081 11.7489 116.185 11.6261C116.369 11.4268 116.536 11.2109 116.702 10.995C117.203 10.3971 117.67 9.78265 118.121 9.15155C118.377 8.82999 118.611 8.49152 118.821 8.13845L106.842 1.19629C106.589 2.44803 106.399 3.7119 106.275 4.98292C106.275 5.43134 106.275 5.87976 106.275 6.32818C106.15 7.91765 106.32 9.51647 106.776 11.0449Z" fill="#E0BF96"/>
<path id="Vector_20" d="M17.3508 64.5882H17.4342C17.5537 64.6313 17.6764 64.6646 17.8013 64.6879C18.0375 64.7467 18.2771 64.7911 18.5187 64.8208C18.9213 64.8869 19.3286 64.9203 19.7366 64.9204C20.2588 64.9536 20.7826 64.9536 21.3049 64.9204H22.0223C23.3828 64.7951 24.7288 64.545 26.043 64.173C27.1108 63.9073 28.1785 63.5586 29.2463 63.2098C30.314 62.861 31.2984 62.5122 32.2994 62.1801H32.5997L36.22 60.9511C38.2721 60.2536 40.3075 59.5394 42.3429 58.792L45.3794 57.6295C47.0477 57.015 48.616 56.4005 50.2176 55.7362C51.8193 55.0718 53.5544 54.3577 55.2227 53.6269C56.474 53.1121 57.6919 52.564 58.9265 51.9661L60.0276 51.4679C60.8117 51.1191 61.5792 50.7537 62.33 50.3884C63.9983 49.5746 65.7835 48.7276 67.5019 47.8639C73.7421 44.7437 79.8173 41.3069 85.7037 37.567L87.8059 36.2051C89.0738 35.3581 90.3251 34.5443 91.5597 33.6475L92.8944 32.7008C94.2958 31.7209 95.6639 30.6912 97.0319 29.6615C98.4 28.6318 99.401 27.818 100.569 26.8548C101.737 25.8915 102.788 24.9116 103.839 24.0314C104.556 23.4169 105.257 22.7858 105.958 22.1547C106.658 21.5236 107.392 20.8593 108.093 20.1783L109.478 18.8497L110.562 17.7702L111.413 16.9065C111.947 16.3585 112.481 15.7938 113.082 15.2457C113.167 15.1329 113.262 15.0274 113.365 14.9302L112.765 14.5814L111.096 13.6015L110.345 13.1697L109.661 12.7877L108.927 12.3559L107.259 11.3761L106.859 11.1602C106.539 11.1912 106.221 11.2411 105.908 11.3096L103.972 11.6418L102.638 11.7913L101.503 12.0404L100.936 12.1732L99.7013 12.4722C98.6836 12.7047 97.5491 13.0036 96.3646 13.3358L95.447 13.5849L92.3605 14.4818C91.3929 14.7807 90.3752 15.0963 89.3408 15.445C88.3064 15.7938 86.8382 16.292 85.5035 16.7737C82.7341 17.7702 79.7477 18.9493 76.6112 20.3278C75.7102 20.7098 74.7926 21.1084 73.8917 21.5402L73.4413 21.7395C71.9397 22.4204 70.4215 23.1512 68.8699 23.9151L65.4331 25.6922C59.3605 28.8832 53.4882 32.4383 47.8485 36.338L47.2646 36.7366L44.2449 38.8458L42.71 39.9751L40.8581 41.42C39.7069 42.3501 38.5891 43.2801 37.5214 44.2434C36.4536 45.2067 35.6695 45.9042 34.7686 46.6848L32.5663 48.711C31.8322 49.3919 31.1148 50.106 30.3808 50.8202C28.8792 52.2817 27.4111 53.7764 25.9596 55.2877L25.8428 55.4206C25.2756 56.0019 24.6916 56.5998 24.1744 57.1977L22.5061 58.8585C21.9388 59.4564 21.3883 60.0709 20.8377 60.6854C19.8701 61.7317 18.9024 62.7946 17.9514 63.8741L17.3508 64.5882Z" fill="#BFA280"/>
<g id="Group_7">
<path id="Vector_21" d="M34.7517 46.6684L89.2905 15.4619C88.0726 15.8605 86.788 16.3089 85.4533 16.7906C82.6838 17.787 79.6974 18.9662 76.5609 20.3447C75.5265 20.7765 74.4588 21.2415 73.391 21.7564L47.2144 36.7036L44.2447 38.846C43.2103 39.5768 42.1926 40.3574 41.2083 41.138C39.9403 42.1511 38.7057 43.1807 37.4878 44.2437C36.5702 45.0242 35.6526 45.838 34.7517 46.6684Z" fill="#FFDFB8"/>
<path id="Vector_22" d="M24.1411 57.1819L103.889 11.5264C103.188 11.6592 102.404 11.8253 101.486 12.0412C99.8181 12.4232 97.7493 12.9214 95.3969 13.5858L30.3307 50.821C28.8459 52.2825 27.3777 53.7772 25.9095 55.2886L25.7928 55.4048L24.1411 57.1819Z" fill="#FFDFB8"/>
<path id="Vector_23" d="M17.3508 64.5892H17.4343C17.5537 64.6322 17.6764 64.6655 17.8013 64.6888C18.0375 64.7476 18.2771 64.792 18.5187 64.8217L109.645 12.6724L108.894 12.2406L107.226 11.2607L20.8878 60.7195C19.9201 61.7658 18.9525 62.8287 18.0015 63.9083L17.3508 64.5892Z" fill="#FFDFB8"/>
<path id="Vector_24" d="M21.2881 64.9215H22.0222C23.3827 64.7962 24.7287 64.546 26.0429 64.1741C27.1107 63.8918 28.1784 63.5596 29.2462 63.2108L113.048 15.1803L113.382 14.815L112.765 14.4662L111.096 13.4863L21.2881 64.9215Z" fill="#FFDFB8"/>
<path id="Vector_25" d="M36.2201 60.8025C38.2721 60.105 40.3075 59.3908 42.3429 58.6435L45.3794 57.4809C47.0477 56.8664 48.616 56.2519 50.2009 55.5876L100.586 26.7394C101.687 25.8592 102.771 24.9457 103.822 24.0323C104.54 23.4178 105.24 22.7867 105.941 22.1556C107.142 21.0761 108.293 19.9799 109.445 18.834L36.2201 60.8025Z" fill="#FFDFB8"/>
<path id="Vector_26" d="M62.3633 50.2731C71.1801 46.1484 79.6933 41.4088 87.8392 36.0899C89.1072 35.2429 90.3417 34.4291 91.593 33.5322L62.3633 50.2731Z" fill="#FFDFB8"/>
</g>
<g id="Group_8">
<path id="Vector_27" d="M37.5721 44.2265L85.4375 16.79C82.668 17.7865 79.6816 18.9657 76.5451 20.3442C75.5107 20.776 74.443 21.241 73.3752 21.7558C64.2196 25.9517 55.4592 30.9541 47.1986 36.7031L44.2456 38.8455C43.2112 39.5763 42.1935 40.3569 41.2091 41.1374C39.9579 42.1505 38.7233 43.1802 37.5721 44.2265Z" fill="#E8C59B"/>
<path id="Vector_28" d="M25.893 55.2883L101.42 12.1074C99.7516 12.4894 97.6828 12.9876 95.3304 13.652C94.3461 13.9177 93.3284 14.2166 92.2439 14.5488L32.5665 48.7116C31.8324 49.3925 31.115 50.1066 30.3809 50.8208C28.8794 52.2823 27.4279 53.777 25.893 55.2883Z" fill="#E8C59B"/>
<path id="Vector_29" d="M17.3511 64.5883H17.4345L108.894 12.2397L107.226 11.2599L106.842 11.0439C106.523 11.075 106.205 11.1249 105.891 11.1934L22.5564 58.8917C21.9892 59.4896 21.4386 60.1041 20.888 60.7186C19.9204 61.7649 18.9527 62.8278 18.0018 63.9074L17.3511 64.5883Z" fill="#E8C59B"/>
<path id="Vector_30" d="M19.7369 64.9372C20.2592 64.9704 20.783 64.9704 21.3052 64.9372H22.0226C23.3831 64.812 24.7291 64.5618 26.0434 64.1899L112.798 14.5484L111.13 13.5685L110.379 13.1367L19.7369 64.9372Z" fill="#E8C59B"/>
<path id="Vector_31" d="M32.5666 62.0303L36.1869 60.8013C38.239 60.1038 40.2744 59.3897 42.3098 58.6423L45.3462 57.4797L103.739 24.0311C104.456 23.4166 105.157 22.7855 105.858 22.1544C107.059 21.0749 108.21 19.9788 109.361 18.8328C110.029 18.1851 110.696 17.5208 111.33 16.8564L32.5666 62.0303Z" fill="#E8C59B"/>
<path id="Vector_32" d="M55.2562 53.4771C56.9246 52.7962 58.4762 52.082 60.0611 51.3513C60.8452 51.0025 61.596 50.6371 62.3634 50.2718C71.1803 46.147 79.6935 41.4075 87.8394 36.0885C89.1073 35.2415 90.3419 34.4277 91.5932 33.5309C93.4451 32.2354 95.2636 30.9068 97.0654 29.5449L55.2562 53.4771Z" fill="#E8C59B"/>
</g>
<path id="Vector_33" d="M96.3149 13.286L102.638 16.9896L108.11 20.1617L109.495 18.8331L110.596 17.7536C110.88 17.4712 111.163 17.1889 111.43 16.8899C111.981 16.3419 112.498 15.7772 113.099 15.2291C113.19 15.1161 113.29 15.0105 113.399 14.9136L112.782 14.5648L111.113 13.5849L110.363 13.1531L109.695 12.7711L108.944 12.3393L107.276 11.3595L106.892 11.1436C106.573 11.1746 106.255 11.2245 105.941 11.293L104.006 11.6252L102.638 11.7913L101.503 12.0404L100.936 12.1733L99.7017 12.4556L96.3149 13.286Z" fill="#DBDBDB"/>
<path id="Vector_34" d="M40.9086 41.421L58.9603 51.8508L60.0615 51.3526C60.8456 51.0038 61.5963 50.6385 62.3638 50.2731C64.0322 49.4593 65.8173 48.6123 67.519 47.7487L47.7823 36.3555L47.5821 36.2061L42.7772 39.9761L40.9086 41.421Z" fill="#DBDBDB"/>
<path id="Vector_35" d="M65.3666 25.6931L85.7206 37.4516L87.8395 36.0897C89.1074 35.2427 90.342 34.4289 91.5933 33.5321L92.928 32.5854L73.8085 21.5909L73.6083 21.4746L68.7867 23.9658L65.3666 25.6931Z" fill="#DBDBDB"/>
<g id="Group_9">
<path id="Vector_36" d="M65.3668 20.512V21.8739L88.8407 35.4094L89.9418 34.6621C92.2108 33.1175 94.4464 31.5231 96.6152 29.8457L73.0579 17.29L65.3668 20.512Z" fill="#E0BF96"/>
<path id="Vector_37" d="M65.3665 20.5116L89.9415 34.6616C92.166 33.1226 94.3905 31.5172 96.615 29.8453L96.8652 29.6626L73.091 15.9277L65.3665 20.5116Z" fill="#FFDFB8"/>
</g>
<g id="Group_10">
<path id="Vector_38" d="M96.3151 8.1384V9.50026L100.97 12.1742L110.63 17.7545C110.913 17.4721 111.197 17.1898 111.464 16.8908C111.998 16.3428 112.532 15.7781 113.132 15.23L113.433 14.9145C114.283 13.9844 115.101 13.0378 115.902 12.0745C116.006 11.9314 116.101 11.7816 116.185 11.6261L106.175 6.34473L96.3151 8.1384Z" fill="#E0BF96"/>
<path id="Vector_39" d="M96.315 8.13795L102.638 11.7917L111.43 16.8904C111.981 16.3423 112.498 15.7777 113.099 15.2296C113.19 15.1165 113.291 15.011 113.399 14.914C114.25 13.984 115.067 13.0373 115.868 12.0741C115.984 11.9319 116.09 11.7821 116.185 11.6256L116.702 10.9945L106.275 4.98242L96.315 8.13795Z" fill="#FFDFB8"/>
</g>
<g id="Group_11">
<path id="Vector_40" d="M40.6746 35.9075V37.2694L62.8305 50.0576L64.1318 49.4265C66.8513 48.131 69.5206 46.7858 72.1733 45.3575L48.3825 32.6855L40.6746 35.9075Z" fill="#E0BF96"/>
<path id="Vector_41" d="M40.6747 35.9071L64.1319 49.426C66.8513 48.1306 69.5207 46.7853 72.1734 45.357L72.457 45.2076L48.3825 31.3232L40.6747 35.9071Z" fill="#FFDFB8"/>
</g>
<g id="Group_12">
<path id="Vector_42" d="M13.7139 61.0349C13.8052 61.5495 14.0103 62.0374 14.3145 62.4632C14.344 62.5155 14.3774 62.5655 14.4146 62.6127C15.1554 63.5641 16.1854 64.2515 17.3509 64.5724L17.8014 64.7053C19.1915 64.9778 20.6163 65.0283 22.0224 64.8548C25.5424 64.3371 28.9908 63.4176 32.2995 62.1144C33.4507 61.7491 34.6018 61.3505 35.7363 60.9685L23.6073 54.1592L13.7139 61.0349Z" fill="#E0BF96"/>
<path id="Vector_43" d="M13.6803 60.7521C13.6803 60.8518 13.6803 60.9514 13.6803 61.0345C13.7716 61.549 13.9768 62.0369 14.281 62.4628C14.3104 62.5151 14.3439 62.565 14.3811 62.6122C15.1251 63.5602 16.1539 64.2468 17.3174 64.572L17.7678 64.7048C19.1579 64.9774 20.5828 65.0278 21.9888 64.8543C25.5088 64.3366 28.9572 63.4171 32.2659 62.114C33.4171 61.7486 34.5683 61.35 35.7028 60.968C36.0031 60.885 36.2867 60.7687 36.5703 60.6691L23.5737 52.8135L13.6803 60.7521Z" fill="#FFDFB8"/>
</g>
<path id="Vector_44" d="M13.6807 60.7528C13.6807 60.8525 13.6807 60.9521 13.6807 61.0351C13.7719 61.5497 13.9771 62.0376 14.2813 62.4634C14.3107 62.5158 14.3442 62.5657 14.3814 62.6129C15.1255 63.5609 16.1542 64.2475 17.3177 64.5727L17.7682 64.7055C19.1583 64.9781 20.5831 65.0285 21.9891 64.855C23.0358 64.7671 24.0736 64.595 25.0923 64.3402C12.9633 64.7387 16.3834 58.5605 16.3834 58.5605H14.2145C13.8282 59.2249 13.6429 59.9861 13.6807 60.7528Z" fill="#DBDBDB"/>
<g id="Group_13">
<g id="Group_14">
<path id="Vector_45" d="M52.137 20.8761C52.1278 20.8379 52.1278 20.7981 52.137 20.7599C52.2559 20.6825 52.3953 20.642 52.5374 20.6436H52.771C52.8158 20.6574 52.8571 20.6809 52.8917 20.7125C52.9263 20.7441 52.9535 20.783 52.9712 20.8263V22.62C52.9917 22.6734 52.9917 22.7326 52.9712 22.786C52.8547 22.8686 52.7136 22.9096 52.5708 22.9023C52.4939 22.9195 52.4141 22.9195 52.3372 22.9023C52.2204 22.9023 52.137 22.786 52.137 22.703V20.8761Z" fill="url(#paint0_linear_3636_101035)"/>
<path id="Vector_46" d="M52.5874 21.142C52.7306 21.1521 52.8726 21.1108 52.9878 21.0257C53.0054 20.9954 53.0146 20.9611 53.0146 20.9261C53.0146 20.8911 53.0054 20.8567 52.9878 20.8264C52.9878 20.8264 52.9878 20.6603 52.7876 20.6271C52.7107 20.61 52.631 20.61 52.5541 20.6271C52.412 20.6256 52.2726 20.666 52.1536 20.7434C52.123 20.7706 52.0983 20.8039 52.0811 20.841C52.0639 20.8781 52.0545 20.9184 52.0535 20.9593C52.0535 21.0423 52.1536 21.1088 52.2704 21.1586L52.5874 21.142Z" fill="white"/>
</g>
<g id="Group_15">
<g id="Group_16">
<path id="Vector_47" d="M63.8653 9.66579H63.9487C64.022 9.21196 64.1851 8.77712 64.4285 8.38654C64.6719 7.99595 64.9909 7.65738 65.3668 7.39049L72.9412 0.97978C73.1403 0.821647 73.3731 0.710991 73.6218 0.656294C73.8705 0.601596 74.1285 0.60431 74.376 0.664228L77.1455 1.66071L77.6126 1.44481L77.7461 2.09252C77.7398 2.18738 77.7127 2.27971 77.6665 2.36295C77.6204 2.44618 77.5564 2.51829 77.4792 2.57415L69.8881 9.00147C68.672 9.97328 67.2233 10.6142 65.6838 10.8616C64.8163 11.011 64.1156 10.7619 64.0154 10.2637C64.0073 10.2253 64.0073 10.1858 64.0154 10.1474L63.8653 9.66579Z" fill="#BFA280"/>
<path id="Vector_48" d="M77.329 2.04304L69.738 8.47035C68.5213 9.43817 67.0722 10.0736 65.5337 10.3138C64.6661 10.4799 63.9654 10.3138 63.8653 9.73256C63.8027 9.17441 63.8975 8.60993 64.1392 8.10243C64.3808 7.59493 64.7597 7.16448 65.2334 6.85937L72.8411 0.448664C73.0388 0.287669 73.2709 0.173998 73.5197 0.11641C73.7684 0.0588214 74.0272 0.0588534 74.2759 0.116503L77.279 1.17942C77.6126 1.32889 77.7127 1.66105 77.329 2.04304Z" fill="#FFDFB8"/>
</g>
<g id="Group_17">
<path id="Vector_49" d="M34.519 35.4083C34.519 35.4083 34.519 35.4083 34.519 35.4913C34.5445 35.6271 34.6036 35.7544 34.691 35.8617C34.7784 35.969 34.8913 36.0529 35.0195 36.1058V36.1889L57.1754 17.3221L64.7331 10.8616C64.1491 10.4464 68.9707 6.64313 68.9707 6.64313C68.8939 6.48714 68.7638 6.36349 68.6037 6.29436C68.5673 6.27674 68.5273 6.26758 68.4869 6.26758C68.4464 6.26758 68.4065 6.27674 68.3701 6.29436L56.2578 16.608L34.4189 35.292L34.519 35.4083Z" fill="url(#paint1_linear_3636_101035)"/>
<path id="Vector_50" d="M34.5188 35.4086C34.5188 35.4086 34.5188 35.4086 34.5188 35.4916C34.5443 35.6274 34.6034 35.7547 34.6908 35.862C34.7782 35.9693 34.8911 36.0532 35.0193 36.1061V36.1891L56.4411 17.9203C56.4631 17.8765 56.4746 17.8281 56.4746 17.7791C56.4746 17.7301 56.4631 17.6818 56.4411 17.638C56.4137 17.4985 56.3522 17.368 56.262 17.2579C56.1717 17.1478 56.0556 17.0616 55.9239 17.0068C55.895 16.9853 55.8599 16.9736 55.8238 16.9736C55.7877 16.9736 55.7526 16.9853 55.7237 17.0068V17.0899L34.3186 35.3587L34.5188 35.4086Z" fill="url(#paint2_linear_3636_101035)"/>
<path id="Vector_51" d="M34.3354 35.6412C34.3689 35.7781 34.4328 35.9058 34.5223 36.015C34.6118 36.1242 34.7246 36.2121 34.8525 36.2724C35.0694 36.3554 35.2196 36.1893 35.1695 35.9236C35.1359 35.7887 35.0719 35.6633 34.9823 35.5568C34.8927 35.4504 34.7798 35.3656 34.6523 35.3091C34.4188 35.226 34.2353 35.3755 34.3354 35.6412Z" fill="black"/>
</g>
<g id="Group_18">
<path id="Vector_52" d="M34.3353 35.5911L34.1185 35.3254L34.4021 35.1095C34.4497 35.08 34.5046 35.0645 34.5606 35.0645C34.6166 35.0645 34.6715 35.08 34.7191 35.1095C34.8824 35.1828 35.0262 35.293 35.1391 35.4314C35.2521 35.5698 35.3311 35.7326 35.3697 35.9067C35.4034 35.9647 35.4211 36.0306 35.4211 36.0977C35.4211 36.1647 35.4034 36.2306 35.3697 36.2887L35.1028 36.4713L34.936 36.2554C34.6559 36.121 34.4402 35.8824 34.3353 35.5911Z" fill="url(#paint3_linear_3636_101035)"/>
<path id="Vector_53" d="M34.035 35.7241C34.0789 35.8963 34.1619 36.0562 34.2776 36.1915C34.3933 36.3268 34.5386 36.434 34.7023 36.5046C34.9859 36.6043 35.1695 36.4216 35.1027 36.0728C35.0588 35.8986 34.976 35.7364 34.8605 35.5984C34.7449 35.4604 34.5996 35.3501 34.4354 35.2757C34.1518 35.176 33.9849 35.3753 34.035 35.7241Z" fill="black"/>
</g>
</g>
<g id="Group_19">
<g id="Group_20">
<path id="Vector_54" d="M52.587 21.2096L52.8873 21.3923C52.9734 21.4458 53.0723 21.4753 53.1737 21.4778C53.2751 21.4803 53.3753 21.4556 53.4639 21.4064C53.5525 21.3573 53.6262 21.2853 53.6774 21.1981C53.7286 21.1109 53.7553 21.0117 53.7549 20.9107V19.6983C53.7295 19.6384 53.6816 19.5907 53.6214 19.5654H53.4546C53.3694 19.5653 53.2868 19.5946 53.221 19.6485V20.4623C53.2313 20.489 53.2313 20.5186 53.221 20.5453L52.587 21.2096Z" fill="#D9D9D9"/>
<path id="Vector_55" d="M51.5026 18.8843V20.2627C51.5032 20.3912 51.5507 20.5151 51.636 20.6115L52.1199 20.1797C52.1124 20.1357 52.1124 20.0908 52.1199 20.0468V18.8012C52.1088 18.7772 52.0926 18.7558 52.0725 18.7386C52.0523 18.7214 52.0286 18.7088 52.0031 18.7016H51.8529C51.7721 18.6724 51.6835 18.6724 51.6027 18.7016C51.5954 18.7142 51.5915 18.7285 51.5915 18.7431C51.5915 18.7577 51.5954 18.772 51.6027 18.7846C51.6027 18.7846 51.5026 18.8677 51.5026 18.8843Z" fill="#D9D9D9"/>
</g>
<path id="Vector_56" d="M53.2046 19.7484C53.2117 19.7719 53.2246 19.7933 53.2421 19.8107C53.2595 19.8281 53.281 19.8409 53.3047 19.848H53.4715C53.5468 19.876 53.6298 19.876 53.7051 19.848C53.694 19.824 53.6778 19.8026 53.6577 19.7854C53.6375 19.7682 53.6138 19.7556 53.5883 19.7484H53.4215C53.3451 19.7271 53.2643 19.7271 53.1879 19.7484H53.2046Z" fill="white"/>
<path id="Vector_57" d="M51.5027 18.8844C51.5292 18.9298 51.5704 18.9649 51.6195 18.984H51.7696C51.8509 19.0107 51.9386 19.0107 52.0199 18.984C52.0253 18.9566 52.0253 18.9284 52.0199 18.901C51.9885 18.8599 51.9487 18.826 51.9031 18.8014H51.7529C51.6715 18.7759 51.5841 18.7759 51.5027 18.8014C51.4938 18.8283 51.4938 18.8574 51.5027 18.8844Z" fill="white"/>
</g>
</g>
<g id="Group_21">
<g id="Group_22">
<path id="Vector_58" d="M81.6996 38.5471L81.783 38.4309C81.9028 38.3553 82.0416 38.315 82.1834 38.3146C82.2603 38.2975 82.3401 38.2975 82.417 38.3146C82.4618 38.323 82.5038 38.3426 82.5388 38.3717C82.5739 38.4008 82.6009 38.4383 82.6172 38.4807V40.291C82.6045 40.3564 82.5691 40.4152 82.5171 40.4571C82.4086 40.5444 82.2729 40.5914 82.1334 40.5899C82.051 40.6091 81.9654 40.6091 81.8831 40.5899C81.7663 40.5899 81.6829 40.4737 81.6829 40.3906L81.6996 38.5471Z" fill="url(#paint4_linear_3636_101035)"/>
<path id="Vector_59" d="M82.1667 38.8129C82.2458 38.8253 82.3266 38.8213 82.4041 38.8013C82.4816 38.7813 82.5541 38.7457 82.6172 38.6966C82.6474 38.6726 82.672 38.6423 82.6892 38.6079C82.7065 38.5735 82.7161 38.5358 82.7173 38.4973C82.7014 38.4483 82.6731 38.4042 82.6351 38.3693C82.5971 38.3344 82.5507 38.3098 82.5004 38.298C82.4235 38.2809 82.3437 38.2809 82.2668 38.298C82.1247 38.2964 81.9854 38.3369 81.8664 38.4143C81.8348 38.4399 81.8105 38.4733 81.7958 38.5112C81.7812 38.5491 81.7768 38.5901 81.783 38.6302C81.783 38.7132 81.8664 38.7797 81.9832 38.8295L82.1667 38.8129Z" fill="white"/>
</g>
<g id="Group_23">
<g id="Group_24">
<path id="Vector_60" d="M95.2799 29.4622C95.5936 28.593 96.2335 27.8787 97.065 27.4692L105.674 22.4868C105.902 22.3753 106.153 22.3174 106.408 22.3174C106.662 22.3174 106.913 22.3753 107.142 22.4868L109.695 23.9317L110.145 23.7988V24.4631C110.124 24.5569 110.081 24.6446 110.02 24.7195C109.959 24.7943 109.882 24.8543 109.795 24.895L101.203 29.8774C99.8308 30.6172 98.2914 30.9946 96.7314 30.9735C95.8638 30.9735 95.2132 30.6081 95.2132 30.1099V29.894L95.2799 29.4622Z" fill="#BFA280"/>
<path id="Vector_61" d="M109.862 24.2809L101.269 29.2633C99.9004 30.0102 98.3591 30.3881 96.7982 30.3594C95.9307 30.3594 95.28 29.994 95.28 29.4958C95.28 28.9976 95.5803 27.835 97.1319 26.9049L105.724 21.9225C105.955 21.8084 106.209 21.749 106.466 21.749C106.724 21.749 106.978 21.8084 107.209 21.9225L109.962 23.4837C110.345 23.6498 110.295 24.0317 109.862 24.2809Z" fill="#FFDFB8"/>
</g>
<g id="Group_25">
<path id="Vector_62" d="M61.8623 49.7081C61.8544 49.7352 61.8544 49.764 61.8623 49.7911C61.8681 49.9289 61.9057 50.0636 61.9722 50.1845C62.0388 50.3055 62.1325 50.4096 62.246 50.4887V50.5883L87.2715 35.8237L95.8636 30.8413C95.3464 30.3265 100.769 27.4201 100.769 27.4201C100.716 27.253 100.603 27.1111 100.452 27.0215C100.368 27.0215 100.301 27.0215 100.235 27.0215L86.4874 35.093L61.7288 49.6749L61.8623 49.7081Z" fill="url(#paint5_linear_3636_101035)"/>
<path id="Vector_63" d="M61.8623 49.7078C61.8544 49.7349 61.8544 49.7637 61.8623 49.7908C61.868 49.9286 61.9057 50.0632 61.9722 50.1842C62.0388 50.3052 62.1324 50.4093 62.246 50.4883V50.588L86.6208 36.2718H86.7042C86.7646 36.1969 86.7944 36.102 86.7876 36.0061C86.7841 35.8659 86.7457 35.7288 86.6758 35.6071C86.6059 35.4853 86.5068 35.3828 86.3872 35.3086C86.3559 35.2938 86.3217 35.2861 86.2871 35.2861C86.2525 35.2861 86.2183 35.2938 86.187 35.3086L86.0869 35.3916L61.8122 49.6911L61.8623 49.7078Z" fill="url(#paint6_linear_3636_101035)"/>
<path id="Vector_64" d="M61.6454 49.9076C61.6543 50.0466 61.695 50.1817 61.7644 50.3026C61.8338 50.4235 61.9301 50.527 62.0458 50.6052C62.246 50.7214 62.4128 50.6052 62.4128 50.3395C62.4064 50.1976 62.3669 50.0592 62.2974 49.9353C62.2279 49.8113 62.1303 49.7052 62.0124 49.6253C61.8122 49.5091 61.6454 49.6419 61.6454 49.9076Z" fill="black"/>
</g>
<g id="Group_26">
<path id="Vector_65" d="M61.6623 49.8242L61.4955 49.5253L61.8125 49.3592C61.8575 49.3312 61.9096 49.3164 61.9626 49.3164C62.0157 49.3164 62.0678 49.3312 62.1128 49.3592C62.2636 49.4579 62.389 49.5905 62.4788 49.7463C62.5686 49.902 62.6204 50.0767 62.63 50.2561C62.639 50.3264 62.6281 50.3978 62.5987 50.4623C62.5692 50.5268 62.5223 50.5819 62.4632 50.6214L62.1795 50.7709L62.0461 50.5052C61.8385 50.3328 61.702 50.0904 61.6623 49.8242Z" fill="url(#paint7_linear_3636_101035)"/>
<path id="Vector_66" d="M61.3457 49.9231C61.3558 50.1004 61.4061 50.2732 61.4928 50.4285C61.5795 50.5838 61.7003 50.7176 61.8462 50.8199C62.1131 50.9694 62.33 50.8199 62.3133 50.4712C62.3069 50.2929 62.2582 50.1188 62.1713 49.9629C62.0843 49.807 61.9614 49.6739 61.8128 49.5743C61.5459 49.4248 61.3457 49.5743 61.3457 49.9231Z" fill="black"/>
</g>
</g>
<g id="Group_27">
<g id="Group_28">
<path id="Vector_67" d="M82.2003 38.879L82.5006 39.0617C82.5867 39.1151 82.6856 39.1446 82.787 39.1471C82.8884 39.1496 82.9886 39.125 83.0772 39.0758C83.1658 39.0266 83.2395 38.9547 83.2907 38.8675C83.3419 38.7803 83.3686 38.681 83.3682 38.58V37.3843C83.3428 37.3243 83.2949 37.2766 83.2347 37.2514H83.0679C82.9923 37.2248 82.9098 37.2248 82.8343 37.2514C82.8272 37.2786 82.8272 37.3072 82.8343 37.3344V38.1981C82.8421 38.2308 82.8421 38.2649 82.8343 38.2977L82.2003 38.879Z" fill="#D9D9D9"/>
<path id="Vector_68" d="M81.0824 36.5376V37.916C81.0557 37.997 81.0557 38.0843 81.0824 38.1652L81.5996 37.8662C81.5901 37.8224 81.5901 37.7771 81.5996 37.7334V36.5376C81.5885 36.5135 81.5724 36.4922 81.5522 36.475C81.532 36.4578 81.5084 36.4451 81.4828 36.4379H81.3327C81.2514 36.4113 81.1637 36.4113 81.0824 36.4379C81.0824 36.4379 81.0824 36.4379 81.0824 36.521V36.5376Z" fill="#D9D9D9"/>
</g>
<path id="Vector_69" d="M82.7675 37.4349C82.7746 37.4584 82.7875 37.4798 82.805 37.4972C82.8225 37.5146 82.8439 37.5274 82.8676 37.5345H83.0344C83.1157 37.5612 83.2034 37.5612 83.2847 37.5345C83.2593 37.4882 83.2177 37.4528 83.1679 37.4349H83.001C82.9247 37.4136 82.8439 37.4136 82.7675 37.4349C82.7675 37.4349 82.7675 37.4349 82.7675 37.5179C82.7675 37.601 82.7675 37.4017 82.7675 37.4349Z" fill="white"/>
<path id="Vector_70" d="M81.0658 36.5381C81.0923 36.5835 81.1335 36.6186 81.1826 36.6377H81.3328C81.414 36.6643 81.5017 36.6643 81.583 36.6377C81.5516 36.5967 81.5118 36.5627 81.4662 36.5381H81.3161C81.2258 36.5381 81.138 36.5672 81.0658 36.6211C81.0747 36.5942 81.0747 36.5651 81.0658 36.5381Z" fill="white"/>
</g>
</g>
</g>
</g>
</g>
<defs>
<linearGradient id="paint0_linear_3636_101035" x1="53.088" y1="21.7896" x2="52.137" y2="21.7896" gradientUnits="userSpaceOnUse">
<stop offset="0.14" stop-color="#CCCCCC"/>
<stop offset="0.15" stop-color="#D9D9D9"/>
<stop offset="0.46" stop-color="#D9D9D9"/>
<stop offset="0.47" stop-color="#F2F2F2"/>
<stop offset="0.79" stop-color="#F2F2F2"/>
<stop offset="0.8" stop-color="#D9D9D9"/>
</linearGradient>
<linearGradient id="paint1_linear_3636_101035" x1="51.568" y1="21.2134" x2="52.3165" y2="22.0887" gradientUnits="userSpaceOnUse">
<stop offset="0.2" stop-color="#E8C59B"/>
<stop offset="0.21" stop-color="#FFDFB8"/>
<stop offset="0.53" stop-color="#FFDFB8"/>
<stop offset="0.55" stop-color="#E8C59B"/>
<stop offset="0.85" stop-color="#E8C59B"/>
<stop offset="0.86" stop-color="#BFA280"/>
</linearGradient>
<linearGradient id="paint2_linear_3636_101035" x1="45.4473" y1="26.6063" x2="46.1484" y2="27.406" gradientUnits="userSpaceOnUse">
<stop offset="0.2" stop-color="#2F40A8"/>
<stop offset="0.21" stop-color="#697EFF"/>
<stop offset="0.53" stop-color="#697EFF"/>
<stop offset="0.55" stop-color="#2F40A8"/>
<stop offset="0.85" stop-color="#2F40A8"/>
<stop offset="0.87" stop-color="#151D4B"/>
</linearGradient>
<linearGradient id="paint3_linear_3636_101035" x1="34.6884" y1="35.623" x2="35.5657" y2="36.7443" gradientUnits="userSpaceOnUse">
<stop offset="0.2" stop-color="#3448BB"/>
<stop offset="0.21" stop-color="#697EFF"/>
<stop offset="0.53" stop-color="#697EFF"/>
<stop offset="0.55" stop-color="#3448BB"/>
<stop offset="0.85" stop-color="#3448BB"/>
<stop offset="0.87" stop-color="#202D73"/>
</linearGradient>
<linearGradient id="paint4_linear_3636_101035" x1="82.6506" y1="39.4606" x2="81.7163" y2="39.4606" gradientUnits="userSpaceOnUse">
<stop offset="0.14" stop-color="#CCCCCC"/>
<stop offset="0.15" stop-color="#D9D9D9"/>
<stop offset="0.46" stop-color="#D9D9D9"/>
<stop offset="0.47" stop-color="#F2F2F2"/>
<stop offset="0.79" stop-color="#F2F2F2"/>
<stop offset="0.8" stop-color="#D9D9D9"/>
</linearGradient>
<linearGradient id="paint5_linear_3636_101035" x1="80.4402" y1="38.3973" x2="81.0302" y2="39.3904" gradientUnits="userSpaceOnUse">
<stop offset="0.2" stop-color="#E8C59B"/>
<stop offset="0.21" stop-color="#FFDFB8"/>
<stop offset="0.53" stop-color="#FFDFB8"/>
<stop offset="0.55" stop-color="#E8C59B"/>
<stop offset="0.85" stop-color="#E8C59B"/>
<stop offset="0.86" stop-color="#BFA280"/>
</linearGradient>
<linearGradient id="paint6_linear_3636_101035" x1="73.4754" y1="42.6852" x2="74.0148" y2="43.5955" gradientUnits="userSpaceOnUse">
<stop offset="0.2" stop-color="#2F40A8"/>
<stop offset="0.21" stop-color="#697EFF"/>
<stop offset="0.53" stop-color="#697EFF"/>
<stop offset="0.55" stop-color="#2F40A8"/>
<stop offset="0.85" stop-color="#2F40A8"/>
<stop offset="0.87" stop-color="#151D4B"/>
</linearGradient>
<linearGradient id="paint7_linear_3636_101035" x1="61.2664" y1="49.7664" x2="61.9417" y2="51.0246" gradientUnits="userSpaceOnUse">
<stop offset="0.2" stop-color="#3448BB"/>
<stop offset="0.21" stop-color="#697EFF"/>
<stop offset="0.53" stop-color="#697EFF"/>
<stop offset="0.55" stop-color="#3448BB"/>
<stop offset="0.85" stop-color="#3448BB"/>
<stop offset="0.87" stop-color="#202D73"/>
</linearGradient>
<clipPath id="clip0_3636_101035">
<rect width="131" height="85" fill="white" transform="matrix(-1 0 0 1 131 0)"/>
</clipPath>
</defs>
</svg>
