<svg width="17" height="16" viewBox="0 0 17 16" fill="none" xmlns="http://www.w3.org/2000/svg">
<g clip-path="url(#clip0_3860_286010)">
<path fill-rule="evenodd" clip-rule="evenodd" d="M0.5 8C0.5 5.87827 1.34285 3.84344 2.84315 2.34315C4.34344 0.842855 6.37827 0 8.5 0C10.6217 0 12.6566 0.842855 14.1569 2.34315C15.6571 3.84344 16.5 5.87827 16.5 8C16.5 10.1217 15.6571 12.1566 14.1569 13.6569C12.6566 15.1571 10.6217 16 8.5 16C6.37827 16 4.34344 15.1571 2.84315 13.6569C1.34285 12.1566 0.5 10.1217 0.5 8ZM8.04347 11.424L12.3165 6.08217C12.5003 5.8524 12.4631 5.51713 12.2333 5.33331C12.0036 5.14952 11.6683 5.18674 11.4845 5.41646L7.88987 9.90827L5.51759 7.93167C5.29137 7.74319 4.9552 7.77376 4.7667 7.99996C4.57817 8.22619 4.60876 8.56242 4.83501 8.75092L8.04347 11.424Z" fill="#12B76A"/>
</g>
<defs>
<clipPath id="clip0_3860_286010">
<rect width="16" height="16" fill="white" transform="translate(0.5)"/>
</clipPath>
</defs>
</svg>
