<svg width="88" height="52" viewBox="0 0 88 52" fill="none" xmlns="http://www.w3.org/2000/svg">
<path d="M37.8393 0.188879L34.1515 4.63113L39.8425 5.60371L37.8393 0.188879ZM40.7262 22.7135C40.8635 22.9531 41.1691 23.036 41.4087 22.8987C41.6483 22.7615 41.7312 22.4559 41.5939 22.2163L40.7262 22.7135ZM36.585 4.56392C36.0991 8.59243 36.3392 11.7554 37.1072 14.6112C37.8736 17.4605 39.1593 19.9787 40.7262 22.7135L41.5939 22.2163C40.0379 19.5006 38.8049 17.0728 38.0729 14.3515C37.3427 11.6366 37.1049 8.60425 37.5778 4.68365L36.585 4.56392Z" fill="#32D583"/>
<path d="M24.1562 35.1768C24.1562 35.5999 24.0505 35.9613 23.8389 36.2607C23.6305 36.557 23.3376 36.7832 22.96 36.9395C22.5824 37.0957 22.138 37.1738 21.627 37.1738C21.3568 37.1738 21.1012 37.1608 20.8604 37.1348C20.6195 37.1087 20.3981 37.0713 20.1963 37.0225C19.9945 36.9736 19.8171 36.9134 19.6641 36.8418V36.0459C19.9082 36.1468 20.2061 36.2412 20.5576 36.3291C20.9092 36.4137 21.277 36.4561 21.6611 36.4561C22.0192 36.4561 22.3219 36.4089 22.5693 36.3145C22.8167 36.2168 23.0039 36.0785 23.1309 35.8994C23.2611 35.7171 23.3262 35.499 23.3262 35.2451C23.3262 35.001 23.2725 34.7975 23.165 34.6348C23.0576 34.4688 22.8786 34.319 22.6279 34.1855C22.3805 34.0488 22.042 33.904 21.6123 33.751C21.3096 33.6436 21.0426 33.5264 20.8115 33.3994C20.5804 33.2692 20.3867 33.1227 20.2305 32.96C20.0742 32.7972 19.9554 32.6084 19.874 32.3936C19.7959 32.1787 19.7568 31.9329 19.7568 31.6562C19.7568 31.2754 19.8529 30.9499 20.0449 30.6797C20.2402 30.4062 20.5088 30.1979 20.8506 30.0547C21.1956 29.9082 21.5911 29.835 22.0371 29.835C22.418 29.835 22.7695 29.8708 23.0918 29.9424C23.4173 30.014 23.7152 30.11 23.9854 30.2305L23.7266 30.9434C23.4694 30.8359 23.196 30.7464 22.9062 30.6748C22.6198 30.6032 22.3236 30.5674 22.0176 30.5674C21.7116 30.5674 21.4528 30.613 21.2412 30.7041C21.0329 30.792 20.8734 30.9173 20.7627 31.0801C20.652 31.2428 20.5967 31.4365 20.5967 31.6611C20.5967 31.9118 20.6488 32.1201 20.7529 32.2861C20.8604 32.4521 21.0296 32.6003 21.2607 32.7305C21.4951 32.8574 21.8044 32.9909 22.1885 33.1309C22.6084 33.2839 22.9648 33.4466 23.2578 33.6191C23.5508 33.7884 23.7738 33.9967 23.9268 34.2441C24.0798 34.4883 24.1562 34.7992 24.1562 35.1768ZM27.4961 31.6367C28.1341 31.6367 28.6077 31.7799 28.917 32.0664C29.2262 32.3529 29.3809 32.8102 29.3809 33.4385V37.0762H28.79L28.6338 36.2852H28.5947C28.445 36.4805 28.2887 36.6449 28.126 36.7783C27.9632 36.9085 27.7744 37.0078 27.5596 37.0762C27.348 37.1413 27.0876 37.1738 26.7783 37.1738C26.4528 37.1738 26.1631 37.1169 25.9092 37.0029C25.6585 36.889 25.46 36.7165 25.3135 36.4854C25.1702 36.2542 25.0986 35.9613 25.0986 35.6064C25.0986 35.0726 25.3102 34.6624 25.7334 34.376C26.1566 34.0895 26.8011 33.9333 27.667 33.9072L28.5898 33.8682V33.541C28.5898 33.0788 28.4906 32.7549 28.292 32.5693C28.0934 32.3838 27.8135 32.291 27.4521 32.291C27.1722 32.291 26.9053 32.3317 26.6514 32.4131C26.3975 32.4945 26.1566 32.5905 25.9287 32.7012L25.6797 32.0859C25.9206 31.9622 26.1973 31.8564 26.5098 31.7686C26.8223 31.6807 27.151 31.6367 27.4961 31.6367ZM28.5801 34.4395L27.7646 34.4736C27.0973 34.4997 26.627 34.6087 26.3535 34.8008C26.0801 34.9928 25.9434 35.2646 25.9434 35.6162C25.9434 35.9222 26.0361 36.1484 26.2217 36.2949C26.4072 36.4414 26.653 36.5146 26.959 36.5146C27.4342 36.5146 27.8232 36.3828 28.126 36.1191C28.4287 35.8555 28.5801 35.46 28.5801 34.9326V34.4395ZM32.2275 37.0762L30.1963 31.7246H31.0654L32.2422 34.9619C32.3236 35.1833 32.4066 35.4274 32.4912 35.6943C32.5758 35.9613 32.6344 36.1761 32.667 36.3389H32.7012C32.7402 36.1761 32.8053 35.9613 32.8965 35.6943C32.9876 35.4242 33.0706 35.18 33.1455 34.9619L34.3223 31.7246H35.1914L33.1553 37.0762H32.2275ZM38.1113 31.627C38.5671 31.627 38.9577 31.7279 39.2832 31.9297C39.6087 32.1315 39.8577 32.4147 40.0303 32.7793C40.2028 33.1406 40.2891 33.5638 40.2891 34.0488V34.5518H36.5928C36.6025 35.18 36.7588 35.6585 37.0615 35.9873C37.3643 36.3161 37.7907 36.4805 38.3408 36.4805C38.6794 36.4805 38.9788 36.4495 39.2393 36.3877C39.4997 36.3258 39.7699 36.2347 40.0498 36.1143V36.8271C39.7796 36.9476 39.5111 37.0355 39.2441 37.0908C38.9805 37.1462 38.668 37.1738 38.3066 37.1738C37.7923 37.1738 37.3431 37.0697 36.959 36.8613C36.5781 36.6497 36.2819 36.3405 36.0703 35.9336C35.8587 35.5267 35.7529 35.0286 35.7529 34.4395C35.7529 33.8633 35.849 33.3652 36.041 32.9453C36.2363 32.5221 36.5098 32.1966 36.8613 31.9688C37.2161 31.7409 37.6328 31.627 38.1113 31.627ZM38.1016 32.291C37.6686 32.291 37.3236 32.4326 37.0664 32.7158C36.8092 32.999 36.6562 33.3945 36.6074 33.9023H39.4395C39.4362 33.5833 39.3857 33.3034 39.2881 33.0625C39.1937 32.8184 39.0488 32.6296 38.8535 32.4961C38.6582 32.3594 38.4076 32.291 38.1016 32.291ZM46.1143 33.8633C45.8831 33.7591 45.6878 33.6875 45.5283 33.6484C45.3688 33.6061 45.2126 33.585 45.0596 33.585C44.874 33.585 44.6771 33.6403 44.4688 33.751C44.2637 33.8617 44.0781 34.0016 43.9121 34.1709V33.4434C44.0749 33.2708 44.2555 33.1406 44.4541 33.0527C44.6559 32.9648 44.8757 32.9209 45.1133 32.9209C45.3151 32.9209 45.5104 32.9437 45.6992 32.9893C45.8913 33.0316 46.1305 33.1146 46.417 33.2383C46.6546 33.3392 46.8516 33.4108 47.0078 33.4531C47.1641 33.4954 47.3154 33.5166 47.4619 33.5166C47.654 33.5166 47.8525 33.4613 48.0576 33.3506C48.2627 33.2399 48.4466 33.0999 48.6094 32.9307V33.6484C48.4531 33.8177 48.2757 33.9495 48.0771 34.0439C47.8786 34.1351 47.6589 34.1807 47.418 34.1807C47.2227 34.1807 47.029 34.1595 46.8369 34.1172C46.6449 34.0749 46.404 33.9902 46.1143 33.8633ZM54.3027 37.0762H49.625V36.3975L51.5342 34.459C51.889 34.1009 52.1868 33.7819 52.4277 33.502C52.6719 33.222 52.8574 32.9469 52.9844 32.6768C53.1113 32.4033 53.1748 32.1038 53.1748 31.7783C53.1748 31.3747 53.0544 31.0671 52.8135 30.8555C52.5758 30.6406 52.2617 30.5332 51.8711 30.5332C51.5293 30.5332 51.2266 30.5918 50.9629 30.709C50.6992 30.8262 50.429 30.9922 50.1523 31.207L49.7178 30.6602C49.9066 30.5007 50.1117 30.359 50.333 30.2354C50.5576 30.1117 50.7969 30.014 51.0508 29.9424C51.3079 29.8708 51.5814 29.835 51.8711 29.835C52.3105 29.835 52.6898 29.9115 53.0088 30.0645C53.3278 30.2174 53.5736 30.4355 53.7461 30.7188C53.9219 31.002 54.0098 31.3389 54.0098 31.7295C54.0098 32.1071 53.9349 32.4587 53.7852 32.7842C53.6354 33.1064 53.4255 33.4271 53.1553 33.7461C52.8851 34.0618 52.5693 34.3971 52.208 34.752L50.6553 36.2998V36.334H54.3027V37.0762ZM57.6035 32.7109C58.0885 32.7109 58.5101 32.7939 58.8682 32.96C59.2262 33.1227 59.5029 33.3604 59.6982 33.6729C59.8968 33.9854 59.9961 34.3646 59.9961 34.8105C59.9961 35.2988 59.8903 35.7204 59.6787 36.0752C59.4671 36.4268 59.1628 36.6986 58.7656 36.8906C58.3685 37.0794 57.8932 37.1738 57.3398 37.1738C56.9688 37.1738 56.6237 37.1413 56.3047 37.0762C55.9857 37.0111 55.7171 36.9134 55.499 36.7832V36.0117C55.7367 36.1549 56.0247 36.2689 56.3633 36.3535C56.7018 36.4382 57.0306 36.4805 57.3496 36.4805C57.7109 36.4805 58.0267 36.4235 58.2969 36.3096C58.5703 36.1924 58.7819 36.0166 58.9316 35.7822C59.0846 35.5446 59.1611 35.2467 59.1611 34.8887C59.1611 34.4134 59.0146 34.0472 58.7217 33.79C58.432 33.5296 57.973 33.3994 57.3447 33.3994C57.1429 33.3994 56.9215 33.4157 56.6807 33.4482C56.4398 33.4808 56.2412 33.5166 56.085 33.5557L55.6748 33.2871L55.9482 29.9375H59.498V30.6797H56.6416L56.4609 32.833C56.5846 32.807 56.7441 32.7809 56.9395 32.7549C57.1348 32.7256 57.3561 32.7109 57.6035 32.7109ZM62.5254 29.835C63.0137 29.835 63.3831 30.0303 63.6338 30.4209C63.8877 30.8083 64.0146 31.3568 64.0146 32.0664C64.0146 32.776 63.8926 33.3294 63.6484 33.7266C63.4043 34.1204 63.0299 34.3174 62.5254 34.3174C62.0566 34.3174 61.6969 34.1204 61.4463 33.7266C61.1989 33.3294 61.0752 32.776 61.0752 32.0664C61.0752 31.3568 61.194 30.8083 61.4316 30.4209C61.6693 30.0303 62.0339 29.835 62.5254 29.835ZM62.5254 30.416C62.2617 30.416 62.068 30.5544 61.9443 30.8311C61.8206 31.1045 61.7588 31.5163 61.7588 32.0664C61.7588 32.6165 61.8206 33.0316 61.9443 33.3115C62.068 33.5915 62.2617 33.7314 62.5254 33.7314C62.7988 33.7314 63.0023 33.5915 63.1357 33.3115C63.2692 33.0316 63.3359 32.6165 63.3359 32.0664C63.3359 31.5195 63.2692 31.1077 63.1357 30.8311C63.0055 30.5544 62.8021 30.416 62.5254 30.416ZM67.0469 29.9375L63.0869 37.0762H62.374L66.334 29.9375H67.0469ZM66.8564 32.6963C67.3415 32.6963 67.7109 32.8916 67.9648 33.2822C68.2188 33.6696 68.3457 34.2181 68.3457 34.9277C68.3457 35.6341 68.2236 36.1859 67.9795 36.583C67.7354 36.9769 67.361 37.1738 66.8564 37.1738C66.3844 37.1738 66.0247 36.9769 65.7773 36.583C65.5299 36.1859 65.4062 35.6341 65.4062 34.9277C65.4062 34.2181 65.5234 33.6696 65.7578 33.2822C65.9954 32.8916 66.3617 32.6963 66.8564 32.6963ZM66.8564 33.2822C66.5928 33.2822 66.3991 33.4189 66.2754 33.6924C66.1517 33.9658 66.0898 34.3776 66.0898 34.9277C66.0898 35.4779 66.1517 35.8929 66.2754 36.1729C66.3991 36.4495 66.5928 36.5879 66.8564 36.5879C67.1299 36.5879 67.3333 36.4512 67.4668 36.1777C67.6003 35.901 67.667 35.4844 67.667 34.9277C67.667 34.3809 67.6003 33.9707 67.4668 33.6973C67.3366 33.4206 67.1331 33.2822 66.8564 33.2822ZM0.674805 46.3369C0.674805 45.7868 0.726888 45.2513 0.831055 44.7305C0.938477 44.2096 1.10124 43.7132 1.31934 43.2412C1.53743 42.7692 1.8125 42.3346 2.14453 41.9375H2.9209C2.44889 42.556 2.09408 43.2428 1.85645 43.998C1.61882 44.7533 1.5 45.5296 1.5 46.3271C1.5 46.848 1.55208 47.3623 1.65625 47.8701C1.76367 48.3747 1.92155 48.8613 2.12988 49.3301C2.34147 49.7988 2.60189 50.2415 2.91113 50.6582H2.14453C1.8125 50.2676 1.53743 49.8411 1.31934 49.3789C1.10124 48.9199 0.938477 48.4333 0.831055 47.9189C0.726888 47.4046 0.674805 46.8773 0.674805 46.3369ZM8.13086 43.6025C8.13086 43.9215 8.06901 44.1982 7.94531 44.4326C7.82161 44.667 7.64909 44.859 7.42773 45.0088C7.20638 45.1553 6.94596 45.2578 6.64648 45.3164V45.3555C7.21289 45.4271 7.6377 45.6094 7.9209 45.9023C8.20736 46.1953 8.35059 46.5794 8.35059 47.0547C8.35059 47.4681 8.25293 47.8343 8.05762 48.1533C7.86556 48.4723 7.56934 48.723 7.16895 48.9053C6.77181 49.0843 6.26237 49.1738 5.64062 49.1738C5.26302 49.1738 4.91309 49.1429 4.59082 49.0811C4.27181 49.0225 3.96582 48.9232 3.67285 48.7832V48.0215C3.96908 48.168 4.29134 48.2835 4.63965 48.3682C4.98796 48.4495 5.32487 48.4902 5.65039 48.4902C6.30143 48.4902 6.77181 48.3617 7.06152 48.1045C7.35124 47.8441 7.49609 47.4893 7.49609 47.04C7.49609 46.7308 7.41471 46.4818 7.25195 46.293C7.09245 46.1009 6.86133 45.9609 6.55859 45.873C6.25911 45.7819 5.89779 45.7363 5.47461 45.7363H4.76172V45.043H5.47949C5.86686 45.043 6.19564 44.986 6.46582 44.8721C6.736 44.7581 6.94108 44.5986 7.08105 44.3936C7.22428 44.1852 7.2959 43.9395 7.2959 43.6562C7.2959 43.2949 7.17546 43.0166 6.93457 42.8213C6.69368 42.6227 6.36654 42.5234 5.95312 42.5234C5.69922 42.5234 5.4681 42.5495 5.25977 42.6016C5.05143 42.6536 4.85612 42.7253 4.67383 42.8164C4.49154 42.9076 4.30924 43.0133 4.12695 43.1338L3.7168 42.5771C3.97721 42.3753 4.2946 42.2012 4.66895 42.0547C5.04329 41.9082 5.4681 41.835 5.94336 41.835C6.67253 41.835 7.2194 42.001 7.58398 42.333C7.94857 42.665 8.13086 43.0882 8.13086 43.6025ZM18.209 43.627C18.7982 43.627 19.2425 43.7816 19.542 44.0908C19.8415 44.3968 19.9912 44.89 19.9912 45.5703V49.0762H19.1904V45.6094C19.1904 45.1764 19.096 44.8525 18.9072 44.6377C18.7217 44.4196 18.445 44.3105 18.0771 44.3105C17.5596 44.3105 17.1836 44.4603 16.9492 44.7598C16.7148 45.0592 16.5977 45.5003 16.5977 46.083V49.0762H15.792V45.6094C15.792 45.3197 15.7497 45.0788 15.665 44.8867C15.5837 44.6947 15.46 44.5514 15.2939 44.457C15.1312 44.3594 14.9245 44.3105 14.6738 44.3105C14.319 44.3105 14.0342 44.3838 13.8193 44.5303C13.6045 44.6768 13.4482 44.8949 13.3506 45.1846C13.2562 45.471 13.209 45.8242 13.209 46.2441V49.0762H12.3984V43.7246H13.0527L13.1748 44.4814H13.2188C13.3262 44.2959 13.4613 44.1396 13.624 44.0127C13.7868 43.8857 13.9691 43.7897 14.1709 43.7246C14.3727 43.6595 14.5876 43.627 14.8154 43.627C15.2223 43.627 15.5625 43.7035 15.8359 43.8564C16.1126 44.0062 16.3128 44.2357 16.4365 44.5449H16.4805C16.6562 44.2357 16.8971 44.0062 17.2031 43.8564C17.5091 43.7035 17.8444 43.627 18.209 43.627ZM26.2705 46.3906C26.2705 46.8301 26.2135 47.2223 26.0996 47.5674C25.9857 47.9124 25.8213 48.2038 25.6064 48.4414C25.3916 48.679 25.1312 48.8613 24.8252 48.9883C24.5225 49.112 24.179 49.1738 23.7949 49.1738C23.4368 49.1738 23.1081 49.112 22.8086 48.9883C22.5124 48.8613 22.2552 48.679 22.0371 48.4414C21.8223 48.2038 21.6546 47.9124 21.5342 47.5674C21.417 47.2223 21.3584 46.8301 21.3584 46.3906C21.3584 45.8047 21.4577 45.3066 21.6562 44.8965C21.8548 44.4831 22.138 44.1689 22.5059 43.9541C22.877 43.736 23.318 43.627 23.8291 43.627C24.3174 43.627 24.7438 43.736 25.1084 43.9541C25.4762 44.1722 25.7611 44.488 25.9629 44.9014C26.168 45.3115 26.2705 45.8079 26.2705 46.3906ZM22.1982 46.3906C22.1982 46.8203 22.2552 47.193 22.3691 47.5088C22.4831 47.8245 22.6589 48.0687 22.8965 48.2412C23.1341 48.4137 23.4401 48.5 23.8145 48.5C24.1855 48.5 24.4899 48.4137 24.7275 48.2412C24.9684 48.0687 25.1458 47.8245 25.2598 47.5088C25.3737 47.193 25.4307 46.8203 25.4307 46.3906C25.4307 45.9642 25.3737 45.5964 25.2598 45.2871C25.1458 44.9746 24.9701 44.7337 24.7324 44.5645C24.4948 44.3952 24.1872 44.3105 23.8096 44.3105C23.2529 44.3105 22.8444 44.4945 22.584 44.8623C22.3268 45.2301 22.1982 45.7396 22.1982 46.3906ZM30.2061 43.627C30.8408 43.627 31.321 43.7832 31.6465 44.0957C31.972 44.4049 32.1348 44.903 32.1348 45.5898V49.0762H31.334V45.6436C31.334 45.1976 31.2314 44.8639 31.0264 44.6426C30.8245 44.4212 30.5137 44.3105 30.0938 44.3105C29.5013 44.3105 29.0846 44.4782 28.8438 44.8135C28.6029 45.1488 28.4824 45.6354 28.4824 46.2734V49.0762H27.6719V43.7246H28.3262L28.4482 44.4961H28.4922C28.6061 44.3073 28.751 44.1494 28.9268 44.0225C29.1025 43.8923 29.2995 43.7946 29.5176 43.7295C29.7357 43.6611 29.9652 43.627 30.2061 43.627ZM35.5332 48.5098C35.6667 48.5098 35.8034 48.4984 35.9434 48.4756C36.0833 48.4528 36.1973 48.4251 36.2852 48.3926V49.0225C36.1908 49.0648 36.0589 49.1006 35.8896 49.1299C35.7236 49.1592 35.5609 49.1738 35.4014 49.1738C35.1182 49.1738 34.861 49.125 34.6299 49.0273C34.3988 48.9264 34.2132 48.7572 34.0732 48.5195C33.9365 48.2819 33.8682 47.9531 33.8682 47.5332V44.3594H33.1064V43.9639L33.873 43.6465L34.1953 42.4844H34.6836V43.7246H36.251V44.3594H34.6836V47.5088C34.6836 47.8441 34.7601 48.0947 34.9131 48.2607C35.0693 48.4268 35.276 48.5098 35.5332 48.5098ZM38.1797 41.4785V43.749C38.1797 43.8792 38.1764 44.0111 38.1699 44.1445C38.1634 44.2747 38.152 44.3952 38.1357 44.5059H38.1895C38.3001 44.3171 38.4401 44.1592 38.6094 44.0322C38.7819 43.902 38.9772 43.8044 39.1953 43.7393C39.4134 43.6709 39.6445 43.6367 39.8887 43.6367C40.3184 43.6367 40.6764 43.7051 40.9629 43.8418C41.2526 43.9785 41.4691 44.1901 41.6123 44.4766C41.7588 44.763 41.832 45.1341 41.832 45.5898V49.0762H41.0312V45.6436C41.0312 45.1976 40.9287 44.8639 40.7236 44.6426C40.5218 44.4212 40.2109 44.3105 39.791 44.3105C39.3939 44.3105 39.0765 44.387 38.8389 44.54C38.6045 44.6898 38.4352 44.9111 38.3311 45.2041C38.2301 45.4971 38.1797 45.8551 38.1797 46.2783V49.0762H37.3691V41.4785H38.1797ZM46.9639 47.6113C46.9639 47.9531 46.8776 48.2412 46.7051 48.4756C46.5358 48.7067 46.2917 48.8809 45.9727 48.998C45.6569 49.1152 45.2793 49.1738 44.8398 49.1738C44.4655 49.1738 44.1416 49.1445 43.8682 49.0859C43.5947 49.0273 43.3555 48.9443 43.1504 48.8369V48.0898C43.3685 48.1973 43.6289 48.2949 43.9316 48.3828C44.2344 48.4707 44.5436 48.5146 44.8594 48.5146C45.3216 48.5146 45.6569 48.4398 45.8652 48.29C46.0736 48.1403 46.1777 47.9368 46.1777 47.6797C46.1777 47.5332 46.1354 47.4046 46.0508 47.2939C45.9694 47.18 45.8311 47.071 45.6357 46.9668C45.4404 46.8594 45.1702 46.7422 44.8252 46.6152C44.4834 46.485 44.1872 46.3564 43.9365 46.2295C43.6891 46.0993 43.4971 45.9414 43.3604 45.7559C43.2269 45.5703 43.1602 45.3294 43.1602 45.0332C43.1602 44.5807 43.3424 44.234 43.707 43.9932C44.0749 43.749 44.5566 43.627 45.1523 43.627C45.4746 43.627 45.7757 43.6595 46.0557 43.7246C46.3389 43.7865 46.6025 43.8711 46.8467 43.9785L46.5732 44.6279C46.3519 44.5335 46.1159 44.4538 45.8652 44.3887C45.6146 44.3236 45.359 44.291 45.0986 44.291C44.7243 44.291 44.4362 44.3529 44.2344 44.4766C44.0358 44.6003 43.9365 44.7695 43.9365 44.9844C43.9365 45.1504 43.9821 45.2871 44.0732 45.3945C44.1676 45.502 44.3174 45.6029 44.5225 45.6973C44.7275 45.7917 44.9977 45.9023 45.333 46.0293C45.6683 46.153 45.958 46.2816 46.2021 46.415C46.4463 46.5452 46.6335 46.7048 46.7637 46.8936C46.8971 47.0791 46.9639 47.3184 46.9639 47.6113ZM53.248 44.3594H51.915V49.0762H51.1045V44.3594H50.1572V43.9688L51.1045 43.7002V43.3438C51.1045 42.8945 51.1712 42.5299 51.3047 42.25C51.4382 41.9668 51.6318 41.7585 51.8857 41.625C52.1396 41.4915 52.4489 41.4248 52.8135 41.4248C53.0186 41.4248 53.2057 41.4427 53.375 41.4785C53.5475 41.5143 53.6989 41.555 53.8291 41.6006L53.6191 42.2402C53.5085 42.2044 53.3831 42.1719 53.2432 42.1426C53.1064 42.11 52.9665 42.0938 52.8232 42.0938C52.514 42.0938 52.2845 42.1947 52.1348 42.3965C51.9883 42.5951 51.915 42.9076 51.915 43.334V43.7246H53.248V44.3594ZM58.8486 46.3906C58.8486 46.8301 58.7917 47.2223 58.6777 47.5674C58.5638 47.9124 58.3994 48.2038 58.1846 48.4414C57.9697 48.679 57.7093 48.8613 57.4033 48.9883C57.1006 49.112 56.7572 49.1738 56.373 49.1738C56.015 49.1738 55.6862 49.112 55.3867 48.9883C55.0905 48.8613 54.8333 48.679 54.6152 48.4414C54.4004 48.2038 54.2327 47.9124 54.1123 47.5674C53.9951 47.2223 53.9365 46.8301 53.9365 46.3906C53.9365 45.8047 54.0358 45.3066 54.2344 44.8965C54.4329 44.4831 54.7161 44.1689 55.084 43.9541C55.4551 43.736 55.8962 43.627 56.4072 43.627C56.8955 43.627 57.3219 43.736 57.6865 43.9541C58.0544 44.1722 58.3392 44.488 58.541 44.9014C58.7461 45.3115 58.8486 45.8079 58.8486 46.3906ZM54.7764 46.3906C54.7764 46.8203 54.8333 47.193 54.9473 47.5088C55.0612 47.8245 55.237 48.0687 55.4746 48.2412C55.7122 48.4137 56.0182 48.5 56.3926 48.5C56.7637 48.5 57.068 48.4137 57.3057 48.2412C57.5465 48.0687 57.724 47.8245 57.8379 47.5088C57.9518 47.193 58.0088 46.8203 58.0088 46.3906C58.0088 45.9642 57.9518 45.5964 57.8379 45.2871C57.724 44.9746 57.5482 44.7337 57.3105 44.5645C57.0729 44.3952 56.7653 44.3105 56.3877 44.3105C55.8311 44.3105 55.4225 44.4945 55.1621 44.8623C54.9049 45.2301 54.7764 45.7396 54.7764 46.3906ZM62.6816 43.627C62.7891 43.627 62.9014 43.6335 63.0186 43.6465C63.1357 43.6562 63.2399 43.6709 63.3311 43.6904L63.2285 44.4424C63.1406 44.4196 63.043 44.4017 62.9355 44.3887C62.8281 44.3757 62.7272 44.3691 62.6328 44.3691C62.418 44.3691 62.2145 44.4131 62.0225 44.501C61.8337 44.5856 61.6676 44.7093 61.5244 44.8721C61.3812 45.0316 61.2689 45.2253 61.1875 45.4531C61.1061 45.6777 61.0654 45.9284 61.0654 46.2051V49.0762H60.25V43.7246H60.9238L61.0117 44.7109H61.0459C61.1566 44.5124 61.29 44.3317 61.4463 44.1689C61.6025 44.0029 61.7832 43.8711 61.9883 43.7734C62.1966 43.6758 62.4277 43.627 62.6816 43.627ZM69.3223 44.3594H67.9893V49.0762H67.1787V44.3594H66.2314V43.9688L67.1787 43.7002V43.3438C67.1787 42.8945 67.2454 42.5299 67.3789 42.25C67.5124 41.9668 67.7061 41.7585 67.96 41.625C68.2139 41.4915 68.5231 41.4248 68.8877 41.4248C69.0928 41.4248 69.2799 41.4427 69.4492 41.4785C69.6217 41.5143 69.7731 41.555 69.9033 41.6006L69.6934 42.2402C69.5827 42.2044 69.4574 42.1719 69.3174 42.1426C69.1807 42.11 69.0407 42.0938 68.8975 42.0938C68.5882 42.0938 68.3587 42.1947 68.209 42.3965C68.0625 42.5951 67.9893 42.9076 67.9893 43.334V43.7246H69.3223V44.3594ZM72.7402 43.627C72.8477 43.627 72.96 43.6335 73.0771 43.6465C73.1943 43.6562 73.2985 43.6709 73.3896 43.6904L73.2871 44.4424C73.1992 44.4196 73.1016 44.4017 72.9941 44.3887C72.8867 44.3757 72.7858 44.3691 72.6914 44.3691C72.4766 44.3691 72.2731 44.4131 72.0811 44.501C71.8923 44.5856 71.7262 44.7093 71.583 44.8721C71.4398 45.0316 71.3275 45.2253 71.2461 45.4531C71.1647 45.6777 71.124 45.9284 71.124 46.2051V49.0762H70.3086V43.7246H70.9824L71.0703 44.7109H71.1045C71.2152 44.5124 71.3486 44.3317 71.5049 44.1689C71.6611 44.0029 71.8418 43.8711 72.0469 43.7734C72.2552 43.6758 72.4863 43.627 72.7402 43.627ZM76.4609 43.627C76.9167 43.627 77.3073 43.7279 77.6328 43.9297C77.9583 44.1315 78.2074 44.4147 78.3799 44.7793C78.5524 45.1406 78.6387 45.5638 78.6387 46.0488V46.5518H74.9424C74.9521 47.18 75.1084 47.6585 75.4111 47.9873C75.7139 48.3161 76.1403 48.4805 76.6904 48.4805C77.029 48.4805 77.3285 48.4495 77.5889 48.3877C77.8493 48.3258 78.1195 48.2347 78.3994 48.1143V48.8271C78.1292 48.9476 77.8607 49.0355 77.5938 49.0908C77.3301 49.1462 77.0176 49.1738 76.6562 49.1738C76.1419 49.1738 75.6927 49.0697 75.3086 48.8613C74.9277 48.6497 74.6315 48.3405 74.4199 47.9336C74.2083 47.5267 74.1025 47.0286 74.1025 46.4395C74.1025 45.8633 74.1986 45.3652 74.3906 44.9453C74.5859 44.5221 74.8594 44.1966 75.2109 43.9688C75.5658 43.7409 75.9824 43.627 76.4609 43.627ZM76.4512 44.291C76.0182 44.291 75.6732 44.4326 75.416 44.7158C75.1589 44.999 75.0059 45.3945 74.957 45.9023H77.7891C77.7858 45.5833 77.7354 45.3034 77.6377 45.0625C77.5433 44.8184 77.3984 44.6296 77.2031 44.4961C77.0078 44.3594 76.7572 44.291 76.4512 44.291ZM82.0762 43.627C82.5319 43.627 82.9225 43.7279 83.248 43.9297C83.5736 44.1315 83.8226 44.4147 83.9951 44.7793C84.1676 45.1406 84.2539 45.5638 84.2539 46.0488V46.5518H80.5576C80.5674 47.18 80.7236 47.6585 81.0264 47.9873C81.3291 48.3161 81.7555 48.4805 82.3057 48.4805C82.6442 48.4805 82.9437 48.4495 83.2041 48.3877C83.4645 48.3258 83.7347 48.2347 84.0146 48.1143V48.8271C83.7445 48.9476 83.4759 49.0355 83.209 49.0908C82.9453 49.1462 82.6328 49.1738 82.2715 49.1738C81.7572 49.1738 81.3079 49.0697 80.9238 48.8613C80.543 48.6497 80.2467 48.3405 80.0352 47.9336C79.8236 47.5267 79.7178 47.0286 79.7178 46.4395C79.7178 45.8633 79.8138 45.3652 80.0059 44.9453C80.2012 44.5221 80.4746 44.1966 80.8262 43.9688C81.181 43.7409 81.5977 43.627 82.0762 43.627ZM82.0664 44.291C81.6335 44.291 81.2884 44.4326 81.0312 44.7158C80.7741 44.999 80.6211 45.3945 80.5723 45.9023H83.4043C83.401 45.5833 83.3506 45.3034 83.2529 45.0625C83.1585 44.8184 83.0137 44.6296 82.8184 44.4961C82.623 44.3594 82.3724 44.291 82.0664 44.291ZM87.3252 46.3271C87.3252 46.8708 87.2715 47.4014 87.1641 47.9189C87.0599 48.4333 86.8988 48.9215 86.6807 49.3838C86.4658 49.846 86.1908 50.2708 85.8555 50.6582H85.0889C85.4014 50.2448 85.6618 49.8021 85.8701 49.3301C86.0817 48.8581 86.2396 48.3698 86.3438 47.8652C86.4512 47.3574 86.5049 46.8431 86.5049 46.3223C86.5049 45.7917 86.4512 45.2692 86.3438 44.7549C86.2363 44.2406 86.0768 43.7458 85.8652 43.2705C85.6569 42.7952 85.3949 42.3509 85.0791 41.9375H85.8555C86.1908 42.3379 86.4658 42.7741 86.6807 43.2461C86.8988 43.7148 87.0599 44.2096 87.1641 44.7305C87.2715 45.248 87.3252 45.7803 87.3252 46.3271Z" fill="#32D583"/>
</svg>
