<?xml version="1.0" standalone="no"?>
<svg xmlns:xlink="http://www.w3.org/1999/xlink" id="wave" style="transform:rotate(0deg); transition: 0.3s" viewBox="0 0 1440 280" version="1.1" xmlns="http://www.w3.org/2000/svg"><defs><linearGradient id="sw-gradient-0" x1="0" x2="0" y1="1" y2="0"><stop stop-color="rgba(55, 199, 186.804, 0)" offset="0%"/><stop stop-color="rgba(16, 96, 37.731, 0.32)" offset="100%"/></linearGradient></defs><path style="transform:translate(0, 0px); opacity:1" fill="url(#sw-gradient-0)" d="M0,56L26.7,70C53.3,84,107,112,160,130.7C213.3,149,267,159,320,154C373.3,149,427,131,480,102.7C533.3,75,587,37,640,46.7C693.3,56,747,112,800,149.3C853.3,187,907,205,960,200.7C1013.3,196,1067,168,1120,140C1173.3,112,1227,84,1280,60.7C1333.3,37,1387,19,1440,46.7C1493.3,75,1547,149,1600,149.3C1653.3,149,1707,75,1760,51.3C1813.3,28,1867,56,1920,98C1973.3,140,2027,196,2080,219.3C2133.3,243,2187,233,2240,200.7C2293.3,168,2347,112,2400,107.3C2453.3,103,2507,149,2560,182C2613.3,215,2667,233,2720,219.3C2773.3,205,2827,159,2880,126C2933.3,93,2987,75,3040,84C3093.3,93,3147,131,3200,140C3253.3,149,3307,131,3360,126C3413.3,121,3467,131,3520,144.7C3573.3,159,3627,177,3680,191.3C3733.3,205,3787,215,3813,219.3L3840,224L3840,280L3813.3,280C3786.7,280,3733,280,3680,280C3626.7,280,3573,280,3520,280C3466.7,280,3413,280,3360,280C3306.7,280,3253,280,3200,280C3146.7,280,3093,280,3040,280C2986.7,280,2933,280,2880,280C2826.7,280,2773,280,2720,280C2666.7,280,2613,280,2560,280C2506.7,280,2453,280,2400,280C2346.7,280,2293,280,2240,280C2186.7,280,2133,280,2080,280C2026.7,280,1973,280,1920,280C1866.7,280,1813,280,1760,280C1706.7,280,1653,280,1600,280C1546.7,280,1493,280,1440,280C1386.7,280,1333,280,1280,280C1226.7,280,1173,280,1120,280C1066.7,280,1013,280,960,280C906.7,280,853,280,800,280C746.7,280,693,280,640,280C586.7,280,533,280,480,280C426.7,280,373,280,320,280C266.7,280,213,280,160,280C106.7,280,53,280,27,280L0,280Z"/></svg>