<?xml version="1.0" standalone="no"?>
<svg xmlns:xlink="http://www.w3.org/1999/xlink" id="wave" style="transform:rotate(0deg); transition: 0.3s" viewBox="0 0 1440 490" version="1.1" xmlns="http://www.w3.org/2000/svg"><defs><linearGradient id="sw-gradient-0" x1="0" x2="0" y1="1" y2="0"><stop stop-color="rgba(253, 152, 0, 0.03)" offset="0%"/><stop stop-color="rgba(253, 152, 0, 0.23)" offset="100%"/></linearGradient></defs><path style="transform:translate(0, 0px); opacity:1" fill="url(#sw-gradient-0)" d="M0,196L40,212.3C80,229,160,261,240,277.7C320,294,400,294,480,294C560,294,640,294,720,310.3C800,327,880,359,960,359.3C1040,359,1120,327,1200,277.7C1280,229,1360,163,1440,114.3C1520,65,1600,33,1680,16.3C1760,0,1840,0,1920,24.5C2000,49,2080,98,2160,130.7C2240,163,2320,180,2400,187.8C2480,196,2560,196,2640,163.3C2720,131,2800,65,2880,73.5C2960,82,3040,163,3120,187.8C3200,212,3280,180,3360,171.5C3440,163,3520,180,3600,187.8C3680,196,3760,196,3840,228.7C3920,261,4000,327,4080,302.2C4160,278,4240,163,4320,155.2C4400,147,4480,245,4560,277.7C4640,310,4720,278,4800,220.5C4880,163,4960,82,5040,89.8C5120,98,5200,196,5280,196C5360,196,5440,98,5520,98C5600,98,5680,196,5720,245L5760,294L5760,490L5720,490C5680,490,5600,490,5520,490C5440,490,5360,490,5280,490C5200,490,5120,490,5040,490C4960,490,4880,490,4800,490C4720,490,4640,490,4560,490C4480,490,4400,490,4320,490C4240,490,4160,490,4080,490C4000,490,3920,490,3840,490C3760,490,3680,490,3600,490C3520,490,3440,490,3360,490C3280,490,3200,490,3120,490C3040,490,2960,490,2880,490C2800,490,2720,490,2640,490C2560,490,2480,490,2400,490C2320,490,2240,490,2160,490C2080,490,2000,490,1920,490C1840,490,1760,490,1680,490C1600,490,1520,490,1440,490C1360,490,1280,490,1200,490C1120,490,1040,490,960,490C880,490,800,490,720,490C640,490,560,490,480,490C400,490,320,490,240,490C160,490,80,490,40,490L0,490Z"/></svg>