<svg width="550" height="550" viewBox="0 0 550 550" fill="none" xmlns="http://www.w3.org/2000/svg">
<path d="M550 275C550 426.878 426.878 550 275 550C123.122 550 0 426.878 0 275C0 123.122 123.122 0 275 0C426.878 0 550 123.122 550 275Z" fill="white"/>
<mask id="path-2-inside-1_143_136" fill="white">
<path d="M110.929 439.071C139.726 467.868 175.596 488.579 214.934 499.122C254.271 509.665 295.691 509.668 335.03 499.131C374.37 488.595 410.243 467.89 439.045 439.097C467.847 410.304 488.563 374.437 499.112 335.101L275 275L110.929 439.071Z"/>
</mask>
<path d="M110.929 439.071C139.726 467.868 175.596 488.579 214.934 499.122C254.271 509.665 295.691 509.668 335.03 499.131C374.37 488.595 410.243 467.89 439.045 439.097C467.847 410.304 488.563 374.437 499.112 335.101L275 275L110.929 439.071Z" fill="#E1ECFC" stroke="white" mask="url(#path-2-inside-1_143_136)"/>
<mask id="path-3-inside-2_143_136" fill="white">
<path d="M214.85 50.9005C175.517 61.4578 139.655 82.1819 110.868 110.99C82.0809 139.798 61.3835 175.676 50.8555 215.018C40.3274 254.359 40.3396 295.779 50.8907 335.114C61.4419 374.449 82.1603 410.315 110.964 439.106L275 275L214.85 50.9005Z"/>
</mask>
<path d="M214.85 50.9005C175.517 61.4578 139.655 82.1819 110.868 110.99C82.0809 139.798 61.3835 175.676 50.8555 215.018C40.3274 254.359 40.3396 295.779 50.8907 335.114C61.4419 374.449 82.1603 410.315 110.964 439.106L275 275L214.85 50.9005Z" fill="#BFE9C6" stroke="white" mask="url(#path-3-inside-2_143_136)"/>
<mask id="path-4-inside-3_143_136" fill="white">
<path d="M499.034 335.393C509.634 296.071 509.697 254.651 499.218 215.297C488.739 175.942 468.087 140.039 439.336 111.195C410.585 82.3506 374.748 61.5819 335.428 50.9756C296.107 40.3693 254.688 40.2991 215.332 50.7719L275 275L499.034 335.393Z"/>
</mask>
<path d="M499.034 335.393C509.634 296.071 509.697 254.651 499.218 215.297C488.739 175.942 468.087 140.039 439.336 111.195C410.585 82.3506 374.748 61.5819 335.428 50.9756C296.107 40.3693 254.688 40.2991 215.332 50.7719L275 275L499.034 335.393Z" fill="#FFE5C5" stroke="white" mask="url(#path-4-inside-3_143_136)"/>
<g style="mix-blend-mode:lighten" opacity="0.15">
<circle cx="275.001" cy="275.001" r="180.469" fill="white"/>
</g>
<circle cx="274.198" cy="273.862" r="22.449" fill="white"/>
<path d="M329.225 201.606L325.817 198.327C325.495 198.017 325.161 197.654 324.814 197.238L326.085 204.689L329.225 201.606ZM332.058 198.825L333.089 199.817C333.185 199.909 333.238 200.02 333.248 200.15C333.253 200.276 333.199 200.394 333.085 200.507L332.143 201.431L334.687 203.879L333.152 205.385L330.609 202.938L326.256 207.211C326.137 207.328 325.996 207.396 325.834 207.415C325.667 207.43 325.516 207.396 325.382 207.313L324.295 206.629L322.59 195.485L324.26 193.846L330.759 200.1L332.058 198.825ZM340.691 197.984L333.298 190.87L334.375 189.812C334.604 189.588 334.862 189.545 335.149 189.683L335.811 190.098C335.795 189.833 335.797 189.575 335.814 189.324C335.837 189.068 335.884 188.822 335.954 188.584C336.029 188.342 336.133 188.109 336.266 187.886C336.399 187.653 336.575 187.429 336.793 187.214C337.255 186.761 337.76 186.512 338.31 186.468C338.859 186.414 339.417 186.515 339.982 186.773C339.851 186.425 339.785 186.084 339.783 185.749C339.777 185.41 339.821 185.087 339.915 184.78C340.009 184.473 340.144 184.182 340.319 183.907C340.499 183.627 340.706 183.373 340.939 183.144C341.344 182.747 341.765 182.454 342.204 182.266C342.643 182.078 343.09 181.994 343.544 182.015C343.998 182.036 344.453 182.16 344.908 182.385C345.368 182.606 345.822 182.931 346.268 183.361L350.974 187.888L349.211 189.619L344.506 185.091C344.035 184.638 343.58 184.399 343.14 184.373C342.695 184.343 342.275 184.522 341.88 184.909C341.7 185.087 341.562 185.283 341.467 185.497C341.378 185.706 341.333 185.927 341.335 186.16C341.336 186.383 341.392 186.612 341.503 186.849C341.614 187.085 341.785 187.314 342.016 187.536L346.721 192.064L344.951 193.801L340.246 189.274C339.751 188.798 339.291 188.549 338.865 188.528C338.444 188.502 338.044 188.676 337.663 189.05C337.406 189.302 337.231 189.6 337.137 189.944C337.043 190.279 337.011 190.647 337.042 191.046L342.454 196.253L340.691 197.984ZM348.38 175.838C348.923 175.306 349.504 174.908 350.124 174.645C350.749 174.377 351.382 174.246 352.022 174.252C352.668 174.253 353.312 174.396 353.954 174.681C354.596 174.966 355.207 175.388 355.789 175.947C356.375 176.511 356.818 177.104 357.117 177.725C357.417 178.346 357.573 178.972 357.585 179.604C357.603 180.232 357.477 180.85 357.208 181.46C356.943 182.066 356.539 182.634 355.997 183.167C355.45 183.704 354.864 184.107 354.239 184.375C353.614 184.643 352.977 184.774 352.326 184.768C351.681 184.757 351.035 184.611 350.388 184.331C349.746 184.046 349.132 183.622 348.546 183.058C347.965 182.499 347.524 181.909 347.225 181.287C346.93 180.662 346.776 180.037 346.763 179.415C346.755 178.788 346.886 178.169 347.156 177.559C347.425 176.949 347.833 176.375 348.38 175.838ZM354.628 181.85C355.237 181.252 355.48 180.612 355.357 179.929C355.239 179.242 354.781 178.515 353.983 177.748C353.186 176.98 352.431 176.54 351.718 176.428C351.01 176.311 350.351 176.551 349.742 177.149C349.124 177.756 348.876 178.41 348.999 179.111C349.122 179.803 349.58 180.53 350.373 181.293C351.165 182.055 351.918 182.493 352.631 182.605C353.344 182.709 354.01 182.457 354.628 181.85ZM356.007 170.339C356.006 170.051 356.024 169.768 356.06 169.489C356.097 169.201 356.163 168.926 356.257 168.665C356.351 168.395 356.479 168.135 356.64 167.883C356.797 167.627 356.999 167.377 357.246 167.134C357.646 166.742 358.07 166.461 358.518 166.291C358.962 166.117 359.411 166.05 359.865 166.089C360.32 166.12 360.772 166.25 361.223 166.48C361.673 166.701 362.105 167.01 362.518 167.407L367.224 171.935L365.461 173.665L360.756 169.138C360.304 168.703 359.854 168.468 359.404 168.433C358.95 168.394 358.513 168.58 358.094 168.991C357.79 169.29 357.574 169.637 357.447 170.032C357.32 170.428 357.258 170.858 357.26 171.323L362.607 176.467L360.844 178.198L353.451 171.084L354.528 170.026C354.757 169.802 355.015 169.759 355.302 169.897L356.007 170.339ZM371.358 168.1C370.721 168.726 370.051 169.033 369.348 169.023C368.645 169.003 367.974 168.686 367.335 168.071L363.206 164.098L362.457 164.834C362.362 164.927 362.25 164.977 362.12 164.982C361.991 164.987 361.864 164.93 361.74 164.81L361.033 164.13L362.016 162.787L360.37 160.481C360.297 160.366 360.268 160.25 360.282 160.133C360.295 160.017 360.355 159.908 360.459 159.805L361.373 158.908L363.7 161.148L365.656 159.228L366.924 160.448L364.969 162.368L368.975 166.223C369.206 166.445 369.441 166.564 369.68 166.582C369.924 166.595 370.143 166.505 370.338 166.314C370.447 166.206 370.526 166.106 370.573 166.013C370.621 165.91 370.656 165.82 370.679 165.74C370.708 165.657 370.731 165.582 370.75 165.517C370.764 165.447 370.792 165.391 370.835 165.349C370.888 165.298 370.945 165.27 371.007 165.265C371.064 165.255 371.138 165.257 371.229 165.271L372.622 165.584C372.581 166.045 372.45 166.491 372.227 166.924C372.005 167.358 371.715 167.749 371.358 168.1ZM369.274 157.09C369.291 156.551 369.386 156.032 369.56 155.534C369.735 155.036 370.053 154.561 370.514 154.108C370.914 153.715 371.338 153.434 371.786 153.265C372.23 153.091 372.679 153.023 373.134 153.063C373.588 153.093 374.04 153.223 374.491 153.453C374.941 153.674 375.373 153.983 375.786 154.381L380.492 158.908L378.729 160.639L374.024 156.111C373.572 155.677 373.122 155.442 372.672 155.407C372.218 155.368 371.781 155.553 371.363 155.964C371.058 156.263 370.842 156.611 370.715 157.006C370.588 157.402 370.526 157.832 370.528 158.297L375.875 163.441L374.113 165.172L363.404 154.868L365.167 153.138L369.274 157.09ZM380.683 147.15C380.712 147.271 380.718 147.373 380.699 147.457C380.675 147.536 380.623 147.615 380.542 147.694C380.457 147.779 380.34 147.846 380.192 147.898C380.049 147.946 379.884 148.004 379.698 148.075C379.507 148.141 379.304 148.233 379.09 148.35C378.88 148.463 378.663 148.629 378.44 148.848C378.093 149.189 377.893 149.529 377.843 149.869C377.796 150.203 377.893 150.486 378.134 150.718C378.292 150.87 378.477 150.95 378.687 150.959C378.897 150.958 379.127 150.915 379.375 150.83C379.628 150.74 379.895 150.623 380.176 150.477C380.453 150.327 380.739 150.182 381.035 150.041C381.335 149.895 381.643 149.766 381.958 149.653C382.268 149.535 382.583 149.468 382.903 149.453C383.223 149.428 383.539 149.468 383.85 149.574C384.166 149.674 384.473 149.868 384.771 150.154C385.127 150.496 385.392 150.876 385.566 151.293C385.74 151.701 385.814 152.133 385.788 152.589C385.756 153.04 385.62 153.505 385.379 153.985C385.137 154.455 384.779 154.924 384.303 155.391C384.051 155.639 383.779 155.858 383.489 156.05C383.208 156.242 382.914 156.409 382.609 156.55C382.309 156.686 382.008 156.794 381.707 156.875C381.411 156.951 381.127 156.996 380.855 157.011L380.584 155.96C380.555 155.83 380.554 155.71 380.582 155.598C380.61 155.486 380.679 155.377 380.788 155.269C380.898 155.162 381.031 155.092 381.189 155.058C381.351 155.02 381.533 154.973 381.733 154.916C381.934 154.859 382.151 154.777 382.385 154.669C382.623 154.556 382.875 154.369 383.142 154.107C383.351 153.902 383.506 153.704 383.605 153.513C383.704 153.312 383.761 153.126 383.774 152.954C383.793 152.778 383.77 152.617 383.707 152.474C383.644 152.321 383.555 152.189 383.44 152.078C383.267 151.911 383.073 151.826 382.858 151.823C382.647 151.815 382.416 151.855 382.163 151.945C381.915 152.03 381.65 152.15 381.369 152.304C381.087 152.45 380.794 152.598 380.489 152.748C380.188 152.893 379.878 153.025 379.559 153.143C379.239 153.251 378.914 153.313 378.584 153.329C378.259 153.34 377.929 153.286 377.594 153.167C377.263 153.043 376.935 152.824 376.608 152.509C376.305 152.218 376.077 151.883 375.922 151.502C375.767 151.122 375.703 150.723 375.729 150.304C375.756 149.877 375.88 149.437 376.103 148.985C376.325 148.524 376.662 148.072 377.114 147.628C377.618 147.133 378.162 146.763 378.744 146.519C379.326 146.274 379.891 146.148 380.441 146.141L380.683 147.15ZM338.145 223.135C338.188 223.288 338.201 223.421 338.182 223.532C338.164 223.635 338.107 223.733 338.012 223.826C337.912 223.924 337.766 223.997 337.575 224.044C337.384 224.082 337.162 224.137 336.909 224.208C336.656 224.279 336.384 224.387 336.093 224.533C335.803 224.669 335.51 224.882 335.215 225.171C334.948 225.433 334.749 225.694 334.616 225.955C334.479 226.211 334.399 226.462 334.376 226.709C334.358 226.951 334.398 227.183 334.494 227.405C334.586 227.623 334.728 227.825 334.921 228.009C335.166 228.245 335.436 228.376 335.733 228.403C336.034 228.424 336.354 228.381 336.693 228.272C337.032 228.164 337.39 228.013 337.767 227.821C338.143 227.628 338.534 227.436 338.94 227.243C339.34 227.046 339.753 226.875 340.178 226.728C340.598 226.578 341.025 226.494 341.46 226.478C341.89 226.457 342.323 226.527 342.759 226.687C343.2 226.843 343.636 227.129 344.069 227.545C344.539 227.998 344.9 228.503 345.152 229.059C345.403 229.606 345.528 230.179 345.526 230.779C345.524 231.369 345.391 231.967 345.127 232.572C344.857 233.173 344.437 233.753 343.866 234.314C343.538 234.636 343.181 234.921 342.795 235.17C342.413 235.422 342.015 235.636 341.6 235.81C341.19 235.979 340.772 236.109 340.347 236.199C339.922 236.29 339.507 236.334 339.1 236.331L338.734 234.883C338.715 234.772 338.721 234.658 338.754 234.542C338.782 234.421 338.839 234.318 338.925 234.234C339.044 234.117 339.223 234.04 339.461 234.001C339.695 233.958 339.968 233.901 340.278 233.83C340.588 233.759 340.92 233.648 341.273 233.497C341.626 233.338 341.981 233.083 342.338 232.732C342.885 232.195 343.179 231.655 343.219 231.111C343.254 230.563 343.027 230.053 342.537 229.581C342.263 229.318 341.971 229.17 341.66 229.139C341.354 229.104 341.031 229.14 340.692 229.249C340.349 229.353 339.993 229.506 339.626 229.707C339.259 229.909 338.88 230.108 338.489 230.305C338.098 230.503 337.692 230.677 337.273 230.827C336.853 230.978 336.423 231.059 335.983 231.071C335.543 231.082 335.093 231.001 334.634 230.827C334.174 230.643 333.706 230.323 333.23 229.865C332.851 229.5 332.555 229.071 332.342 228.58C332.134 228.084 332.033 227.562 332.04 227.013C332.047 226.465 332.175 225.904 332.426 225.332C332.676 224.759 333.073 224.206 333.615 223.674C334.224 223.076 334.881 222.617 335.587 222.298C336.293 221.978 337 221.807 337.707 221.785L338.145 223.135ZM347.518 216.132L354.912 223.245L353.834 224.303C353.601 224.532 353.345 224.573 353.067 224.426L352.355 223.976C352.363 224.566 352.282 225.131 352.113 225.671C351.939 226.206 351.607 226.714 351.117 227.195C350.717 227.588 350.295 227.871 349.852 228.045C349.408 228.21 348.956 228.275 348.497 228.24C348.038 228.205 347.583 228.078 347.133 227.857C346.682 227.627 346.25 227.313 345.837 226.915L341.139 222.395L342.901 220.664L347.6 225.185C348.051 225.619 348.504 225.856 348.959 225.896C349.413 225.926 349.847 225.738 350.261 225.332C350.565 225.033 350.784 224.688 350.915 224.297C351.043 223.901 351.105 223.471 351.103 223.007L345.756 217.862L347.518 216.132ZM356.505 217.955C356.95 217.994 357.339 217.948 357.673 217.817C358.012 217.68 358.312 217.483 358.574 217.227C358.845 216.96 359.04 216.676 359.157 216.373C359.275 216.061 359.307 215.731 359.253 215.383C359.194 215.03 359.044 214.659 358.803 214.27C358.557 213.877 358.208 213.462 357.757 213.028C356.945 212.247 356.225 211.814 355.599 211.728C354.967 211.639 354.402 211.839 353.902 212.329C353.564 212.661 353.349 213.027 353.255 213.427C353.157 213.822 353.135 214.269 353.19 214.765L356.505 217.955ZM351.936 213.559C351.919 212.969 351.998 212.411 352.172 211.885C352.346 211.35 352.664 210.856 353.125 210.403C353.549 209.987 354.013 209.694 354.519 209.524C355.03 209.35 355.563 209.299 356.118 209.37C356.672 209.432 357.237 209.615 357.813 209.919C358.388 210.223 358.954 210.643 359.511 211.179C360.112 211.757 360.583 212.354 360.926 212.97C361.268 213.586 361.477 214.199 361.552 214.807C361.627 215.406 361.567 215.987 361.374 216.55C361.181 217.114 360.849 217.626 360.378 218.089C360.15 218.313 359.919 218.493 359.685 218.629C359.456 218.769 359.223 218.877 358.984 218.953C358.745 219.029 358.502 219.076 358.253 219.096C358.005 219.107 357.749 219.101 357.486 219.079L357.905 219.635C358.001 219.783 358.04 219.917 358.021 220.038C358.008 220.154 357.941 220.271 357.822 220.388L356.659 221.53L345.951 211.226L347.714 209.496L351.936 213.559ZM363.272 203.467C363.301 203.588 363.306 203.69 363.287 203.774C363.264 203.853 363.212 203.932 363.131 204.011C363.045 204.096 362.928 204.163 362.78 204.215C362.637 204.263 362.473 204.321 362.287 204.392C362.096 204.458 361.893 204.55 361.678 204.667C361.469 204.78 361.252 204.946 361.028 205.165C360.681 205.506 360.482 205.846 360.431 206.186C360.385 206.52 360.482 206.803 360.722 207.035C360.881 207.187 361.065 207.267 361.276 207.276C361.486 207.275 361.715 207.232 361.963 207.147C362.216 207.057 362.483 206.94 362.765 206.794C363.041 206.644 363.327 206.499 363.623 206.358C363.924 206.212 364.231 206.083 364.546 205.97C364.856 205.852 365.172 205.785 365.492 205.77C365.812 205.745 366.128 205.785 366.439 205.891C366.755 205.991 367.062 206.185 367.36 206.471C367.715 206.813 367.98 207.193 368.154 207.61C368.329 208.018 368.402 208.45 368.376 208.906C368.345 209.357 368.209 209.822 367.967 210.302C367.726 210.772 367.367 211.241 366.891 211.708C366.639 211.956 366.368 212.175 366.077 212.367C365.796 212.559 365.503 212.726 365.198 212.867C364.897 213.003 364.597 213.111 364.296 213.192C364 213.268 363.716 213.313 363.443 213.328L363.173 212.277C363.143 212.147 363.143 212.027 363.171 211.915C363.199 211.803 363.268 211.694 363.377 211.586C363.486 211.479 363.62 211.409 363.778 211.375C363.94 211.337 364.121 211.29 364.322 211.233C364.522 211.176 364.739 211.094 364.973 210.986C365.212 210.873 365.464 210.686 365.73 210.424C365.94 210.219 366.094 210.021 366.194 209.83C366.293 209.629 366.349 209.443 366.363 209.271C366.381 209.095 366.359 208.934 366.296 208.791C366.233 208.638 366.144 208.506 366.029 208.395C365.856 208.228 365.662 208.143 365.446 208.14C365.236 208.132 365.004 208.172 364.751 208.262C364.503 208.347 364.239 208.467 363.957 208.621C363.676 208.767 363.383 208.915 363.077 209.065C362.777 209.21 362.467 209.342 362.147 209.46C361.827 209.568 361.503 209.63 361.173 209.646C360.848 209.657 360.518 209.603 360.182 209.484C359.852 209.36 359.523 209.141 359.197 208.826C358.894 208.535 358.665 208.2 358.51 207.819C358.355 207.439 358.291 207.04 358.318 206.621C358.344 206.194 358.469 205.754 358.691 205.302C358.914 204.841 359.251 204.389 359.703 203.945C360.207 203.45 360.75 203.08 361.332 202.836C361.914 202.591 362.48 202.465 363.03 202.458L363.272 203.467ZM370.444 196.664C370.458 196.78 370.459 196.882 370.445 196.971C370.436 197.054 370.384 197.143 370.289 197.236C370.198 197.325 370.084 197.386 369.945 197.419C369.802 197.448 369.637 197.488 369.451 197.54C369.26 197.588 369.055 197.668 368.836 197.78C368.616 197.884 368.385 198.054 368.143 198.293C367.833 198.596 367.62 198.918 367.502 199.258C367.379 199.593 367.345 199.939 367.4 200.297C367.459 200.649 367.602 201.009 367.828 201.375C368.05 201.736 368.351 202.099 368.73 202.464C369.124 202.843 369.515 203.141 369.904 203.358C370.297 203.569 370.677 203.7 371.046 203.749C371.409 203.794 371.758 203.76 372.092 203.646C372.421 203.529 372.726 203.332 373.007 203.056C373.288 202.781 373.48 202.526 373.584 202.294C373.688 202.051 373.759 201.833 373.796 201.637C373.828 201.437 373.854 201.263 373.872 201.114C373.891 200.956 373.954 200.823 374.064 200.716C374.207 200.576 374.369 200.524 374.551 200.56L375.706 200.687C375.741 201.1 375.724 201.495 375.654 201.872C375.58 202.244 375.467 202.598 375.316 202.933C375.164 203.259 374.977 203.569 374.754 203.863C374.535 204.152 374.298 204.423 374.041 204.675C373.589 205.119 373.079 205.456 372.511 205.686C371.939 205.912 371.339 206.015 370.713 205.995C370.086 205.975 369.45 205.825 368.803 205.545C368.156 205.255 367.53 204.819 366.925 204.237C366.382 203.715 365.956 203.157 365.647 202.564C365.338 201.961 365.165 201.351 365.129 200.733C365.087 200.111 365.192 199.49 365.442 198.871C365.692 198.251 366.105 197.659 366.681 197.094C367.228 196.557 367.795 196.173 368.382 195.943C368.973 195.707 369.599 195.588 370.259 195.585L370.444 196.664ZM373.465 193.151C373.252 192.502 373.177 191.903 373.241 191.354C373.3 190.801 373.544 190.314 373.972 189.894C374.31 189.562 374.656 189.367 375.009 189.31L376.228 190.705C376.291 190.811 376.318 190.906 376.308 190.99C376.299 191.064 376.257 191.139 376.181 191.214C376.109 191.284 375.99 191.377 375.823 191.494C375.661 191.607 375.514 191.728 375.381 191.859C375.186 192.05 375.041 192.249 374.946 192.454C374.852 192.658 374.798 192.875 374.784 193.103C374.771 193.321 374.794 193.551 374.853 193.792C374.916 194.029 375.006 194.282 375.122 194.551L379.676 198.932L377.913 200.663L370.52 193.549L371.555 192.533C371.735 192.356 371.895 192.264 372.034 192.259C372.168 192.249 372.33 192.313 372.522 192.452L373.465 193.151ZM377.671 186.529L385.064 193.642L383.294 195.38L375.901 188.266L377.671 186.529ZM375.759 184.217C375.912 184.365 376.026 184.534 376.098 184.725C376.171 184.915 376.205 185.11 376.202 185.309C376.203 185.505 376.165 185.7 376.09 185.895C376.01 186.086 375.891 186.259 375.734 186.413C375.582 186.563 375.408 186.677 375.212 186.757C375.016 186.828 374.818 186.864 374.617 186.865C374.417 186.866 374.218 186.832 374.022 186.763C373.83 186.69 373.657 186.579 373.504 186.431C373.345 186.279 373.225 186.107 373.143 185.917C373.065 185.723 373.026 185.528 373.025 185.332C373.024 185.137 373.061 184.947 373.137 184.76C373.212 184.565 373.326 184.392 373.478 184.243C373.635 184.089 373.814 183.974 374.014 183.899C374.21 183.819 374.408 183.778 374.609 183.777C374.815 183.771 375.018 183.805 375.219 183.879C375.42 183.952 375.6 184.065 375.759 184.217ZM386.707 188.304C387.151 188.343 387.541 188.297 387.875 188.165C388.214 188.029 388.521 187.825 388.797 187.554C389.063 187.293 389.253 187.008 389.366 186.701C389.479 186.394 389.506 186.068 389.447 185.725C389.393 185.377 389.25 185.013 389.019 184.633C388.783 184.248 388.451 183.85 388.023 183.439C387.591 183.023 387.19 182.707 386.821 182.49C386.452 182.264 386.109 182.124 385.793 182.07C385.477 182.016 385.184 182.038 384.912 182.137C384.644 182.232 384.394 182.393 384.161 182.622C383.795 182.982 383.562 183.364 383.464 183.769C383.361 184.169 383.337 184.617 383.392 185.114L386.707 188.304ZM382.146 184.096C382.105 183.474 382.169 182.874 382.338 182.297C382.507 181.72 382.849 181.179 383.362 180.675C383.762 180.282 384.21 180.006 384.706 179.845C385.207 179.68 385.738 179.636 386.298 179.712C386.857 179.779 387.437 179.976 388.036 180.303C388.635 180.62 389.237 181.07 389.843 181.653C390.395 182.184 390.833 182.749 391.156 183.347C391.48 183.944 391.676 184.545 391.746 185.149C391.821 185.748 391.762 186.334 391.569 186.906C391.376 187.469 391.039 187.987 390.558 188.458C390.149 188.86 389.737 189.143 389.322 189.308C388.902 189.468 388.465 189.552 388.011 189.559L391.038 192.471L389.275 194.201L379.468 184.765L380.545 183.707C380.773 183.483 381.031 183.439 381.319 183.577L382.146 184.096ZM402.26 176.76L400.498 178.49L394.438 172.659L391.041 175.994L395.047 179.849C395.278 180.071 395.513 180.19 395.752 180.208C395.996 180.22 396.215 180.131 396.41 179.939C396.52 179.832 396.598 179.732 396.646 179.639C396.693 179.536 396.728 179.445 396.752 179.366C396.78 179.282 396.804 179.208 396.822 179.143C396.836 179.073 396.865 179.017 396.908 178.975C396.96 178.924 397.017 178.896 397.079 178.891C397.137 178.881 397.211 178.883 397.302 178.896L398.694 179.21C398.654 179.67 398.522 180.117 398.299 180.55C398.077 180.983 397.787 181.375 397.431 181.726C396.793 182.351 396.123 182.659 395.42 182.649C394.717 182.629 394.046 182.312 393.407 181.697L389.278 177.724L388.529 178.46C388.434 178.553 388.322 178.603 388.193 178.608C388.064 178.613 387.937 178.556 387.812 178.435L387.106 177.756L388.081 176.406L386.442 174.107C386.37 173.991 386.34 173.875 386.354 173.759C386.368 173.643 386.427 173.533 386.532 173.431L387.445 172.534L389.773 174.773L394.932 169.708L402.26 176.76ZM392.99 167.244C393.144 167.392 393.26 167.563 393.337 167.758C393.41 167.948 393.444 168.143 393.44 168.343C393.441 168.538 393.402 168.736 393.322 168.936C393.241 169.127 393.123 169.299 392.966 169.453C392.813 169.603 392.642 169.715 392.451 169.79C392.255 169.861 392.057 169.897 391.856 169.898C391.656 169.899 391.457 169.865 391.261 169.796C391.064 169.718 390.889 169.606 390.735 169.458C390.577 169.305 390.459 169.136 390.381 168.951C390.304 168.756 390.265 168.561 390.264 168.366C390.258 168.166 390.293 167.973 390.368 167.787C390.439 167.596 390.551 167.426 390.703 167.276C390.86 167.122 391.039 167.007 391.239 166.932C391.439 166.847 391.642 166.807 391.848 166.81C392.053 166.805 392.257 166.839 392.458 166.912C392.654 166.981 392.832 167.091 392.99 167.244ZM399.79 164.588C400.333 164.056 400.914 163.658 401.534 163.394C402.159 163.126 402.792 162.996 403.432 163.002C404.078 163.003 404.722 163.146 405.364 163.431C406.006 163.716 406.617 164.138 407.199 164.697C407.785 165.261 408.227 165.854 408.527 166.475C408.827 167.096 408.983 167.722 408.995 168.354C409.013 168.981 408.887 169.6 408.618 170.21C408.353 170.815 407.949 171.384 407.407 171.917C406.86 172.454 406.274 172.856 405.649 173.124C405.024 173.392 404.387 173.523 403.736 173.517C403.091 173.507 402.445 173.361 401.798 173.081C401.156 172.796 400.542 172.372 399.956 171.808C399.374 171.249 398.934 170.658 398.635 170.037C398.34 169.412 398.186 168.787 398.173 168.165C398.165 167.538 398.296 166.919 398.566 166.309C398.835 165.699 399.243 165.125 399.79 164.588ZM406.038 170.599C406.647 170.002 406.89 169.362 406.767 168.679C406.649 167.992 406.191 167.265 405.393 166.497C404.596 165.73 403.841 165.29 403.128 165.178C402.42 165.06 401.761 165.301 401.152 165.899C400.534 166.506 400.286 167.16 400.409 167.861C400.532 168.553 400.99 169.28 401.783 170.042C402.575 170.805 403.328 171.243 404.041 171.355C404.754 171.459 405.419 171.207 406.038 170.599ZM407.417 159.089C407.416 158.801 407.434 158.518 407.47 158.239C407.507 157.95 407.573 157.676 407.667 157.415C407.761 157.145 407.889 156.884 408.05 156.633C408.207 156.376 408.409 156.127 408.656 155.884C409.056 155.492 409.48 155.211 409.928 155.041C410.372 154.867 410.821 154.8 411.275 154.839C411.73 154.869 412.182 155 412.633 155.23C413.083 155.45 413.515 155.76 413.928 156.157L418.634 160.685L416.871 162.415L412.166 157.887C411.714 157.453 411.263 157.218 410.814 157.183C410.36 157.144 409.923 157.33 409.504 157.741C409.2 158.039 408.984 158.387 408.857 158.782C408.73 159.178 408.668 159.608 408.67 160.073L414.017 165.217L412.254 166.948L404.861 159.834L405.938 158.776C406.167 158.552 406.425 158.509 406.712 158.647L407.417 159.089Z" fill="#4B4946"/>
<path d="M319.102 361.402C319.174 361.659 319.156 361.88 319.049 362.067C318.95 362.259 318.781 362.386 318.543 362.449L317.111 362.825L314.447 353.27L315.24 353.061C315.402 353.019 315.578 353.007 315.77 353.025C315.97 353.048 316.162 353.115 316.345 353.225L321.779 356.333C322.238 356.591 322.671 356.815 323.077 357.005C323.484 357.201 323.875 357.349 324.249 357.451C324.624 357.552 324.989 357.608 325.344 357.617C325.708 357.632 326.074 357.591 326.441 357.494C326.777 357.406 327.056 357.28 327.281 357.118C327.512 356.953 327.69 356.758 327.813 356.533C327.939 356.314 328.009 356.068 328.023 355.795C328.045 355.527 328.013 355.239 327.927 354.931C327.849 354.649 327.733 354.396 327.582 354.174C327.438 353.957 327.266 353.775 327.066 353.628C326.872 353.479 326.661 353.366 326.431 353.288C326.202 353.211 325.963 353.17 325.713 353.167C325.386 353.136 325.15 353.047 325.005 352.899C324.859 352.751 324.767 352.506 324.727 352.165L324.601 350.854C325.298 350.774 325.937 350.806 326.516 350.95C327.103 351.092 327.621 351.324 328.071 351.647C328.529 351.974 328.916 352.382 329.232 352.871C329.556 353.365 329.805 353.92 329.976 354.536C330.155 355.178 330.223 355.791 330.178 356.375C330.139 356.958 329.999 357.484 329.756 357.955C329.514 358.425 329.177 358.831 328.746 359.172C328.316 359.513 327.8 359.762 327.201 359.92C326.685 360.056 326.186 360.105 325.705 360.066C325.226 360.034 324.75 359.942 324.279 359.79C323.809 359.645 323.34 359.451 322.871 359.21C322.402 358.968 321.923 358.711 321.432 358.441L317.336 356.149C317.511 356.427 317.662 356.707 317.789 356.991C317.925 357.279 318.03 357.558 318.106 357.828L319.102 361.402ZM318.993 369.573L328.914 366.96L329.32 368.415C329.406 368.723 329.317 368.963 329.054 369.136L328.362 369.484C328.604 369.606 328.831 369.739 329.044 369.883C329.259 370.033 329.454 370.199 329.629 370.38C329.806 370.568 329.961 370.776 330.093 371.003C330.234 371.234 330.346 371.498 330.428 371.793C330.602 372.416 330.573 372.972 330.342 373.46C330.12 373.953 329.756 374.373 329.251 374.719C329.622 374.787 329.956 374.906 330.253 375.076C330.556 375.244 330.82 375.447 331.045 375.684C331.271 375.921 331.462 376.184 331.619 376.474C331.777 376.77 331.9 377.075 331.988 377.39C332.14 377.936 332.192 378.443 332.142 378.911C332.093 379.379 331.947 379.8 331.705 380.174C331.464 380.547 331.131 380.869 330.708 381.139C330.287 381.416 329.777 381.633 329.177 381.791L322.862 383.454L322.199 381.074L328.514 379.411C329.146 379.245 329.581 378.982 329.82 378.623C330.065 378.262 330.114 377.815 329.965 377.282C329.897 377.038 329.791 376.821 329.649 376.631C329.507 376.447 329.334 376.297 329.128 376.179C328.93 376.065 328.7 375.995 328.436 375.968C328.172 375.941 327.886 375.968 327.576 376.05L321.262 377.713L320.596 375.324L326.91 373.661C327.575 373.486 328.02 373.224 328.248 372.874C328.478 372.531 328.521 372.103 328.378 371.589C328.281 371.242 328.104 370.941 327.845 370.685C327.596 370.433 327.286 370.218 326.918 370.04L319.656 371.952L318.993 369.573ZM334.788 387.435C334.993 388.167 335.059 388.863 334.987 389.523C334.916 390.189 334.721 390.792 334.401 391.332C334.082 391.877 333.64 392.349 333.072 392.746C332.505 393.144 331.831 393.446 331.051 393.651C330.265 393.858 329.523 393.929 328.827 393.864C328.131 393.8 327.5 393.611 326.935 393.298C326.372 392.991 325.888 392.567 325.481 392.026C325.076 391.492 324.771 390.859 324.567 390.127C324.361 389.388 324.293 388.686 324.364 388.019C324.434 387.353 324.631 386.746 324.956 386.198C325.283 385.657 325.729 385.185 326.295 384.781C326.862 384.383 327.539 384.081 328.325 383.874C329.105 383.668 329.844 383.598 330.54 383.663C331.238 383.734 331.865 383.924 332.422 384.232C332.98 384.547 333.463 384.975 333.869 385.516C334.276 386.057 334.583 386.696 334.788 387.435ZM326.404 389.643C326.634 390.465 327.08 390.999 327.744 391.244C328.409 391.496 329.277 391.482 330.347 391.2C331.417 390.918 332.177 390.504 332.627 389.958C333.079 389.419 333.19 388.738 332.961 387.916C332.728 387.081 332.272 386.536 331.592 386.281C330.92 386.031 330.052 386.045 328.988 386.326C327.924 386.606 327.168 387.019 326.718 387.565C326.276 388.115 326.172 388.808 326.404 389.643ZM335.901 396.711C336.156 396.857 336.398 397.018 336.626 397.192C336.863 397.371 337.073 397.567 337.258 397.78C337.45 397.999 337.618 398.24 337.761 398.506C337.911 398.77 338.032 399.069 338.125 399.403C338.275 399.942 338.315 400.445 338.245 400.912C338.181 401.377 338.019 401.791 337.761 402.156C337.511 402.525 337.174 402.841 336.749 403.105C336.332 403.373 335.847 403.58 335.292 403.726L328.978 405.389L328.314 403.01L334.629 401.347C335.235 401.187 335.664 400.926 335.916 400.564C336.174 400.199 336.224 399.734 336.067 399.169C335.952 398.758 335.751 398.398 335.464 398.087C335.177 397.777 334.827 397.504 334.416 397.267L327.24 399.157L326.577 396.778L336.499 394.165L336.904 395.619C336.99 395.928 336.901 396.168 336.638 396.341L335.901 396.711ZM330.336 410.855C330.096 409.995 330.153 409.27 330.508 408.68C330.871 408.095 331.481 407.69 332.338 407.464L337.879 406.005L337.597 404.993C337.561 404.865 337.573 404.745 337.632 404.633C337.69 404.521 337.804 404.443 337.971 404.398L338.919 404.149L339.623 405.67L342.47 405.457C342.608 405.456 342.725 405.49 342.821 405.561C342.917 405.633 342.985 405.739 343.024 405.88L343.368 407.113L340.244 407.936L340.98 410.575L339.278 411.023L338.542 408.384L333.166 409.8C332.856 409.881 332.635 410.019 332.502 410.213C332.371 410.412 332.342 410.644 332.416 410.907C332.457 411.055 332.507 411.173 332.566 411.261C332.633 411.353 332.696 411.43 332.755 411.49C332.815 411.557 332.869 411.615 332.917 411.664C332.972 411.712 333.008 411.765 333.024 411.823C333.044 411.893 333.04 411.956 333.014 412.011C332.994 412.065 332.956 412.126 332.9 412.197L331.938 413.215C331.551 412.945 331.221 412.604 330.947 412.194C330.674 411.783 330.47 411.337 330.336 410.855ZM341.092 414.735C341.56 415.025 341.972 415.372 342.326 415.775C342.681 416.178 342.945 416.691 343.118 417.313C343.269 417.853 343.309 418.356 343.238 418.823C343.174 419.288 343.013 419.702 342.754 420.067C342.504 420.436 342.167 420.752 341.742 421.016C341.326 421.284 340.84 421.491 340.286 421.637L333.971 423.3L333.308 420.921L339.622 419.258C340.229 419.098 340.657 418.837 340.909 418.474C341.167 418.11 341.218 417.645 341.06 417.08C340.946 416.669 340.745 416.308 340.458 415.998C340.17 415.688 339.821 415.414 339.409 415.178L332.234 417.068L331.57 414.688L345.94 410.904L346.604 413.283L341.092 414.735ZM344.271 429.489C344.15 429.452 344.057 429.404 343.992 429.346C343.934 429.285 343.889 429.2 343.859 429.091C343.826 428.976 343.824 428.842 343.851 428.69C343.879 428.545 343.908 428.375 343.937 428.181C343.973 427.986 343.991 427.767 343.993 427.525C343.997 427.29 343.956 427.022 343.872 426.72C343.742 426.251 343.539 425.908 343.264 425.691C342.99 425.48 342.693 425.417 342.37 425.502C342.158 425.558 341.996 425.673 341.885 425.847C341.783 426.026 341.708 426.242 341.661 426.496C341.616 426.756 341.589 427.042 341.579 427.355C341.576 427.666 341.564 427.983 341.543 428.305C341.524 428.634 341.487 428.961 341.432 429.286C341.384 429.609 341.288 429.91 341.144 430.189C341.009 430.472 340.818 430.719 340.572 430.929C340.328 431.145 340.006 431.305 339.606 431.411C339.129 431.536 338.663 431.566 338.209 431.499C337.762 431.438 337.344 431.279 336.955 431.023C336.571 430.766 336.227 430.412 335.922 429.961C335.624 429.516 335.386 428.972 335.207 428.33C335.112 427.989 335.051 427.647 335.025 427.302C334.993 426.966 334.99 426.632 335.016 426.302C335.043 425.977 335.095 425.667 335.171 425.371C335.25 425.082 335.349 424.818 335.47 424.579L336.532 424.889C336.661 424.931 336.768 424.992 336.853 425.073C336.938 425.154 337.001 425.269 337.042 425.417C337.083 425.564 337.08 425.713 337.032 425.864C336.986 426.021 336.938 426.199 336.89 426.397C336.842 426.596 336.808 426.822 336.788 427.076C336.771 427.335 336.812 427.645 336.912 428.005C336.991 428.287 337.091 428.519 337.211 428.702C337.339 428.888 337.476 429.032 337.621 429.131C337.768 429.237 337.921 429.3 338.079 429.321C338.245 429.346 338.405 429.338 338.56 429.297C338.792 429.236 338.963 429.116 339.071 428.935C339.182 428.761 339.26 428.544 339.305 428.284C339.352 428.031 339.376 427.745 339.378 427.428C339.387 427.115 339.401 426.791 339.418 426.455C339.437 426.126 339.473 425.796 339.526 425.465C339.587 425.139 339.692 424.832 339.841 424.545C339.991 424.264 340.201 424.013 340.471 423.79C340.743 423.573 341.098 423.407 341.536 423.292C341.942 423.185 342.351 423.163 342.764 423.227C343.176 423.291 343.56 423.441 343.917 423.678C344.282 423.92 344.61 424.251 344.9 424.671C345.198 425.095 345.432 425.613 345.602 426.223C345.792 426.903 345.852 427.553 345.782 428.171C345.712 428.789 345.545 429.333 345.282 429.802L344.271 429.489ZM298.012 354.524C297.855 354.482 297.732 354.425 297.642 354.352C297.561 354.284 297.503 354.186 297.467 354.057C297.429 353.922 297.436 353.762 297.488 353.576C297.549 353.395 297.609 353.179 297.671 352.928C297.733 352.677 297.771 352.392 297.785 352.071C297.808 351.755 297.763 351.398 297.652 350.999C297.552 350.64 297.419 350.337 297.254 350.091C297.095 349.843 296.912 349.647 296.705 349.501C296.5 349.362 296.276 349.277 296.032 349.245C295.794 349.211 295.546 349.228 295.288 349.296C294.959 349.382 294.71 349.544 294.541 349.782C294.374 350.026 294.255 350.319 294.185 350.662C294.114 351.004 294.071 351.384 294.056 351.802C294.041 352.219 294.019 352.649 293.99 353.091C293.967 353.531 293.916 353.969 293.837 354.403C293.764 354.836 293.627 355.241 293.428 355.617C293.235 355.992 292.96 356.323 292.604 356.61C292.25 356.903 291.783 357.126 291.203 357.279C290.571 357.445 289.947 357.492 289.332 357.42C288.725 357.352 288.157 357.164 287.628 356.855C287.107 356.551 286.644 356.132 286.239 355.598C285.841 355.061 285.534 354.408 285.319 353.637C285.196 353.194 285.119 352.746 285.089 352.292C285.053 351.839 285.06 351.393 285.11 350.952C285.162 350.518 285.253 350.098 285.382 349.692C285.511 349.286 285.676 348.911 285.878 348.568L287.338 349.001C287.446 349.041 287.543 349.105 287.63 349.193C287.723 349.279 287.786 349.379 287.818 349.495C287.863 349.655 287.843 349.847 287.76 350.068C287.683 350.289 287.6 350.548 287.51 350.848C287.421 351.147 287.355 351.485 287.315 351.861C287.283 352.241 287.334 352.673 287.468 353.154C287.674 353.893 288.007 354.418 288.468 354.731C288.936 355.042 289.498 355.111 290.156 354.938C290.523 354.842 290.797 354.669 290.977 354.422C291.159 354.181 291.285 353.889 291.356 353.547C291.433 353.203 291.473 352.823 291.475 352.409C291.477 351.995 291.487 351.572 291.505 351.14C291.523 350.708 291.568 350.275 291.641 349.842C291.715 349.41 291.854 349.004 292.06 348.626C292.266 348.248 292.559 347.908 292.939 347.608C293.327 347.313 293.84 347.082 294.479 346.913C294.988 346.779 295.512 346.748 296.051 346.82C296.592 346.898 297.103 347.081 297.584 347.367C298.066 347.654 298.498 348.05 298.881 348.556C299.264 349.062 299.558 349.681 299.762 350.413C299.991 351.235 300.074 352.027 300.009 352.788C299.945 353.549 299.748 354.235 299.42 354.846L298.012 354.524ZM299.596 366.05L289.674 368.663L289.269 367.208C289.181 366.894 289.27 366.656 289.537 366.497L290.285 366.124C289.759 365.828 289.3 365.47 288.906 365.05C288.518 364.628 288.232 364.086 288.048 363.425C287.897 362.886 287.854 362.383 287.918 361.918C287.991 361.458 288.155 361.043 288.412 360.672C288.668 360.301 289.005 359.981 289.421 359.713C289.846 359.45 290.336 359.245 290.89 359.099L297.195 357.438L297.858 359.818L291.553 361.478C290.947 361.638 290.515 361.9 290.257 362.264C290.007 362.633 289.96 363.097 290.115 363.656C290.23 364.067 290.428 364.428 290.709 364.741C290.996 365.051 291.345 365.324 291.757 365.56L298.932 363.671L299.596 366.05ZM293.567 372.724C293.314 373.08 293.163 373.433 293.116 373.784C293.07 374.141 293.096 374.496 293.194 374.849C293.296 375.215 293.452 375.525 293.662 375.78C293.879 376.04 294.156 376.236 294.49 376.369C294.831 376.499 295.233 376.563 295.695 376.558C296.164 376.552 296.701 376.469 297.307 376.309C298.397 376.022 299.133 375.635 299.516 375.148C299.906 374.66 300.007 374.078 299.819 373.404C299.692 372.948 299.475 372.578 299.167 372.294C298.866 372.007 298.482 371.76 298.016 371.552L293.567 372.724ZM299.698 371.109C300.228 371.397 300.683 371.749 301.062 372.167C301.45 372.588 301.73 373.111 301.904 373.734C302.063 374.305 302.094 374.849 301.995 375.364C301.899 375.886 301.682 376.363 301.346 376.796C301.018 377.234 300.579 377.619 300.028 377.95C299.477 378.282 298.827 378.546 298.079 378.743C297.273 378.955 296.514 379.048 295.801 379.022C295.088 378.996 294.444 378.859 293.869 378.61C293.303 378.367 292.819 378.019 292.416 377.566C292.013 377.114 291.723 376.57 291.546 375.934C291.46 375.626 291.414 375.338 291.409 375.071C291.397 374.805 291.416 374.552 291.467 374.311C291.517 374.07 291.595 373.84 291.699 373.619C291.812 373.403 291.943 373.19 292.092 372.978L291.395 373.048C291.216 373.053 291.078 373.017 290.981 372.94C290.885 372.869 290.814 372.753 290.77 372.592L290.332 371.022L304.702 367.238L305.365 369.617L299.698 371.109ZM303.048 385.879C302.927 385.842 302.834 385.794 302.769 385.736C302.711 385.675 302.666 385.59 302.636 385.481C302.604 385.366 302.601 385.232 302.628 385.08C302.657 384.935 302.685 384.765 302.714 384.571C302.75 384.376 302.769 384.157 302.77 383.915C302.774 383.68 302.734 383.412 302.65 383.11C302.519 382.641 302.316 382.298 302.041 382.081C301.768 381.87 301.47 381.807 301.148 381.892C300.935 381.948 300.773 382.063 300.662 382.237C300.56 382.416 300.485 382.632 300.438 382.886C300.393 383.146 300.366 383.432 300.356 383.745C300.353 384.056 300.341 384.373 300.32 384.695C300.301 385.024 300.264 385.351 300.209 385.676C300.161 385.999 300.065 386.3 299.921 386.579C299.786 386.862 299.595 387.109 299.349 387.319C299.105 387.535 298.783 387.695 298.383 387.801C297.906 387.926 297.44 387.956 296.986 387.889C296.539 387.828 296.122 387.669 295.732 387.413C295.349 387.156 295.004 386.802 294.699 386.351C294.402 385.906 294.163 385.362 293.984 384.72C293.89 384.379 293.829 384.037 293.802 383.692C293.77 383.356 293.767 383.022 293.793 382.692C293.82 382.368 293.872 382.057 293.949 381.761C294.027 381.472 294.127 381.208 294.247 380.969L295.309 381.279C295.438 381.321 295.545 381.382 295.63 381.463C295.715 381.544 295.778 381.659 295.819 381.807C295.86 381.954 295.857 382.103 295.809 382.254C295.763 382.411 295.716 382.589 295.667 382.788C295.619 382.986 295.585 383.212 295.566 383.466C295.548 383.725 295.589 384.035 295.69 384.395C295.768 384.677 295.868 384.91 295.988 385.092C296.116 385.278 296.253 385.422 296.398 385.521C296.545 385.627 296.698 385.69 296.856 385.711C297.022 385.736 297.183 385.728 297.337 385.687C297.569 385.626 297.74 385.506 297.849 385.325C297.959 385.151 298.037 384.934 298.082 384.674C298.129 384.421 298.154 384.135 298.155 383.818C298.165 383.505 298.178 383.181 298.195 382.845C298.214 382.517 298.25 382.186 298.303 381.855C298.365 381.529 298.469 381.222 298.618 380.935C298.768 380.654 298.978 380.403 299.248 380.18C299.52 379.963 299.875 379.798 300.313 379.682C300.719 379.575 301.129 379.554 301.541 379.617C301.953 379.681 302.338 379.831 302.694 380.068C303.059 380.31 303.387 380.641 303.677 381.061C303.975 381.485 304.209 382.003 304.379 382.613C304.569 383.293 304.629 383.943 304.559 384.561C304.489 385.179 304.323 385.723 304.059 386.192L303.048 385.879ZM305.537 395.439C305.427 395.392 305.336 395.34 305.265 395.283C305.195 395.232 305.143 395.143 305.107 395.014C305.073 394.892 305.075 394.764 305.114 394.63C305.159 394.494 305.204 394.334 305.25 394.149C305.302 393.963 305.332 393.749 305.34 393.505C305.357 393.267 305.319 392.983 305.228 392.656C305.111 392.238 304.932 391.893 304.69 391.619C304.454 391.343 304.164 391.137 303.821 391C303.481 390.869 303.093 390.806 302.658 390.81C302.23 390.812 301.761 390.881 301.251 391.015C300.723 391.154 300.267 391.332 299.885 391.55C299.505 391.775 299.202 392.03 298.978 392.317C298.76 392.602 298.618 392.914 298.554 393.255C298.497 393.594 298.521 393.954 298.626 394.332C298.732 394.711 298.862 395.004 299.017 395.212C299.18 395.424 299.338 395.596 299.493 395.728C299.654 395.858 299.795 395.968 299.918 396.06C300.048 396.157 300.134 396.279 300.175 396.427C300.229 396.619 300.195 396.783 300.074 396.919L299.394 397.832C299.011 397.65 298.671 397.433 298.372 397.181C298.08 396.927 297.823 396.65 297.601 396.35C297.387 396.055 297.205 395.737 297.055 395.398C296.907 395.064 296.784 394.724 296.687 394.378C296.517 393.768 296.47 393.163 296.545 392.564C296.627 391.964 296.831 391.404 297.156 390.883C297.482 390.363 297.927 389.901 298.493 389.497C299.067 389.098 299.76 388.792 300.572 388.578C301.3 388.386 302.003 388.311 302.679 388.354C303.363 388.401 303.988 388.567 304.552 388.853C305.122 389.137 305.62 389.544 306.044 390.073C306.468 390.602 306.789 391.256 307.006 392.033C307.211 392.771 307.272 393.448 307.188 394.063C307.105 394.685 306.903 395.275 306.581 395.836L305.537 395.439ZM307.157 399.798C307.836 399.95 308.402 400.194 308.855 400.529C309.315 400.863 309.626 401.319 309.787 401.897C309.914 402.353 309.916 402.745 309.793 403.074L307.961 403.391C307.836 403.389 307.739 403.363 307.669 403.313C307.608 403.267 307.563 403.193 307.535 403.09C307.508 402.993 307.484 402.845 307.462 402.644C307.442 402.449 307.408 402.262 307.357 402.082C307.284 401.818 307.18 401.594 307.045 401.409C306.911 401.224 306.746 401.068 306.551 400.94C306.365 400.816 306.15 400.718 305.908 400.644C305.668 400.576 305.4 400.522 305.105 400.483L298.994 402.092L298.331 399.713L308.252 397.1L308.642 398.497C308.71 398.741 308.712 398.923 308.649 399.043C308.592 399.161 308.455 399.266 308.238 399.358L307.157 399.798ZM310.943 406.753L301.022 409.366L300.356 406.977L310.277 404.364L310.943 406.753ZM313.926 406.319C313.72 406.373 313.515 406.383 313.311 406.347C313.107 406.311 312.918 406.24 312.743 406.134C312.57 406.035 312.416 405.903 312.28 405.739C312.151 405.573 312.057 405.384 311.998 405.172C311.94 404.967 311.924 404.761 311.95 404.554C311.983 404.352 312.049 404.166 312.147 403.996C312.245 403.825 312.372 403.674 312.529 403.543C312.689 403.419 312.871 403.329 313.077 403.275C313.29 403.219 313.501 403.205 313.709 403.233C313.919 403.267 314.111 403.334 314.284 403.433C314.457 403.532 314.607 403.661 314.735 403.821C314.871 403.985 314.967 404.17 315.024 404.375C315.083 404.587 315.097 404.797 315.065 405.006C315.04 405.212 314.978 405.401 314.88 405.571C314.784 405.748 314.654 405.903 314.491 406.036C314.327 406.169 314.139 406.263 313.926 406.319ZM304.934 413.493C304.68 413.85 304.529 414.203 304.482 414.553C304.436 414.91 304.465 415.275 304.569 415.647C304.669 416.007 304.827 416.313 305.043 416.566C305.259 416.82 305.533 417.01 305.866 417.136C306.2 417.268 306.592 417.334 307.042 417.333C307.498 417.33 308.013 417.253 308.586 417.102C309.167 416.949 309.643 416.772 310.016 416.57C310.397 416.373 310.689 416.155 310.892 415.915C311.095 415.676 311.22 415.415 311.266 415.134C311.314 414.86 311.294 414.565 311.207 414.25C311.069 413.756 310.845 413.363 310.536 413.073C310.233 412.78 309.848 412.53 309.382 412.322L304.934 413.493ZM310.894 411.789C311.465 412.073 311.963 412.435 312.39 412.874C312.817 413.313 313.127 413.879 313.321 414.573C313.471 415.112 313.495 415.633 313.393 416.136C313.293 416.645 313.071 417.116 312.729 417.551C312.395 417.991 311.936 418.38 311.352 418.72C310.777 419.065 310.084 419.344 309.271 419.558C308.53 419.753 307.815 419.834 307.128 419.802C306.441 419.769 305.813 419.628 305.245 419.377C304.679 419.134 304.19 418.783 303.779 418.326C303.376 417.874 303.084 417.324 302.904 416.675C302.75 416.123 302.702 415.629 302.76 415.193C302.825 414.755 302.966 414.342 303.183 413.954L299.122 415.024L298.458 412.645L311.62 409.179L312.025 410.633C312.111 410.941 312.022 411.182 311.759 411.355L310.894 411.789ZM307.493 432.579L306.83 430.2L314.963 428.058L313.684 423.473L308.308 424.889C307.998 424.97 307.777 425.108 307.644 425.302C307.513 425.502 307.484 425.733 307.558 425.996C307.599 426.144 307.649 426.262 307.708 426.35C307.775 426.442 307.838 426.519 307.897 426.579C307.957 426.646 308.011 426.704 308.059 426.754C308.114 426.801 308.15 426.854 308.166 426.912C308.185 426.982 308.182 427.045 308.156 427.1C308.136 427.154 308.098 427.216 308.042 427.286L307.08 428.304C306.693 428.034 306.363 427.693 306.089 427.283C305.816 426.872 305.612 426.426 305.478 425.945C305.238 425.084 305.295 424.359 305.65 423.769C306.012 423.184 306.623 422.779 307.48 422.553L313.021 421.094L312.739 420.082C312.703 419.954 312.715 419.834 312.774 419.722C312.832 419.61 312.945 419.532 313.113 419.488L314.061 419.238L314.775 420.756L317.612 420.546C317.75 420.545 317.867 420.579 317.963 420.65C318.059 420.722 318.127 420.828 318.166 420.969L318.51 422.202L315.386 423.025L317.328 429.989L307.493 432.579ZM320.461 429.609C320.254 429.663 320.046 429.673 319.836 429.639C319.632 429.603 319.443 429.532 319.268 429.427C319.095 429.327 318.94 429.193 318.802 429.022C318.673 428.856 318.579 428.667 318.52 428.455C318.462 428.25 318.447 428.047 318.475 427.847C318.508 427.645 318.574 427.459 318.672 427.288C318.77 427.118 318.897 426.967 319.054 426.836C319.22 426.71 319.406 426.619 319.612 426.565C319.825 426.509 320.032 426.496 320.234 426.525C320.444 426.559 320.636 426.626 320.809 426.725C320.988 426.823 321.142 426.951 321.269 427.111C321.403 427.268 321.499 427.45 321.556 427.656C321.615 427.868 321.629 428.078 321.597 428.286C321.573 428.499 321.509 428.692 321.405 428.864C321.309 429.041 321.179 429.196 321.016 429.328C320.858 429.459 320.673 429.553 320.461 429.609ZM319.466 436.727C319.67 437.459 319.736 438.155 319.664 438.815C319.594 439.482 319.399 440.085 319.078 440.624C318.76 441.17 318.317 441.641 317.75 442.039C317.182 442.437 316.509 442.738 315.729 442.944C314.942 443.151 314.201 443.222 313.504 443.157C312.808 443.092 312.178 442.903 311.613 442.59C311.05 442.283 310.565 441.86 310.158 441.319C309.753 440.784 309.449 440.151 309.244 439.419C309.039 438.681 308.971 437.978 309.041 437.312C309.111 436.645 309.309 436.038 309.634 435.491C309.96 434.95 310.406 434.477 310.972 434.073C311.539 433.676 312.216 433.373 313.003 433.166C313.783 432.961 314.521 432.891 315.217 432.955C315.915 433.027 316.543 433.216 317.099 433.525C317.658 433.84 318.14 434.267 318.547 434.808C318.954 435.349 319.26 435.989 319.466 436.727ZM311.082 438.935C311.311 439.757 311.757 440.291 312.421 440.537C313.086 440.789 313.954 440.774 315.024 440.492C316.095 440.21 316.855 439.797 317.305 439.251C317.756 438.711 317.867 438.031 317.638 437.209C317.406 436.374 316.949 435.829 316.269 435.574C315.597 435.323 314.729 435.338 313.666 435.618C312.602 435.898 311.845 436.311 311.395 436.857C310.954 437.408 310.849 438.1 311.082 438.935ZM320.578 446.003C320.833 446.15 321.075 446.31 321.304 446.484C321.541 446.663 321.751 446.859 321.935 447.073C322.127 447.291 322.295 447.533 322.438 447.799C322.588 448.062 322.709 448.361 322.803 448.695C322.953 449.235 322.993 449.738 322.922 450.204C322.858 450.669 322.697 451.084 322.439 451.448C322.189 451.818 321.851 452.134 321.426 452.397C321.01 452.666 320.524 452.873 319.97 453.019L313.655 454.682L312.992 452.303L319.307 450.64C319.913 450.48 320.342 450.219 320.593 449.856C320.852 449.492 320.902 449.027 320.744 448.462C320.63 448.051 320.429 447.69 320.142 447.38C319.855 447.069 319.505 446.796 319.093 446.56L311.918 448.449L311.254 446.07L321.176 443.457L321.582 444.912C321.668 445.22 321.579 445.461 321.316 445.633L320.578 446.003Z" fill="#4B4946"/>
<path d="M121.777 206.745C122.09 206.116 122.465 205.598 122.902 205.189C123.341 204.775 123.818 204.466 124.334 204.264C124.859 204.058 125.412 203.955 125.995 203.955C126.586 203.951 127.187 204.044 127.798 204.235C128.434 204.434 128.977 204.704 129.425 205.047C129.882 205.385 130.239 205.772 130.495 206.208C130.753 206.638 130.906 207.098 130.955 207.588C131.01 208.08 130.955 208.576 130.79 209.076C130.645 209.513 130.467 209.883 130.254 210.187C130.05 210.486 129.815 210.73 129.549 210.92C129.283 211.109 128.984 211.246 128.654 211.332C128.324 211.417 127.968 211.463 127.587 211.47C128.329 211.988 128.815 212.576 129.047 213.235C129.279 213.894 129.261 214.625 128.996 215.429C128.77 216.113 128.443 216.677 128.015 217.123C127.587 217.569 127.097 217.905 126.545 218.131C125.995 218.35 125.403 218.462 124.77 218.467C124.143 218.474 123.511 218.378 122.875 218.179C122.181 217.963 121.602 217.695 121.139 217.376C120.676 217.057 120.305 216.683 120.025 216.253C119.746 215.824 119.547 215.343 119.428 214.81C119.31 214.277 119.252 213.686 119.256 213.038L120.437 212.936C120.748 212.907 121.012 212.958 121.229 213.089C121.454 213.215 121.587 213.396 121.629 213.632C121.67 213.89 121.722 214.147 121.784 214.404C121.853 214.663 121.955 214.907 122.089 215.138C122.226 215.362 122.404 215.568 122.623 215.755C122.85 215.937 123.142 216.084 123.498 216.196C123.899 216.321 124.27 216.367 124.611 216.333C124.954 216.294 125.259 216.2 125.525 216.053C125.798 215.908 126.024 215.723 126.203 215.5C126.391 215.272 126.527 215.029 126.613 214.769C126.722 214.44 126.785 214.131 126.803 213.844C126.823 213.55 126.753 213.273 126.593 213.014C126.433 212.754 126.161 212.505 125.776 212.266C125.398 212.03 124.859 211.802 124.159 211.583L124.711 209.912C125.292 210.087 125.791 210.183 126.206 210.201C126.621 210.219 126.969 210.174 127.251 210.066C127.54 209.954 127.772 209.785 127.945 209.56C128.117 209.335 128.254 209.07 128.354 208.766C128.568 208.12 128.548 207.573 128.296 207.124C128.045 206.676 127.616 206.357 127.012 206.168C126.732 206.081 126.46 206.042 126.198 206.05C125.937 206.053 125.687 206.097 125.448 206.183C125.218 206.265 125.007 206.381 124.817 206.531C124.627 206.681 124.463 206.86 124.324 207.068C124.12 207.326 123.913 207.474 123.703 207.513C123.5 207.555 123.248 207.5 122.946 207.35L121.777 206.745ZM134.356 221.595L137.575 211.853L139.016 212.303C139.322 212.399 139.475 212.604 139.476 212.918L139.391 213.688C139.625 213.551 139.861 213.433 140.098 213.332C140.341 213.234 140.586 213.16 140.834 213.112C141.088 213.065 141.346 213.048 141.609 213.06C141.88 213.068 142.162 213.118 142.455 213.209C143.072 213.402 143.523 213.728 143.807 214.186C144.099 214.64 144.252 215.174 144.268 215.786C144.527 215.511 144.809 215.295 145.113 215.139C145.42 214.976 145.734 214.865 146.056 214.804C146.378 214.744 146.703 214.727 147.031 214.753C147.366 214.78 147.689 214.843 148.001 214.94C148.542 215.109 148.995 215.341 149.361 215.637C149.727 215.933 150 216.283 150.182 216.689C150.364 217.095 150.453 217.549 150.449 218.05C150.451 218.554 150.354 219.1 150.16 219.689L148.111 225.889L145.753 225.153L147.802 218.953C148.007 218.332 148.024 217.824 147.853 217.429C147.684 217.027 147.335 216.743 146.807 216.579C146.565 216.503 146.326 216.474 146.088 216.49C145.858 216.509 145.636 216.573 145.425 216.681C145.222 216.786 145.037 216.941 144.871 217.147C144.704 217.354 144.571 217.609 144.471 217.913L142.422 224.113L140.055 223.374L142.103 217.174C142.319 216.522 142.342 216.005 142.173 215.624C142.01 215.246 141.674 214.977 141.165 214.818C140.822 214.71 140.472 214.696 140.117 214.773C139.769 214.846 139.42 214.989 139.07 215.201L136.714 222.331L134.356 221.595ZM157.955 218.047C158.681 218.274 159.301 218.596 159.815 219.015C160.336 219.436 160.735 219.927 161.013 220.489C161.297 221.053 161.451 221.68 161.476 222.372C161.5 223.064 161.385 223.793 161.132 224.559C160.877 225.331 160.532 225.992 160.098 226.54C159.664 227.089 159.162 227.516 158.591 227.819C158.027 228.125 157.407 228.301 156.731 228.349C156.062 228.398 155.365 228.31 154.639 228.084C153.907 227.855 153.281 227.53 152.76 227.11C152.239 226.689 151.838 226.193 151.556 225.623C151.28 225.055 151.127 224.425 151.097 223.731C151.072 223.039 151.188 222.307 151.443 221.535C151.696 220.769 152.04 220.111 152.474 219.562C152.914 219.016 153.416 218.592 153.978 218.293C154.546 217.996 155.169 217.823 155.844 217.776C156.52 217.728 157.224 217.819 157.955 218.047ZM155.235 226.279C156.05 226.534 156.741 226.449 157.309 226.026C157.884 225.605 158.344 224.869 158.692 223.818C159.039 222.767 159.106 221.905 158.894 221.231C158.687 220.559 158.177 220.096 157.362 219.842C156.535 219.584 155.829 219.67 155.244 220.102C154.667 220.53 154.207 221.266 153.862 222.31C153.516 223.355 153.45 224.214 153.663 224.888C153.884 225.557 154.408 226.021 155.235 226.279ZM166.344 222.153C166.606 222.018 166.872 221.902 167.143 221.805C167.422 221.704 167.702 221.634 167.981 221.596C168.269 221.553 168.564 221.543 168.865 221.567C169.168 221.585 169.485 221.646 169.815 221.749C170.35 221.916 170.794 222.156 171.147 222.468C171.502 222.775 171.762 223.135 171.927 223.55C172.1 223.96 172.181 224.415 172.171 224.914C172.169 225.409 172.078 225.929 171.898 226.474L169.849 232.674L167.491 231.938L169.54 225.738C169.737 225.143 169.751 224.641 169.584 224.233C169.42 223.818 169.057 223.523 168.497 223.349C168.09 223.222 167.678 223.194 167.261 223.266C166.844 223.339 166.424 223.484 166.001 223.701L163.673 230.746L161.315 230.01L164.534 220.268L165.976 220.718C166.281 220.813 166.434 221.018 166.436 221.333L166.344 222.153ZM175.175 234.504C174.323 234.238 173.746 233.796 173.444 233.178C173.151 232.556 173.144 231.824 173.422 230.982L175.22 225.541L174.218 225.228C174.09 225.189 173.996 225.114 173.934 225.004C173.872 224.894 173.868 224.756 173.923 224.592L174.23 223.661L175.89 223.896L177.265 221.393C177.338 221.276 177.431 221.197 177.543 221.155C177.655 221.113 177.782 221.114 177.922 221.158L179.143 221.539L178.13 224.606L180.746 225.422L180.193 227.094L177.578 226.277L175.833 231.557C175.733 231.86 175.728 232.121 175.818 232.337C175.914 232.556 176.093 232.706 176.353 232.787C176.5 232.833 176.626 232.855 176.732 232.853C176.846 232.847 176.945 232.836 177.027 232.819C177.116 232.805 177.195 232.791 177.262 232.778C177.332 232.757 177.396 232.756 177.453 232.774C177.523 232.796 177.574 232.833 177.606 232.885C177.64 232.93 177.671 232.996 177.699 233.081L178.029 234.441C177.591 234.619 177.125 234.711 176.632 234.718C176.138 234.724 175.653 234.653 175.175 234.504ZM184.296 227.589C184.795 227.353 185.31 227.196 185.842 227.118C186.373 227.039 186.947 227.096 187.565 227.289C188.099 227.456 188.543 227.696 188.896 228.008C189.251 228.315 189.511 228.675 189.676 229.09C189.849 229.5 189.931 229.955 189.92 230.454C189.918 230.949 189.827 231.469 189.647 232.014L187.598 238.214L185.241 237.478L187.289 231.278C187.486 230.683 187.501 230.181 187.334 229.773C187.169 229.358 186.806 229.063 186.246 228.889C185.839 228.762 185.427 228.734 185.01 228.806C184.593 228.879 184.173 229.024 183.75 229.241L181.422 236.286L179.064 235.55L183.727 221.44L186.084 222.176L184.296 227.589ZM198.408 232.936C198.311 233.017 198.22 233.069 198.135 233.092C198.053 233.108 197.957 233.099 197.849 233.065C197.735 233.03 197.621 232.959 197.508 232.854C197.402 232.751 197.275 232.635 197.129 232.505C196.984 232.369 196.811 232.235 196.609 232.102C196.414 231.971 196.166 231.859 195.867 231.766C195.403 231.621 195.004 231.605 194.672 231.718C194.346 231.832 194.131 232.048 194.027 232.364C193.958 232.573 193.966 232.771 194.051 232.959C194.145 233.142 194.286 233.322 194.473 233.499C194.667 233.678 194.892 233.857 195.149 234.035C195.408 234.206 195.667 234.388 195.927 234.581C196.192 234.776 196.446 234.984 196.689 235.207C196.933 235.423 197.134 235.667 197.289 235.939C197.454 236.206 197.557 236.5 197.598 236.821C197.646 237.143 197.605 237.5 197.476 237.893C197.321 238.361 197.092 238.768 196.788 239.113C196.493 239.454 196.132 239.718 195.705 239.906C195.28 240.088 194.795 240.184 194.251 240.196C193.715 240.203 193.128 240.107 192.492 239.909C192.155 239.804 191.834 239.669 191.531 239.504C191.231 239.348 190.95 239.169 190.686 238.968C190.429 238.769 190.197 238.557 189.991 238.332C189.791 238.109 189.623 237.882 189.489 237.652L190.328 236.929C190.434 236.843 190.544 236.787 190.658 236.76C190.772 236.732 190.902 236.742 191.049 236.787C191.195 236.833 191.318 236.917 191.419 237.039C191.525 237.163 191.648 237.299 191.789 237.448C191.929 237.596 192.1 237.748 192.302 237.901C192.511 238.057 192.793 238.191 193.149 238.302C193.429 238.389 193.678 238.432 193.897 238.43C194.123 238.424 194.318 238.387 194.481 238.32C194.65 238.254 194.786 238.16 194.89 238.039C195.001 237.913 195.082 237.774 195.133 237.622C195.208 237.394 195.2 237.186 195.108 236.996C195.022 236.809 194.883 236.626 194.689 236.447C194.502 236.27 194.275 236.094 194.01 235.921C193.753 235.743 193.488 235.555 193.216 235.359C192.951 235.164 192.693 234.954 192.445 234.73C192.204 234.502 192.004 234.247 191.844 233.967C191.69 233.688 191.594 233.375 191.554 233.028C191.521 232.682 191.575 232.294 191.717 231.864C191.849 231.465 192.054 231.11 192.333 230.799C192.611 230.488 192.947 230.247 193.34 230.076C193.742 229.901 194.198 229.806 194.708 229.791C195.227 229.772 195.789 229.856 196.394 230.045C197.068 230.255 197.646 230.558 198.126 230.952C198.607 231.347 198.972 231.782 199.222 232.258L198.408 232.936ZM110.288 231.02C110.168 231.129 110.053 231.202 109.943 231.237C109.841 231.268 109.727 231.264 109.599 231.224C109.466 231.183 109.335 231.09 109.207 230.945C109.088 230.796 108.94 230.628 108.763 230.44C108.587 230.252 108.368 230.065 108.107 229.879C107.854 229.688 107.53 229.531 107.135 229.408C106.779 229.297 106.452 229.244 106.156 229.249C105.861 229.248 105.597 229.294 105.362 229.389C105.134 229.485 104.939 229.627 104.779 229.814C104.621 229.995 104.5 230.212 104.416 230.466C104.31 230.788 104.31 231.085 104.417 231.356C104.531 231.629 104.712 231.888 104.961 232.133C105.21 232.379 105.505 232.621 105.847 232.86C106.189 233.1 106.538 233.352 106.893 233.616C107.25 233.874 107.589 234.155 107.91 234.457C108.233 234.754 108.498 235.088 108.705 235.46C108.915 235.825 109.042 236.235 109.089 236.69C109.142 237.146 109.074 237.659 108.886 238.229C108.681 238.849 108.38 239.398 107.984 239.875C107.596 240.347 107.128 240.721 106.581 240.997C106.042 241.269 105.438 241.43 104.768 241.479C104.101 241.522 103.386 241.425 102.622 241.186C102.183 241.049 101.765 240.87 101.368 240.648C100.969 240.433 100.598 240.184 100.256 239.903C99.9198 239.624 99.6166 239.32 99.3461 238.991C99.0757 238.662 98.8518 238.32 98.6745 237.964L99.8333 236.975C99.9262 236.906 100.033 236.859 100.154 236.834C100.276 236.802 100.395 236.804 100.51 236.84C100.669 236.89 100.819 237.01 100.959 237.2C101.102 237.385 101.274 237.595 101.477 237.833C101.679 238.071 101.927 238.309 102.22 238.547C102.522 238.781 102.911 238.972 103.389 239.121C104.121 239.35 104.743 239.356 105.257 239.139C105.773 238.916 106.138 238.482 106.351 237.836C106.47 237.475 106.475 237.152 106.366 236.866C106.263 236.583 106.087 236.319 105.839 236.073C105.592 235.822 105.295 235.582 104.949 235.356C104.603 235.129 104.253 234.891 103.9 234.641C103.548 234.391 103.21 234.118 102.886 233.822C102.563 233.525 102.299 233.188 102.094 232.81C101.889 232.431 101.764 232.001 101.72 231.52C101.684 231.034 101.77 230.477 101.977 229.851C102.142 229.351 102.401 228.894 102.756 228.481C103.116 228.07 103.548 227.74 104.051 227.492C104.554 227.244 105.122 227.097 105.756 227.05C106.389 227.003 107.068 227.093 107.794 227.319C108.608 227.574 109.317 227.935 109.921 228.402C110.525 228.87 110.993 229.407 111.326 230.014L110.288 231.02ZM120.822 235.953L117.603 245.695L116.161 245.245C115.85 245.147 115.699 244.943 115.711 244.633L115.806 243.803C115.271 244.083 114.72 244.275 114.153 244.377C113.587 244.473 112.977 244.418 112.321 244.214C111.787 244.047 111.342 243.81 110.987 243.504C110.64 243.193 110.381 242.83 110.21 242.413C110.039 241.997 109.954 241.541 109.956 241.046C109.967 240.546 110.062 240.024 110.242 239.48L112.288 233.289L114.646 234.025L112.6 240.216C112.403 240.811 112.388 241.316 112.552 241.73C112.726 242.14 113.089 242.432 113.643 242.605C114.05 242.732 114.461 242.762 114.876 242.696C115.293 242.624 115.713 242.479 116.136 242.262L118.464 235.217L120.822 235.953ZM123.133 244.635C123.294 245.041 123.508 245.359 123.776 245.589C124.05 245.822 124.362 245.992 124.712 246.102C125.075 246.215 125.42 246.253 125.749 246.216C126.085 246.174 126.4 246.049 126.694 245.84C126.99 245.625 127.262 245.323 127.51 244.932C127.76 244.536 127.984 244.04 128.18 243.445C128.534 242.375 128.611 241.547 128.411 240.961C128.214 240.369 127.781 239.968 127.113 239.76C126.661 239.619 126.232 239.6 125.826 239.704C125.422 239.801 125.005 239.989 124.576 240.267L123.133 244.635ZM125.122 238.615C125.653 238.326 126.196 238.136 126.753 238.045C127.318 237.949 127.909 237.997 128.527 238.19C129.093 238.367 129.566 238.636 129.944 238.999C130.329 239.364 130.612 239.804 130.792 240.322C130.981 240.834 131.064 241.412 131.041 242.054C131.018 242.696 130.886 243.385 130.643 244.119C130.381 244.91 130.045 245.598 129.635 246.182C129.224 246.766 128.758 247.232 128.236 247.579C127.723 247.921 127.167 248.139 126.567 248.231C125.968 248.323 125.354 248.271 124.724 248.074C124.418 247.979 124.152 247.861 123.925 247.72C123.695 247.586 123.493 247.432 123.319 247.259C123.144 247.086 122.993 246.895 122.865 246.688C122.746 246.476 122.638 246.25 122.541 246.011L122.22 246.633C122.127 246.786 122.022 246.882 121.903 246.922C121.791 246.964 121.656 246.96 121.497 246.91L119.941 246.424L124.603 232.315L126.961 233.051L125.122 238.615ZM139.34 243.828C139.243 243.909 139.152 243.961 139.067 243.983C138.985 243.999 138.889 243.991 138.781 243.957C138.667 243.921 138.553 243.851 138.44 243.746C138.334 243.643 138.207 243.526 138.061 243.397C137.916 243.261 137.743 243.127 137.541 242.994C137.346 242.863 137.098 242.751 136.799 242.657C136.335 242.512 135.936 242.496 135.604 242.609C135.278 242.724 135.063 242.94 134.959 243.256C134.89 243.465 134.898 243.663 134.983 243.85C135.077 244.033 135.218 244.213 135.405 244.391C135.599 244.57 135.824 244.748 136.081 244.926C136.34 245.098 136.6 245.28 136.859 245.473C137.124 245.667 137.379 245.876 137.621 246.098C137.866 246.314 138.066 246.558 138.221 246.83C138.386 247.098 138.489 247.392 138.53 247.712C138.578 248.034 138.537 248.392 138.408 248.784C138.253 249.253 138.024 249.659 137.72 250.005C137.425 250.345 137.064 250.61 136.637 250.798C136.212 250.979 135.727 251.076 135.183 251.087C134.647 251.095 134.061 250.999 133.424 250.8C133.087 250.695 132.766 250.56 132.463 250.396C132.163 250.239 131.882 250.061 131.618 249.86C131.361 249.661 131.129 249.449 130.923 249.224C130.723 249.001 130.556 248.774 130.421 248.543L131.26 247.821C131.366 247.735 131.476 247.678 131.59 247.651C131.704 247.624 131.835 247.633 131.981 247.679C132.127 247.725 132.25 247.809 132.351 247.931C132.457 248.055 132.58 248.191 132.721 248.339C132.861 248.488 133.033 248.639 133.234 248.793C133.443 248.949 133.725 249.082 134.081 249.194C134.361 249.281 134.611 249.324 134.829 249.322C135.055 249.316 135.25 249.279 135.413 249.211C135.582 249.145 135.718 249.052 135.822 248.93C135.933 248.804 136.014 248.666 136.065 248.514C136.14 248.286 136.132 248.077 136.04 247.888C135.954 247.701 135.815 247.517 135.621 247.338C135.434 247.161 135.208 246.986 134.942 246.812C134.685 246.634 134.42 246.447 134.148 246.25C133.883 246.056 133.626 245.846 133.377 245.622C133.136 245.393 132.936 245.139 132.776 244.858C132.622 244.58 132.526 244.267 132.486 243.919C132.453 243.574 132.507 243.186 132.65 242.755C132.781 242.356 132.986 242.002 133.265 241.69C133.543 241.379 133.879 241.138 134.272 240.968C134.674 240.793 135.13 240.698 135.64 240.683C136.159 240.663 136.721 240.748 137.326 240.936C138 241.147 138.578 241.449 139.058 241.844C139.539 242.238 139.904 242.673 140.154 243.149L139.34 243.828ZM148.717 246.932C148.618 246.999 148.525 247.047 148.438 247.076C148.358 247.107 148.254 247.102 148.127 247.062C148.006 247.025 147.899 246.953 147.808 246.848C147.718 246.736 147.609 246.611 147.479 246.473C147.351 246.328 147.188 246.186 146.988 246.047C146.797 245.904 146.539 245.781 146.214 245.68C145.8 245.551 145.413 245.513 145.051 245.568C144.691 245.616 144.36 245.747 144.058 245.96C143.762 246.175 143.497 246.466 143.264 246.833C143.032 247.194 142.834 247.624 142.669 248.124C142.497 248.643 142.398 249.122 142.373 249.561C142.353 250.002 142.403 250.394 142.521 250.738C142.641 251.076 142.826 251.364 143.077 251.603C143.33 251.836 143.645 252.011 144.02 252.128C144.396 252.245 144.713 252.295 144.971 252.278C145.238 252.257 145.469 252.217 145.663 252.159C145.86 252.095 146.03 252.036 146.174 251.983C146.326 251.926 146.476 251.92 146.622 251.966C146.813 252.026 146.932 252.143 146.979 252.319L147.375 253.385C147.014 253.607 146.646 253.775 146.271 253.889C145.899 253.996 145.526 254.061 145.153 254.084C144.789 254.103 144.424 254.084 144.057 254.025C143.696 253.968 143.344 253.886 143.001 253.779C142.396 253.59 141.863 253.302 141.402 252.913C140.943 252.519 140.584 252.044 140.325 251.488C140.066 250.932 139.922 250.308 139.891 249.614C139.869 248.916 139.99 248.168 140.253 247.37C140.49 246.655 140.81 246.025 141.215 245.481C141.628 244.933 142.108 244.499 142.655 244.181C143.204 243.857 143.817 243.661 144.492 243.592C145.168 243.524 145.891 243.61 146.661 243.85C147.393 244.078 147.993 244.395 148.463 244.8C148.94 245.207 149.325 245.698 149.62 246.272L148.717 246.932ZM153.258 247.941C153.756 247.454 154.269 247.112 154.798 246.914C155.328 246.709 155.88 246.696 156.453 246.875C156.905 247.016 157.235 247.227 157.444 247.509L156.711 249.218C156.641 249.322 156.566 249.389 156.486 249.42C156.414 249.447 156.327 249.444 156.226 249.412C156.13 249.382 155.992 249.322 155.812 249.231C155.638 249.141 155.461 249.069 155.283 249.013C155.022 248.932 154.777 248.897 154.549 248.91C154.32 248.922 154.099 248.975 153.885 249.069C153.68 249.159 153.48 249.285 153.286 249.448C153.098 249.613 152.908 249.808 152.714 250.034L150.731 256.035L148.373 255.299L151.592 245.557L152.976 245.989C153.218 246.064 153.372 246.161 153.438 246.28C153.506 246.392 153.52 246.564 153.478 246.795L153.258 247.941ZM161.158 248.543L157.939 258.285L155.571 257.546L158.79 247.804L161.158 248.543ZM162.42 245.805C162.353 246.007 162.249 246.184 162.108 246.336C161.967 246.487 161.804 246.608 161.62 246.697C161.443 246.788 161.248 246.846 161.036 246.871C160.827 246.889 160.617 246.865 160.407 246.8C160.203 246.736 160.022 246.638 159.862 246.504C159.711 246.366 159.591 246.21 159.501 246.035C159.411 245.861 159.354 245.672 159.33 245.469C159.312 245.268 159.337 245.066 159.404 244.863C159.473 244.654 159.576 244.47 159.713 244.31C159.856 244.153 160.017 244.028 160.194 243.937C160.372 243.846 160.562 243.79 160.766 243.77C160.977 243.745 161.185 243.764 161.389 243.828C161.599 243.893 161.782 243.996 161.94 244.136C162.099 244.27 162.224 244.424 162.314 244.598C162.41 244.775 162.469 244.968 162.491 245.177C162.513 245.387 162.489 245.596 162.42 245.805ZM163.535 257.245C163.695 257.651 163.91 257.97 164.178 258.2C164.452 258.432 164.774 258.606 165.143 258.721C165.499 258.832 165.842 258.866 166.173 258.823C166.503 258.779 166.812 258.652 167.099 258.441C167.393 258.233 167.661 257.939 167.906 257.562C168.152 257.178 168.368 256.704 168.554 256.141C168.742 255.571 168.854 255.075 168.888 254.653C168.931 254.226 168.907 253.863 168.816 253.562C168.726 253.262 168.576 253.016 168.365 252.824C168.161 252.635 167.903 252.491 167.591 252.394C167.101 252.241 166.65 252.215 166.237 252.317C165.827 252.412 165.407 252.599 164.978 252.877L163.535 257.245ZM165.356 251.319C165.905 250.995 166.481 250.773 167.082 250.653C167.683 250.534 168.327 250.581 169.014 250.796C169.549 250.963 169.999 251.225 170.365 251.584C170.737 251.945 171.013 252.387 171.191 252.91C171.377 253.429 171.454 254.026 171.421 254.7C171.396 255.369 171.252 256.103 170.988 256.9C170.748 257.628 170.426 258.272 170.024 258.831C169.622 259.389 169.161 259.839 168.641 260.18C168.128 260.522 167.567 260.742 166.96 260.838C166.361 260.931 165.74 260.877 165.097 260.676C164.55 260.505 164.109 260.277 163.775 259.991C163.444 259.699 163.174 259.356 162.967 258.964L161.649 262.952L159.292 262.216L163.561 249.293L165.003 249.743C165.308 249.838 165.462 250.043 165.463 250.358L165.356 251.319ZM180.943 265.465L178.585 264.729L181.224 256.743L176.68 255.325L174.935 260.604C174.835 260.908 174.83 261.168 174.92 261.385C175.016 261.604 175.194 261.754 175.455 261.835C175.602 261.881 175.728 261.903 175.834 261.901C175.948 261.895 176.047 261.883 176.129 261.867C176.218 261.853 176.296 261.839 176.364 261.825C176.434 261.805 176.498 261.804 176.555 261.822C176.625 261.844 176.676 261.881 176.708 261.933C176.742 261.978 176.773 262.044 176.801 262.129L177.131 263.489C176.693 263.667 176.227 263.759 175.734 263.765C175.24 263.772 174.755 263.701 174.277 263.552C173.425 263.286 172.848 262.844 172.546 262.226C172.253 261.604 172.246 260.872 172.524 260.03L174.322 254.589L173.32 254.276C173.192 254.237 173.098 254.162 173.036 254.052C172.974 253.941 172.97 253.804 173.025 253.64L173.332 252.709L174.995 252.935L176.367 250.441C176.44 250.324 176.533 250.245 176.645 250.203C176.757 250.161 176.883 250.162 177.023 250.206L178.245 250.587L177.232 253.654L184.134 255.808L180.943 265.465ZM185.523 252.974C185.456 253.176 185.351 253.356 185.207 253.514C185.066 253.666 184.903 253.786 184.72 253.875C184.542 253.966 184.344 254.023 184.126 254.046C183.916 254.064 183.707 254.041 183.497 253.975C183.293 253.912 183.115 253.814 182.961 253.683C182.81 253.545 182.69 253.388 182.6 253.214C182.511 253.039 182.454 252.85 182.43 252.647C182.414 252.44 182.439 252.235 182.506 252.032C182.575 251.823 182.677 251.642 182.812 251.489C182.956 251.331 183.116 251.207 183.294 251.115C183.473 251.018 183.665 250.959 183.868 250.939C184.074 250.912 184.278 250.93 184.482 250.994C184.692 251.059 184.875 251.162 185.033 251.302C185.199 251.438 185.325 251.596 185.413 251.777C185.509 251.953 185.568 252.146 185.59 252.356C185.614 252.559 185.592 252.765 185.523 252.974ZM190.952 257.675C191.678 257.901 192.298 258.224 192.812 258.643C193.333 259.064 193.732 259.555 194.01 260.116C194.294 260.68 194.448 261.308 194.473 261.999C194.497 262.691 194.382 263.42 194.129 264.186C193.874 264.958 193.529 265.619 193.095 266.168C192.661 266.717 192.159 267.143 191.588 267.447C191.024 267.752 190.404 267.929 189.728 267.976C189.059 268.026 188.362 267.937 187.636 267.711C186.904 267.483 186.278 267.158 185.757 266.737C185.236 266.316 184.835 265.821 184.553 265.251C184.277 264.683 184.124 264.052 184.094 263.358C184.069 262.666 184.185 261.934 184.44 261.162C184.693 260.396 185.037 259.739 185.471 259.19C185.911 258.643 186.413 258.22 186.975 257.92C187.544 257.623 188.166 257.451 188.841 257.403C189.517 257.356 190.221 257.446 190.952 257.675ZM188.232 265.907C189.047 266.161 189.738 266.077 190.306 265.653C190.881 265.232 191.342 264.496 191.689 263.445C192.036 262.395 192.103 261.532 191.891 260.858C191.684 260.186 191.174 259.723 190.359 259.469C189.532 259.211 188.826 259.298 188.241 259.73C187.664 260.157 187.204 260.893 186.859 261.938C186.513 262.982 186.447 263.841 186.66 264.515C186.881 265.185 187.405 265.649 188.232 265.907ZM199.341 261.78C199.603 261.646 199.869 261.53 200.14 261.433C200.419 261.331 200.699 261.261 200.978 261.223C201.266 261.18 201.561 261.171 201.862 261.195C202.165 261.213 202.482 261.273 202.812 261.376C203.347 261.543 203.791 261.783 204.144 262.096C204.499 262.402 204.759 262.763 204.924 263.177C205.097 263.587 205.178 264.042 205.168 264.542C205.166 265.037 205.075 265.557 204.895 266.101L202.846 272.301L200.488 271.565L202.537 265.365C202.734 264.77 202.748 264.268 202.581 263.86C202.417 263.446 202.054 263.151 201.494 262.976C201.087 262.849 200.675 262.822 200.258 262.894C199.841 262.966 199.421 263.111 198.998 263.328L196.67 270.374L194.312 269.638L197.531 259.896L198.973 260.345C199.278 260.441 199.431 260.646 199.433 260.96L199.341 261.78Z" fill="#4B4946"/>
</svg>
